<svg width="29" height="31" viewBox="0 0 29 31" fill="none" xmlns="http://www.w3.org/2000/svg">
<g clip-path="url(#clip0_1_3565)">
<path d="M7.851 15.8166C7.851 15.5127 7.73038 15.2213 7.51565 15.0064C7.30091 14.7915 7.00966 14.6708 6.70599 14.6708H1.1454C0.853665 14.6884 0.579649 14.8168 0.379303 15.0297C0.178956 15.2427 0.0673828 15.5241 0.0673828 15.8166C0.0673828 16.1091 0.178956 16.3905 0.379303 16.6035C0.579649 16.8164 0.853665 16.9448 1.1454 16.9624H6.70599C7.00949 16.9619 7.30042 16.841 7.51504 16.6262C7.72965 16.4115 7.85045 16.1203 7.851 15.8166Z" fill="#5E5E5E"/>
<path d="M8.42905 10.4729C8.53456 10.5837 8.66117 10.6724 8.80143 10.7335C8.94168 10.7947 9.09274 10.8272 9.24572 10.829C9.3987 10.8309 9.5505 10.8021 9.69221 10.7444C9.83391 10.6867 9.96265 10.6012 10.0708 10.4929C10.179 10.3846 10.2645 10.2558 10.3221 10.114C10.3798 9.97221 10.4086 9.8203 10.4067 9.66721C10.4049 9.51412 10.3724 9.36295 10.3113 9.22259C10.2501 9.08224 10.1616 8.95554 10.0508 8.84995L6.11821 4.91662C5.90343 4.70168 5.61212 4.58093 5.30838 4.58093C5.00463 4.58093 4.71332 4.70168 4.49854 4.91662C4.28376 5.13156 4.16309 5.42307 4.16309 5.72703C4.16309 6.031 4.28376 6.32252 4.49854 6.53745L8.42905 10.4729Z" fill="#5E5E5E"/>
<path d="M8.47735 21.0958L4.55518 25.0292C4.3404 25.2441 4.21973 25.5356 4.21973 25.8396C4.21973 26.1435 4.3404 26.435 4.55518 26.65C4.76996 26.8649 5.06127 26.9857 5.36502 26.9857C5.66876 26.9857 5.96007 26.8649 6.17485 26.65L10.1074 22.7166C10.2138 22.6101 10.2981 22.4836 10.3556 22.3444C10.4131 22.2053 10.4427 22.0561 10.4426 21.9055C10.4425 21.7549 10.4128 21.6058 10.3551 21.4667C10.2974 21.3276 10.2129 21.2012 10.1064 21.0948C9.99992 20.9883 9.87351 20.904 9.73444 20.8464C9.59536 20.7889 9.44633 20.7593 9.29583 20.7594C9.14534 20.7595 8.99633 20.7892 8.85733 20.847C8.71833 20.9047 8.59204 20.9893 8.48569 21.0958H8.47735Z" fill="#5E5E5E"/>
<path d="M27.8213 13.8709C27.9008 13.8915 27.9827 13.902 28.0649 13.9021C28.2925 13.9025 28.5125 13.8199 28.6838 13.6698C28.855 13.5197 28.9658 13.3123 28.9954 13.0864C29.0249 12.8606 28.9713 12.6316 28.8445 12.4424C28.7177 12.2532 28.5264 12.1167 28.3063 12.0584L24.7131 11.0959L28.3126 9.01253C28.4228 8.95294 28.52 8.87183 28.5983 8.77401C28.6766 8.67619 28.7346 8.56364 28.7687 8.44301C28.8028 8.32238 28.8124 8.19613 28.7969 8.07173C28.7814 7.94733 28.7412 7.8273 28.6785 7.71875C28.6158 7.61019 28.5321 7.51532 28.4321 7.43974C28.3322 7.36416 28.2181 7.3094 28.0966 7.27871C27.9752 7.24803 27.8488 7.24202 27.725 7.26107C27.6011 7.28012 27.4824 7.32383 27.3758 7.38961L23.7659 9.47294L24.7339 5.86253C24.7982 5.62217 24.7645 5.36609 24.6402 5.15062C24.5158 4.93515 24.311 4.77794 24.0708 4.71357C23.8307 4.6492 23.5748 4.68294 23.3594 4.80738C23.1441 4.93182 22.987 5.13675 22.9227 5.37711L21.4654 10.7938L19.9873 11.6479C19.0042 10.5455 17.6625 9.82735 16.2004 9.62086V7.65627L20.1684 3.68128C20.344 3.50529 20.4425 3.26672 20.4423 3.01803C20.4421 2.76935 20.3432 2.53094 20.1674 2.35523C19.9915 2.17952 19.7531 2.08092 19.5046 2.08112C19.2561 2.08131 19.0179 2.18029 18.8423 2.35627L16.1984 5.00211V0.937524C16.1985 0.867442 16.1908 0.797563 16.1755 0.729191C16.146 0.525237 16.0441 0.338709 15.8886 0.203684C15.733 0.0686596 15.5341 -0.00584859 15.3282 -0.00622559H15.2948H15.2616C15.2303 -0.00622559 15.2033 -0.00622559 15.172 -0.00622559C14.9748 0.0298931 14.7966 0.134148 14.6684 0.288352C14.5401 0.442556 14.4701 0.636916 14.4704 0.837522V9.60627C12.9802 9.81697 11.6161 10.5591 10.6291 11.6962C9.64212 12.8332 9.09863 14.2887 9.09863 15.7948C9.09863 17.3009 9.64212 18.7564 10.6291 19.8935C11.6161 21.0305 12.9802 21.7727 14.4704 21.9834V30.1084C14.4647 30.2248 14.4827 30.3411 14.5233 30.4504C14.5638 30.5596 14.6261 30.6595 14.7065 30.7439C14.7868 30.8284 14.8834 30.8956 14.9904 30.9415C15.0975 30.9874 15.2127 31.0111 15.3292 31.0111C15.4457 31.0111 15.5609 30.9874 15.668 30.9415C15.775 30.8956 15.8716 30.8284 15.952 30.7439C16.0323 30.6595 16.0946 30.5596 16.1352 30.4504C16.1757 30.3411 16.1937 30.2248 16.188 30.1084V30.0729C16.19 30.0382 16.19 30.0035 16.188 29.9688V25.9896L18.6383 28.4396C18.7241 28.5317 18.8275 28.6056 18.9424 28.6568C19.0573 28.7081 19.1814 28.7356 19.3072 28.7378C19.4329 28.7401 19.5579 28.7169 19.6745 28.6698C19.7912 28.6226 19.8972 28.5524 19.9861 28.4634C20.0751 28.3744 20.1452 28.2683 20.1923 28.1516C20.2394 28.0349 20.2626 27.9098 20.2604 27.784C20.2581 27.6581 20.2306 27.5339 20.1794 27.4189C20.1282 27.3039 20.0544 27.2004 19.9623 27.1146L16.2129 23.3438V22.0063C17.0386 21.8889 17.8324 21.6071 18.5475 21.1778C19.2626 20.7484 19.8845 20.1801 20.3766 19.5063L21.3447 20.0667L22.8249 25.5938C22.8784 25.7932 22.9961 25.9695 23.1598 26.0953C23.3235 26.2211 23.5241 26.2894 23.7305 26.2896C23.8128 26.2897 23.8947 26.2784 23.974 26.2563C24.2139 26.1918 24.4184 26.0347 24.5425 25.8195C24.6666 25.6042 24.7003 25.3484 24.636 25.1084L23.641 21.3917L27.3758 23.55C27.4824 23.6158 27.6011 23.6595 27.725 23.6786C27.8488 23.6976 27.9752 23.6916 28.0966 23.6609C28.2181 23.6302 28.3322 23.5755 28.4321 23.4999C28.5321 23.4243 28.6158 23.3294 28.6785 23.2209C28.7412 23.1123 28.7814 22.9923 28.7969 22.8679C28.8124 22.7435 28.8028 22.6172 28.7687 22.4966C28.7346 22.376 28.6766 22.2634 28.5983 22.1656C28.52 22.0678 28.4228 21.9867 28.3126 21.9271L24.7214 19.8438L28.2085 18.9084C28.4487 18.844 28.6535 18.6868 28.7778 18.4713C28.9022 18.2558 28.9359 17.9998 28.8716 17.7594C28.8072 17.519 28.6501 17.3141 28.4348 17.1897C28.2195 17.0652 27.9636 17.0315 27.7234 17.0959L22.4272 18.5167L21.2448 17.8354C21.7623 16.3265 21.6819 14.6764 21.0199 13.225L22.4168 12.4167L27.8213 13.8709ZM19.5751 16.8729C19.5379 17.0225 19.4927 17.1699 19.4398 17.3146L19.4273 17.3459C19.3815 17.4688 19.3294 17.5896 19.2732 17.7084C19.2607 17.7354 19.2483 17.7625 19.2337 17.7896C19.2025 17.8521 19.1712 17.9125 19.1379 17.9729C19.1046 18.0334 19.0505 18.1209 19.0026 18.1938L18.9089 18.3334C18.2651 19.2475 17.2972 19.8815 16.2025 20.1063C16.061 20.1334 15.9194 20.1563 15.7737 20.1709C15.1658 20.2319 14.5519 20.1648 13.9715 19.9738C13.3911 19.7829 12.8572 19.4723 12.4041 19.0621C11.951 18.652 11.5889 18.1513 11.3411 17.5925C11.0932 17.0337 10.9652 16.4291 10.9652 15.8177C10.9652 15.2063 11.0932 14.6017 11.3411 14.0429C11.5889 13.4841 11.951 12.9835 12.4041 12.5733C12.8572 12.1632 13.3911 11.8526 13.9715 11.6616C14.5519 11.4707 15.1658 11.4036 15.7737 11.4646C15.9194 11.4792 16.061 11.5021 16.2025 11.5292C16.9936 11.693 17.7241 12.0722 18.3135 12.625C18.4824 12.7837 18.639 12.955 18.7819 13.1375L18.8257 13.1979C18.8964 13.2917 18.9631 13.3896 19.0338 13.4875L19.1088 13.6125C19.1546 13.6896 19.1983 13.7688 19.2379 13.85C19.2774 13.9313 19.2941 13.9604 19.3191 14.0167C19.344 14.0729 19.3669 14.1209 19.3877 14.1729C19.7409 15.0317 19.8074 15.9817 19.5772 16.8813L19.5751 16.8729Z" fill="#5E5E5E"/>
<path d="M15.3373 17.6729C16.3618 17.6729 17.1923 16.8419 17.1923 15.8167C17.1923 14.7915 16.3618 13.9604 15.3373 13.9604C14.3129 13.9604 13.4824 14.7915 13.4824 15.8167C13.4824 16.8419 14.3129 17.6729 15.3373 17.6729Z" fill="#5E5E5E"/>
</g>
<defs>
<clipPath id="clip0_1_3565">
<rect width="29" height="31" fill="white"/>
</clipPath>
</defs>
</svg>
