<svg width="27" height="27" viewBox="0 0 27 27" fill="none" xmlns="http://www.w3.org/2000/svg">
<g clip-path="url(#clip0_1_2628)">
<rect x="2.45459" y="0.818237" width="15.5455" height="25.3636" rx="2" fill="#FCB6BD"/>
<path d="M5.0625 4.21875C5.0625 3.99497 5.1514 3.78036 5.30963 3.62213C5.46786 3.4639 5.68247 3.375 5.90625 3.375H14.3438C14.5675 3.375 14.7821 3.4639 14.9404 3.62213C15.0986 3.78036 15.1875 3.99497 15.1875 4.21875V12.6562C15.1875 12.88 15.0986 13.0946 14.9404 13.2529C14.7821 13.4111 14.5675 13.5 14.3438 13.5H5.90625C5.68247 13.5 5.46786 13.4111 5.30963 13.2529C5.1514 13.0946 5.0625 12.88 5.0625 12.6562V4.21875Z" fill="#E70F18"/>
<path d="M1.6875 3.375C1.6875 2.47989 2.04308 1.62145 2.67601 0.988515C3.30895 0.355579 4.16739 0 5.0625 0L15.1875 0C16.0826 0 16.941 0.355579 17.574 0.988515C18.2069 1.62145 18.5625 2.47989 18.5625 3.375V16.875C19.4576 16.875 20.316 17.2306 20.949 17.8635C21.5819 18.4965 21.9375 19.3549 21.9375 20.25V21.0938C21.9375 21.3175 22.0264 21.5321 22.1846 21.6904C22.3429 21.8486 22.5575 21.9375 22.7812 21.9375C23.005 21.9375 23.2196 21.8486 23.3779 21.6904C23.5361 21.5321 23.625 21.3175 23.625 21.0938V13.5H22.7812C22.5575 13.5 22.3429 13.4111 22.1846 13.2529C22.0264 13.0946 21.9375 12.88 21.9375 12.6562V7.38281C21.9375 7.15904 22.0264 6.94443 22.1846 6.78619C22.3429 6.62796 22.5575 6.53906 22.7812 6.53906H25.3041C25.2855 5.73581 25.2146 5.03044 24.9649 4.47694C24.8312 4.1551 24.5982 3.88434 24.3 3.70406C23.9895 3.51844 23.517 3.375 22.7812 3.375C22.5575 3.375 22.3429 3.28611 22.1846 3.12787C22.0264 2.96964 21.9375 2.75503 21.9375 2.53125C21.9375 2.30747 22.0264 2.09286 22.1846 1.93463C22.3429 1.77639 22.5575 1.6875 22.7812 1.6875C23.733 1.6875 24.5261 1.87312 25.164 2.2545C25.8103 2.63925 26.2339 3.18431 26.5039 3.78506C27.0017 4.89038 27 6.25725 27 7.29675V12.6546C27.0002 12.7655 26.9786 12.8754 26.9363 12.978C26.894 13.0805 26.8318 13.1737 26.7535 13.2523C26.6751 13.3308 26.582 13.3931 26.4795 13.4356C26.3771 13.4781 26.2672 13.5 26.1562 13.5H25.3125V21.0938C25.3125 21.7651 25.0458 22.4089 24.5711 22.8836C24.0964 23.3583 23.4526 23.625 22.7812 23.625C22.1099 23.625 21.4661 23.3583 20.9914 22.8836C20.5167 22.4089 20.25 21.7651 20.25 21.0938V20.25C20.25 19.8024 20.0722 19.3732 19.7557 19.0568C19.4393 18.7403 19.0101 18.5625 18.5625 18.5625V25.3125H19.4062C19.63 25.3125 19.8446 25.4014 20.0029 25.5596C20.1611 25.7179 20.25 25.9325 20.25 26.1562C20.25 26.38 20.1611 26.5946 20.0029 26.7529C19.8446 26.9111 19.63 27 19.4062 27H0.84375C0.619974 27 0.405362 26.9111 0.247129 26.7529C0.0888949 26.5946 0 26.38 0 26.1562C0 25.9325 0.0888949 25.7179 0.247129 25.5596C0.405362 25.4014 0.619974 25.3125 0.84375 25.3125H1.6875V3.375ZM16.875 3.375C16.875 2.92745 16.6972 2.49822 16.3807 2.18176C16.0643 1.86529 15.6351 1.6875 15.1875 1.6875H5.0625C4.61495 1.6875 4.18572 1.86529 3.86926 2.18176C3.55279 2.49822 3.375 2.92745 3.375 3.375V25.3125H16.875V3.375Z" fill="#E70F18"/>
</g>
<defs>
<clipPath id="clip0_1_2628">
<rect width="27" height="27" fill="white"/>
</clipPath>
</defs>
</svg>
