<svg width="39" height="25" viewBox="0 0 39 25" fill="none" xmlns="http://www.w3.org/2000/svg">
<g clip-path="url(#clip0_1_3587)">
<path d="M31.1515 8.70739C30.6963 8.70971 30.2421 8.75098 29.794 8.83074L27.6573 2.66351H30.2003C30.5172 2.66351 30.8212 2.53856 31.0453 2.31614C31.2694 2.09372 31.3953 1.79206 31.3953 1.47751C31.3953 1.16296 31.2694 0.861291 31.0453 0.638872C30.8212 0.416453 30.5172 0.291504 30.2003 0.291504H24.3113L26.5579 6.78607H14.9617L13.4703 4.17686H14.5171C14.8341 4.17686 15.138 4.0519 15.3621 3.82948C15.5862 3.60706 15.7121 3.3054 15.7121 2.99085C15.7121 2.6763 15.5862 2.37463 15.3621 2.15222C15.138 1.9298 14.8341 1.80485 14.5171 1.80485H8.69031C8.37338 1.80485 8.06943 1.9298 7.84532 2.15222C7.62122 2.37463 7.49531 2.6763 7.49531 2.99085C7.49531 3.3054 7.62122 3.60706 7.84532 3.82948C8.06943 4.0519 8.37338 4.17686 8.69031 4.17686H10.717L17.0314 15.2352H15.5974C15.2767 13.2969 14.2305 11.5502 12.6679 10.3446C11.1054 9.13903 9.1419 8.56338 7.17013 8.73284C5.19836 8.9023 3.36376 9.80437 2.03333 11.2586C0.702896 12.7128 -0.0252568 14.612 -0.0054663 16.5761C0.0143242 18.5403 0.780581 20.4246 2.14005 21.8522C3.49951 23.2797 5.35192 24.1452 7.32671 24.2755C9.3015 24.4058 11.2531 23.7913 12.791 22.5549C14.3289 21.3185 15.3397 19.5514 15.6213 17.6072H21.147L20.5351 16.5398L27.1411 8.44648L27.5378 9.59453C25.84 10.4765 24.5265 11.9452 23.8456 13.723C23.1646 15.5008 23.1634 17.4645 23.8421 19.2432C24.5209 21.0218 25.8325 22.4921 27.5293 23.3762C29.226 24.2602 31.1902 24.4968 33.0508 24.0413C34.9114 23.5857 36.5393 22.4696 37.6271 20.9038C38.7148 19.3379 39.187 17.4309 38.9543 15.543C38.7217 13.6552 37.8004 11.9173 36.3644 10.6578C34.9285 9.39831 33.0774 8.70446 31.1611 8.70739H31.1515ZM7.84903 21.9195C6.8225 21.9218 5.81608 21.6371 4.94509 21.0979C4.07409 20.5587 3.37378 19.7869 2.92438 18.8709C2.47498 17.955 2.29467 16.9319 2.40414 15.9189C2.5136 14.9059 2.9084 13.944 3.5433 13.1434C4.17819 12.3428 5.0275 11.736 5.99389 11.3924C6.96028 11.0488 8.00464 10.9823 9.00733 11.2006C10.01 11.419 10.9304 11.9132 11.6631 12.6268C12.3958 13.3403 12.9112 14.2443 13.1501 15.2352H7.97331C7.65638 15.2352 7.35243 15.3601 7.12832 15.5825C6.90422 15.805 6.77831 16.1066 6.77831 16.4212C6.77831 16.7357 6.90422 17.0374 7.12832 17.2598C7.35243 17.4822 7.65638 17.6072 7.97331 17.6072H13.1931C12.9355 18.8251 12.264 19.9182 11.2911 20.7033C10.3182 21.4884 9.10294 21.9177 7.84903 21.9195ZM19.2589 14.3291L16.3096 9.16756H23.4796L19.2589 14.3291ZM31.1515 21.9195C29.9599 21.9215 28.8003 21.5362 27.8502 20.8223C26.9001 20.1085 26.2117 19.1055 25.8902 17.9666C25.5688 16.8277 25.632 15.6157 26.0703 14.5159C26.5085 13.4161 27.2976 12.489 28.317 11.8764L30.0521 16.8956C30.1342 17.1291 30.2872 17.3316 30.4901 17.4752C30.693 17.6188 30.9358 17.6964 31.185 17.6973C31.3168 17.696 31.4475 17.6736 31.5722 17.6309C31.7207 17.5802 31.8577 17.5009 31.9753 17.3977C32.0929 17.2944 32.1889 17.1691 32.2577 17.029C32.3265 16.8889 32.3668 16.7367 32.3763 16.5811C32.3858 16.4255 32.3643 16.2696 32.3131 16.1223L30.5827 11.1079C30.7717 11.0888 30.9615 11.0793 31.1515 11.0794C32.5719 11.1211 33.9201 11.7104 34.91 12.7223C35.8998 13.7343 36.4535 15.0891 36.4535 16.4994C36.4535 17.9098 35.8998 19.2646 34.91 20.2766C33.9201 21.2885 32.5719 21.8778 31.1515 21.9195Z" fill="#C3C3C3"/>
</g>
<defs>
<clipPath id="clip0_1_3587">
<rect width="39" height="24" fill="white" transform="translate(0 0.291504)"/>
</clipPath>
</defs>
</svg>
