<svg width="54" height="19" viewBox="0 0 54 19" fill="none" xmlns="http://www.w3.org/2000/svg">
<g clip-path="url(#clip0_1_3592)">
<path d="M8.00891 9.83032C7.18396 9.83298 6.37838 10.0845 5.69432 10.553C5.01026 11.0215 4.47855 11.6858 4.16662 12.4618C3.85469 13.2378 3.7766 14.0904 3.94224 14.9115C4.10789 15.7326 4.50981 16.4852 5.09704 17.074C5.68426 17.6627 6.43033 18.0609 7.24063 18.2182C8.05092 18.3755 8.88894 18.2847 9.64839 17.9574C10.4078 17.6301 11.0545 17.081 11.5064 16.3797C11.9583 15.6785 12.195 14.8567 12.1866 14.0185C12.1834 13.4647 12.0728 12.9169 11.8611 12.4065C11.6493 11.8961 11.3406 11.4332 10.9526 11.0442C10.5645 10.6552 10.1048 10.3477 9.59969 10.1394C9.09459 9.93114 8.55401 9.8261 8.00891 9.83032ZM8.06825 16.3698C7.6184 16.3791 7.17598 16.2524 6.79708 16.0059C6.41818 15.7593 6.11988 15.404 5.94001 14.985C5.76014 14.5659 5.70681 14.102 5.78677 13.6521C5.86674 13.2023 6.0764 12.7866 6.38917 12.458C6.70193 12.1294 7.10371 11.9025 7.54355 11.8062C7.9834 11.7099 8.44148 11.7485 8.85971 11.917C9.27794 12.0856 9.63747 12.3766 9.89271 12.7531C10.148 13.1296 10.2874 13.5746 10.2934 14.0317C10.2909 14.6378 10.058 15.2195 9.64337 15.6552C9.2287 16.0909 8.66435 16.3469 8.06825 16.3698Z" fill="#030303"/>
<path d="M41.7638 9.83031C40.9388 9.83296 40.1333 10.0845 39.4492 10.553C38.7651 11.0215 38.2334 11.6858 37.9215 12.4618C37.6096 13.2378 37.5315 14.0904 37.6971 14.9115C37.8628 15.7326 38.2647 16.4852 38.8519 17.0739C39.4391 17.6626 40.1852 18.0609 40.9955 18.2182C41.8058 18.3755 42.6438 18.2847 43.4033 17.9574C44.1627 17.6301 44.8094 17.081 45.2613 16.3797C45.7132 15.6785 45.9499 14.8566 45.9415 14.0185C45.9381 13.4647 45.8273 12.917 45.6154 12.4068C45.4036 11.8965 45.0949 11.4337 44.7069 11.0447C44.3189 10.6557 43.8593 10.3483 43.3543 10.1399C42.8493 9.93154 42.3088 9.82634 41.7638 9.83031ZM41.8157 16.3698C41.3659 16.3791 40.9234 16.2524 40.5445 16.0058C40.1656 15.7593 39.8673 15.404 39.6875 14.9849C39.5076 14.5659 39.4543 14.102 39.5342 13.6521C39.6142 13.2023 39.8239 12.7866 40.1366 12.458C40.4494 12.1293 40.8512 11.9025 41.291 11.8062C41.7309 11.7099 42.1889 11.7484 42.6072 11.917C43.0254 12.0856 43.3849 12.3766 43.6402 12.7531C43.8954 13.1295 44.0349 13.5746 44.0408 14.0317C44.0379 14.6376 43.8049 15.2191 43.3903 15.6547C42.9758 16.0903 42.4117 16.3465 41.8157 16.3698Z" fill="#030303"/>
<path d="M53.1808 8.37965C53.1447 8.34673 53.1227 8.30074 53.1196 8.25154C53.1196 7.49793 53.0047 6.75939 52.9602 6.01332C52.9231 5.35579 52.7488 5.03739 52.0998 5.00536C51.1355 4.95638 50.1695 4.9187 49.2071 4.8471C48.6063 4.80189 47.9926 4.81508 47.4326 4.51363C45.6384 3.54904 43.7874 2.69773 41.8902 1.96454C39.8426 1.21351 37.7123 0.719992 35.5467 0.495002L35.1518 0.474277C33.8538 0.406452 32.7041 0.319787 31.3116 0.297178C28.1352 0.244425 25.3779 0.485582 22.4649 1.97585C20.4567 2.99887 18.4874 4.09349 16.585 5.31058C16.1855 5.57566 15.7213 5.72245 15.2443 5.73448C11.2706 5.87767 9.99119 5.89085 6.19921 6.63693C4.39686 6.99113 2.94312 7.27938 1.38739 8.37965C1.26015 8.46699 1.13816 8.56199 1.0221 8.66415C0.992381 8.69229 0.969233 8.72683 0.954345 8.76523C0.939457 8.80364 0.933206 8.84494 0.93605 8.88611C0.938894 8.92729 0.95076 8.9673 0.970781 9.00322C0.990802 9.03913 1.01847 9.07005 1.05177 9.0937C1.1577 9.17184 1.24387 9.2744 1.30318 9.39297C1.3625 9.51154 1.39326 9.64272 1.39295 9.77572V10.1525C1.39295 10.3759 1.30562 10.5901 1.15018 10.748C0.994743 10.906 0.78392 10.9947 0.564093 10.9947H0.0078125C0.059732 11.3922 0.0690036 12.7223 0.0949633 13.4628C0.158008 15.2451 0.493632 15.1113 2.25148 15.2093C2.34693 15.2083 2.44234 15.2139 2.53703 15.2262C3.021 15.3223 3.18788 15.2262 3.11186 14.6422C2.652 11.2 5.83207 8.32879 9.16048 9.14269C11.8992 9.81152 13.3585 12.3135 12.8245 15.4787C12.9128 15.5018 13.0027 15.5182 13.0934 15.5277C21.1743 15.5277 28.5135 15.5277 36.5944 15.5408C37.0765 15.5408 37.0728 15.3524 36.9949 14.9907C36.7547 13.8332 36.9415 12.6263 37.5197 11.5995C38.0627 10.6101 38.9176 9.83515 39.9467 9.39928C40.9758 8.96341 42.1194 8.89197 43.1933 9.19645C44.2672 9.50094 45.2091 10.1636 45.8673 11.0779C46.5256 11.9922 46.8621 13.105 46.8225 14.2371C46.8114 14.5329 46.7094 14.8211 47.1934 14.7835C48.6471 14.6723 50.1213 14.6798 51.5361 14.3106C52.7339 13.9959 53.713 13.2348 53.8298 11.9047C53.9355 10.7064 54.3861 9.36123 53.1808 8.37965ZM17.4602 5.94172C18.2557 5.44434 20.9351 3.84103 20.9351 3.84103C23.6442 2.14541 27.2396 1.07528 31.293 1.25615H31.3653C31.4135 1.25232 31.4618 1.25232 31.51 1.25615C33.1788 1.34281 34.4768 1.38615 36.1456 1.61035C36.5165 1.66121 36.7279 1.78179 36.8707 2.14729C37.3379 3.33423 37.8404 4.5061 38.4041 5.86071C24.9588 7.0891 17.4602 5.94172 17.4602 5.94172ZM40.7535 5.18811C40.5217 5.31811 40.3827 5.31811 40.2195 5.09015C39.4982 4.07277 38.7639 3.06293 37.948 1.93063C39.0865 2.13976 40.0526 2.30744 40.8796 2.87264C41.8716 3.55843 41.7975 4.6003 40.7535 5.18246V5.18811Z" fill="#030303"/>
</g>
<defs>
<clipPath id="clip0_1_3592">
<rect width="54" height="18" fill="white" transform="translate(0 0.291504)"/>
</clipPath>
</defs>
</svg>
