<svg width="32" height="32" viewBox="0 0 32 32" fill="none" xmlns="http://www.w3.org/2000/svg">
<path d="M8 9.5L11 4.5L15.8968 3.03096L21 4.5L24 9.5L28 11.5L28.5 16.5L27.5 19.5L23.5 21.5L18 20.5L13.5 21L5.5 20.5L3 17V13.5L5.5 11.5L8 9.5Z" fill="#FCB6BD"/>
<path d="M17 30.0001C16.8296 30 16.662 29.9563 16.5132 29.8733C16.3644 29.7903 16.2393 29.6706 16.1498 29.5257C16.0602 29.3807 16.0092 29.2153 16.0015 29.045C15.9938 28.8748 16.0298 28.7055 16.106 28.5531L18.106 24.5531C18.1621 24.4315 18.2421 24.3224 18.3412 24.2323C18.4404 24.1423 18.5565 24.073 18.6829 24.0287C18.8093 23.9844 18.9433 23.9659 19.077 23.9744C19.2106 23.9829 19.3412 24.0181 19.461 24.078C19.5808 24.1379 19.6873 24.2212 19.7743 24.3231C19.8612 24.4249 19.9269 24.5432 19.9672 24.6709C20.0076 24.7986 20.0219 24.9331 20.0093 25.0664C19.9968 25.1997 19.9575 25.3292 19.894 25.4471L17.894 29.4471C17.8111 29.6133 17.6836 29.7531 17.5257 29.8508C17.3677 29.9485 17.1857 30.0002 17 30.0001ZM7.99995 30.0001C7.82956 30 7.66202 29.9563 7.51323 29.8733C7.36443 29.7903 7.23932 29.6706 7.14976 29.5257C7.0602 29.3807 7.00917 29.2153 7.0015 29.045C6.99383 28.8748 7.02979 28.7055 7.10595 28.5531L9.10595 24.5531C9.16212 24.4315 9.24213 24.3224 9.34124 24.2323C9.44035 24.1423 9.55654 24.073 9.68292 24.0287C9.80931 23.9844 9.9433 23.9659 10.077 23.9744C10.2106 23.9829 10.3412 24.0181 10.461 24.078C10.5808 24.1379 10.6873 24.2212 10.7743 24.3231C10.8612 24.4249 10.9269 24.5432 10.9672 24.6709C11.0076 24.7986 11.0219 24.9331 11.0093 25.0664C10.9968 25.1997 10.9575 25.3292 10.894 25.4471L8.89395 29.4471C8.81115 29.6133 8.6836 29.7531 8.52567 29.8508C8.36773 29.9485 8.18567 30.0002 7.99995 30.0001Z" fill="#E70F18"/>
<path d="M30.0001 15.5C29.993 14.0042 29.4728 12.5561 28.5263 11.3978C27.5799 10.2394 26.2645 9.44105 24.8001 9.13603C24.374 7.11782 23.2671 5.3074 21.6649 4.00821C20.0628 2.70901 18.0628 2 16.0001 2C13.9374 2 11.9373 2.70901 10.3352 4.00821C8.73307 5.3074 7.62618 7.11782 7.20007 9.13603C5.86524 9.40664 4.64937 10.0903 3.72466 11.0903C2.79994 12.0902 2.21324 13.3557 2.04766 14.7076C1.88208 16.0595 2.146 17.4292 2.80204 18.6228C3.45809 19.8164 4.47301 20.7733 5.70307 21.358L4.10607 24.553C4.04251 24.6709 4.00327 24.8004 3.99068 24.9337C3.97809 25.067 3.99241 25.2015 4.0328 25.3292C4.07318 25.4569 4.1388 25.5752 4.22576 25.677C4.31272 25.7789 4.41926 25.8622 4.53904 25.9221C4.65882 25.982 4.78942 26.0172 4.92307 26.0257C5.05673 26.0341 5.19072 26.0157 5.3171 25.9714C5.44348 25.927 5.55968 25.8578 5.65879 25.7677C5.7579 25.6777 5.83791 25.5686 5.89407 25.447L7.61707 22H14.3821L13.1061 24.553C13.0425 24.6709 13.0033 24.8004 12.9907 24.9337C12.9781 25.067 12.9924 25.2015 13.0328 25.3292C13.0732 25.4569 13.1388 25.5752 13.2258 25.677C13.3127 25.7789 13.4193 25.8622 13.539 25.9221C13.6588 25.982 13.7894 26.0172 13.9231 26.0257C14.0567 26.0341 14.1907 26.0157 14.3171 25.9714C14.4435 25.927 14.5597 25.8578 14.6588 25.7677C14.7579 25.6777 14.8379 25.5686 14.8941 25.447L16.6191 22H23.3831L22.1071 24.553C22.0435 24.6709 22.0043 24.8004 21.9917 24.9337C21.9791 25.067 21.9934 25.2015 22.0338 25.3292C22.0742 25.4569 22.1398 25.5752 22.2268 25.677C22.3137 25.7789 22.4203 25.8622 22.54 25.9221C22.6598 25.982 22.7904 26.0172 22.9241 26.0257C23.0577 26.0341 23.1917 26.0157 23.3181 25.9714C23.4445 25.927 23.5607 25.8578 23.6598 25.7677C23.7589 25.6777 23.8389 25.5686 23.8951 25.447L25.8401 21.557C27.0631 21.0842 28.1147 20.2529 28.857 19.172C29.5994 18.0912 29.9978 16.8113 30.0001 15.5ZM23.5001 20H8.50007C7.33571 20.0038 6.21527 19.5558 5.37448 18.7503C4.53369 17.9448 4.0381 16.8446 3.99198 15.6812C3.94586 14.5177 4.35281 13.3817 5.1272 12.5122C5.9016 11.6427 6.98307 11.1074 8.14407 11.019L8.96007 10.955L9.05907 10.143C9.26781 8.44905 10.0888 6.88986 11.3673 5.75918C12.6459 4.6285 14.2938 4.00438 16.0006 4.00438C17.7074 4.00438 19.3553 4.6285 20.6338 5.75918C21.9124 6.88986 22.7333 8.44905 22.9421 10.143L23.0411 10.955L23.8561 11.019C25.0171 11.1074 26.0986 11.6427 26.8729 12.5122C27.6473 13.3817 28.0543 14.5177 28.0082 15.6812C27.962 16.8446 27.4665 17.9448 26.6257 18.7503C25.7849 19.5558 24.6644 20.0038 23.5001 20Z" fill="#E70F18"/>
</svg>
