<svg width="50" height="22" viewBox="0 0 50 22" fill="none" xmlns="http://www.w3.org/2000/svg">
<g clip-path="url(#clip0_1_3602)">
<path d="M3.33438 18.8806C1.10754 18.5138 -0.59 15.6598 0.194499 13.6399C0.383535 13.163 0.311705 12.6708 0.34006 12.1882C0.504521 9.48619 0.8032 8.5304 4.20585 7.33331C5.29564 6.98437 6.40383 6.69637 7.52532 6.47064C8.07293 6.34667 8.57867 6.08069 8.99223 5.69917C10.3287 4.48117 11.6539 3.25367 13.0111 2.06228C14.5378 0.672189 16.5422 -0.0670763 18.6009 0.000607243C28.3268 0.0994153 34.2739 0.0690132 43.9998 0.0158088C45.3798 0.0158088 46.1964 0.574455 46.7994 1.69935C47.6992 3.37908 48.1605 5.20513 48.5404 7.05208C48.9493 9.01807 49.1921 11.0153 49.2663 13.0224C49.2663 13.1896 49.2323 13.3663 49.3646 13.5107C50.9204 15.2323 49.3779 17.6645 47.3646 18.0331C45.9695 18.2858 44.5537 18.3219 43.1472 18.4511C42.6368 18.4967 42.754 18.1775 42.7578 17.8944C42.79 15.2209 41.0565 13.1136 38.4573 12.6879C35.117 12.1407 32.1454 15.1391 32.7276 18.5024C32.824 19.0725 32.7559 19.2378 32.1321 19.2359C24.7937 19.2112 21.2361 19.215 13.8977 19.2359C13.3571 19.2359 13.1794 19.1884 13.2796 18.5404C13.3964 17.8515 13.3699 17.1456 13.2019 16.4675C13.0338 15.7893 12.7278 15.1535 12.3032 14.6001C11.8785 14.0467 11.3445 13.5877 10.7346 13.252C10.1247 12.9164 9.45231 12.7114 8.75972 12.6499C5.87881 12.3896 3.38732 14.6071 3.24554 17.5903C3.25001 18.0218 3.27967 18.4526 3.33438 18.8806Z" fill="#C3C3C3"/>
<path d="M33.4748 17.708C33.4696 17.1441 33.5771 16.5849 33.791 16.0635C34.0049 15.5422 34.3209 15.0694 34.72 14.6731C35.1192 14.2768 35.5935 13.9652 36.1148 13.7567C36.636 13.5481 37.1937 13.447 37.7546 13.4592C38.8745 13.4678 39.9457 13.921 40.7347 14.72C41.5236 15.5191 41.9663 16.5993 41.9663 17.7251C41.9551 18.8512 41.5063 19.9283 40.7159 20.7264C39.9254 21.5245 38.8559 21.9803 37.7357 21.9966C37.175 21.9989 36.6195 21.8895 36.1011 21.6747C35.5828 21.4599 35.1119 21.144 34.7157 20.7452C34.3195 20.3465 34.0059 19.8727 33.7929 19.3514C33.5799 18.8301 33.4718 18.2715 33.4748 17.708Z" fill="#C3C3C3"/>
<path d="M8.29303 13.4574C9.42108 13.4524 10.5049 13.898 11.3061 14.6962C12.1073 15.4944 12.5602 16.5799 12.5652 17.7138C12.5702 18.8477 12.1269 19.9371 11.3328 20.7425C10.5387 21.5478 9.45887 22.0031 8.33083 22.0081C7.21042 22.0053 6.13588 21.5605 5.33835 20.7695C4.54082 19.9785 4.084 18.9045 4.06618 17.7784C4.05561 17.2141 4.1572 16.6534 4.36497 16.1291C4.57275 15.6048 4.88254 15.1274 5.2762 14.725C5.66985 14.3226 6.13946 14.0032 6.65749 13.7855C7.17552 13.5679 7.73156 13.4563 8.29303 13.4574Z" fill="#C3C3C3"/>
<path d="M16.8755 6.74037C15.3632 6.74037 13.8509 6.74037 12.3518 6.74037C11.4312 6.74037 11.1477 6.33184 11.6127 5.55277C12.7129 3.71152 14.2724 2.33581 16.1382 1.30593C16.335 1.21107 16.5515 1.16481 16.7696 1.17101C18.3499 1.15961 19.9303 1.17102 21.5106 1.15771C21.9019 1.15771 22.0078 1.28882 22.0059 1.66315C21.992 3.18328 21.992 4.69834 22.0059 6.20833C22.0059 6.62446 21.8792 6.75747 21.4634 6.75177C19.9397 6.72707 18.4067 6.74037 16.8755 6.74037Z" fill="#FEFEFE"/>
<path d="M35.8408 17.7214C35.8492 17.2321 36.047 16.7654 36.3921 16.4203C36.7372 16.0751 37.2025 15.8788 37.6893 15.8728C38.1761 15.8669 38.646 16.0519 38.9993 16.3885C39.3527 16.7251 39.5616 17.1869 39.5818 17.6758C39.5824 18.182 39.3841 18.668 39.0301 19.0281C38.6761 19.3881 38.1951 19.5932 37.6915 19.5987C37.2009 19.5884 36.7336 19.3868 36.3883 19.0364C36.0429 18.6861 35.8466 18.2145 35.8408 17.7214Z" fill="#FDFDFD"/>
<path d="M10.1851 17.7328C10.1816 18.106 10.0679 18.4697 9.85843 18.7779C9.64892 19.086 9.35305 19.3246 9.00837 19.4634C8.66369 19.6022 8.28575 19.6348 7.92256 19.5573C7.55936 19.4797 7.22729 19.2954 6.96849 19.0278C6.7097 18.7602 6.53586 18.4213 6.46905 18.0542C6.40225 17.687 6.44547 17.3082 6.59326 16.9658C6.74105 16.6234 6.98672 16.3329 7.29909 16.1312C7.61145 15.9294 7.97642 15.8255 8.34766 15.8326C8.83978 15.8465 9.30711 16.0528 9.65026 16.4076C9.9934 16.7625 10.1853 17.2379 10.1851 17.7328Z" fill="#FDFDFD"/>
</g>
<defs>
<clipPath id="clip0_1_3602">
<rect width="50" height="22" fill="white" transform="translate(0 0.000488281)"/>
</clipPath>
</defs>
</svg>
