<svg width="24" height="24" viewBox="0 0 24 24" fill="none" xmlns="http://www.w3.org/2000/svg">
<path d="M8.22474 10.6248C8.3374 10.5122 8.40069 10.3593 8.40069 10.2C8.40069 10.0407 8.3374 9.88788 8.22474 9.77522C8.11207 9.66255 7.95927 9.59926 7.79994 9.59926C7.64061 9.59926 7.4878 9.66255 7.37514 9.77522L5.99994 11.1516L5.99994 9.00002C5.99994 8.20437 6.31601 7.44131 6.87862 6.8787C7.44123 6.31609 8.20429 6.00002 8.99994 6.00002L14.3999 6.00002C14.4013 6.90193 14.7411 7.77048 15.3522 8.43382C15.9633 9.09716 16.8011 9.50697 17.6999 9.58215C18.5986 9.65733 19.4929 9.39241 20.2057 8.8398C20.9185 8.2872 21.3979 7.48717 21.549 6.59802C21.7002 5.70887 21.5121 4.79536 21.0219 4.03826C20.5318 3.28116 19.7753 2.73562 18.9022 2.50957C18.0291 2.28353 17.1029 2.39346 16.3069 2.81761C15.511 3.24175 14.9032 3.94921 14.6039 4.80002L8.99994 4.80002C7.88603 4.80002 6.81774 5.24252 6.03009 6.03017C5.24244 6.81782 4.79994 7.88611 4.79994 9.00002L4.79994 11.1516L3.42474 9.77522C3.36895 9.71943 3.30272 9.67518 3.22984 9.64499C3.15695 9.6148 3.07883 9.59926 2.99994 9.59926C2.92104 9.59926 2.84292 9.6148 2.77004 9.64499C2.69715 9.67518 2.63092 9.71943 2.57514 9.77522C2.51935 9.831 2.4751 9.89723 2.44491 9.97012C2.41472 10.043 2.39918 10.1211 2.39918 10.2C2.39918 10.2789 2.41472 10.357 2.44491 10.4299C2.4751 10.5028 2.51935 10.569 2.57514 10.6248L4.97514 13.0248C5.03087 13.0807 5.09708 13.125 5.16998 13.1553C5.24287 13.1855 5.32102 13.2011 5.39994 13.2011C5.47886 13.2011 5.557 13.1855 5.6299 13.1553C5.70279 13.125 5.769 13.0807 5.82474 13.0248L8.22474 10.6248ZM17.9999 3.60002C18.6365 3.60002 19.2469 3.85287 19.697 4.30296C20.1471 4.75305 20.3999 5.3635 20.3999 6.00002C20.3999 6.63654 20.1471 7.24698 19.697 7.69707C19.2469 8.14716 18.6365 8.40002 17.9999 8.40002C17.3634 8.40002 16.753 8.14716 16.3029 7.69707C15.8528 7.24698 15.5999 6.63654 15.5999 6.00002C15.5999 5.3635 15.8528 4.75305 16.3029 4.30296C16.753 3.85287 17.3634 3.60002 17.9999 3.60002ZM5.99994 14.4C6.95472 14.4 7.87039 14.7793 8.54552 15.4544C9.22065 16.1296 9.59994 17.0452 9.59994 18L14.9999 18C15.7956 18 16.5586 17.6839 17.1213 17.1213C17.6839 16.5587 17.9999 15.7957 17.9999 15L17.9999 12.8484L16.6247 14.2248C16.569 14.2806 16.5027 14.3249 16.4298 14.355C16.357 14.3852 16.2788 14.4008 16.1999 14.4008C16.121 14.4008 16.0429 14.3852 15.97 14.355C15.8971 14.3249 15.8309 14.2806 15.7751 14.2248C15.7194 14.169 15.6751 14.1028 15.6449 14.0299C15.6147 13.957 15.5992 13.8789 15.5992 13.8C15.5992 13.7211 15.6147 13.643 15.6449 13.5701C15.6751 13.4972 15.7194 13.431 15.7751 13.3752L18.1751 10.9752C18.2309 10.9193 18.2971 10.875 18.37 10.8448C18.4429 10.8145 18.521 10.7989 18.5999 10.7989C18.6789 10.7989 18.757 10.8145 18.8299 10.8448C18.9028 10.875 18.969 10.9193 19.0247 10.9752L21.4247 13.3752C21.5374 13.4879 21.6007 13.6407 21.6007 13.8C21.6007 13.9593 21.5374 14.1122 21.4247 14.2248C21.3121 14.3375 21.1593 14.4008 20.9999 14.4008C20.8406 14.4008 20.6878 14.3375 20.5751 14.2248L19.1999 12.8484L19.1999 15C19.1999 16.1139 18.7574 17.1822 17.9698 17.9699C17.1821 18.7575 16.1138 19.2 14.9999 19.2L9.39594 19.2C9.17614 19.8226 8.78939 20.3728 8.27798 20.7905C7.76657 21.2081 7.15017 21.4771 6.49619 21.5681C5.8422 21.659 5.1758 21.5684 4.56983 21.3062C3.96386 21.044 3.44166 20.6202 3.0603 20.0811C2.67895 19.5421 2.45313 18.9086 2.40753 18.2499C2.36192 17.5912 2.4983 16.9327 2.80173 16.3462C3.10517 15.7598 3.564 15.2681 4.12805 14.9249C4.6921 14.5816 5.33966 14.4001 5.99994 14.4ZM5.99994 15.6C5.36342 15.6 4.75297 15.8529 4.30288 16.303C3.85279 16.753 3.59994 17.3635 3.59994 18C3.59994 18.6365 3.85279 19.247 4.30288 19.6971C4.75297 20.1472 5.36342 20.4 5.99994 20.4C6.63646 20.4 7.24691 20.1472 7.69699 19.6971C8.14708 19.247 8.39994 18.6365 8.39994 18C8.39994 17.3635 8.14708 16.753 7.69699 16.303C7.24691 15.8529 6.63646 15.6 5.99994 15.6Z" fill="#2C2C2C"/>
</svg>
