<svg width="79" height="49" viewBox="0 0 79 49" fill="none" xmlns="http://www.w3.org/2000/svg">
<path d="M56.5166 19.2797V40.1253H59.1937C59.3026 38.5642 59.984 37.0979 61.1078 36.007C62.2045 34.9381 63.6765 34.3397 65.2092 34.3397C66.7419 34.3397 68.2138 34.9381 69.3105 36.007C70.4343 37.0979 71.1159 38.5642 71.2247 40.1253H76.4986V22.7753C76.5016 21.852 76.1467 20.9633 75.5081 20.2952C75.1995 19.9721 74.8286 19.7147 74.4178 19.5383C74.0069 19.362 73.5647 19.2704 73.1175 19.269L56.5166 19.2797Z" fill="#FCB6BD"/>
<path d="M55.7376 1.42212H8.18652V24.9402H55.7376V1.42212Z" fill="#FCB6BD"/>
<path d="M65.3781 38.8506C64.9145 38.8496 64.4614 38.9874 64.077 39.2461C63.7892 39.4409 63.5479 39.6965 63.3702 39.9949C63.1926 40.2933 63.083 40.6271 63.0493 40.9726C63.0155 41.318 63.0585 41.6667 63.175 41.9937C63.2916 42.3208 63.4789 42.6181 63.7236 42.8647C63.9674 43.1103 64.263 43.2985 64.5889 43.4157C64.9148 43.5328 65.2627 43.576 65.6074 43.5419C65.9521 43.5079 66.2848 43.3975 66.5813 43.2189C66.8779 43.0402 67.1308 42.7978 67.3217 42.5092C67.6223 42.0558 67.7574 41.5128 67.7042 40.9716C67.6511 40.4305 67.4129 39.924 67.0298 39.5374C66.814 39.3191 66.5568 39.146 66.2732 39.0281C65.9896 38.9101 65.6853 38.8498 65.3781 38.8506Z" fill="#EC101B"/>
<path d="M3.61117 30.0901H22.7365C22.8804 30.0906 23.0229 30.0624 23.1557 30.0074C23.2885 29.9523 23.409 29.8714 23.5103 29.7694C23.7159 29.5627 23.8313 29.2831 23.8313 28.9917C23.8313 28.7003 23.7159 28.4208 23.5103 28.214C23.4097 28.1109 23.2893 28.0291 23.1564 27.9736C23.0235 27.918 22.8807 27.8898 22.7365 27.8906H3.61117C3.46718 27.8907 3.32464 27.9193 3.19182 27.9748C3.05901 28.0303 2.93859 28.1116 2.83751 28.214C2.63314 28.4214 2.51855 28.7007 2.51855 28.9917C2.51855 29.2826 2.63314 29.562 2.83751 29.7694C3.04262 29.9745 3.32088 30.0898 3.61117 30.0901Z" fill="#EC101B"/>
<path d="M75.9365 20.5359C74.5828 19.0574 72.7166 18.1479 70.7161 17.9917H70.6225L68.3657 9.38355H68.7351C68.8619 9.3832 68.9874 9.35788 69.1043 9.30904C69.2213 9.2602 69.3275 9.18875 69.4167 9.09888C69.506 9.00901 69.5767 8.90248 69.6246 8.78531C69.6726 8.66813 69.6969 8.54264 69.6962 8.41607V7.95373C69.6968 7.31862 69.572 6.68963 69.329 6.10268C69.086 5.51572 68.7296 4.98229 68.28 4.5329C67.835 4.08296 67.3047 3.72601 66.7201 3.48282C66.1354 3.23963 65.5081 3.11513 64.8747 3.11652H57.4644V1.88179C57.4643 1.62575 57.3634 1.38 57.1833 1.19761C57.0944 1.10782 56.9885 1.03654 56.8718 0.987908C56.755 0.939279 56.6298 0.914262 56.5033 0.914309H8.36059C8.23446 0.914021 8.10959 0.938994 7.99326 0.987647C7.87694 1.0363 7.77151 1.10766 7.68326 1.19761C7.59328 1.28746 7.52189 1.39412 7.4732 1.51151C7.42451 1.6289 7.39945 1.75474 7.39947 1.88179V24.3309C7.39947 24.5854 7.50074 24.8294 7.68098 25.0093C7.86122 25.1893 8.10569 25.2904 8.36059 25.2904C8.61548 25.2904 8.85995 25.1893 9.04019 25.0093C9.22043 24.8294 9.3217 24.5854 9.3217 24.3309V2.87863H55.5422V24.4538C55.5422 24.7083 55.6435 24.9523 55.8237 25.1323C56.004 25.3122 56.2484 25.4133 56.5033 25.4133C56.7582 25.4133 57.0027 25.3122 57.1829 25.1323C57.3632 24.9523 57.4644 24.7083 57.4644 24.4538V19.9106H70.1138C71.5805 19.916 72.9946 20.4568 74.0894 21.4312C75.1885 22.4091 75.8952 23.7518 76.0784 25.2102L76.0972 25.3598H70.7055C70.579 25.3598 70.4537 25.3848 70.337 25.4334C70.2203 25.4821 70.1144 25.5533 70.0255 25.6431C69.845 25.8251 69.7439 26.0711 69.7444 26.3273V28.7138C69.7435 29.3726 69.8726 30.0251 70.1243 30.634C70.376 31.243 70.7454 31.7965 71.2114 32.2629C71.6728 32.73 72.2225 33.101 72.8287 33.3542C73.4349 33.6075 74.0854 33.738 74.7426 33.7381H76.1561V39.1874H72.1404L72.111 39.0939C71.6669 37.6622 70.7754 36.4101 69.567 35.5207C68.3586 34.6314 66.8967 34.1517 65.3954 34.1517C63.8941 34.1517 62.4322 34.6314 61.2238 35.5207C60.0154 36.4101 59.1239 37.6622 58.6798 39.0939L58.6504 39.1874H57.4671V29.5664C57.4671 29.3119 57.3658 29.0679 57.1856 28.8879C57.0053 28.708 56.7609 28.6069 56.506 28.6069C56.2511 28.6069 56.0066 28.708 55.8264 28.8879C55.6462 29.0679 55.5449 29.3119 55.5449 29.5664V39.1874H29.4563C29.0373 37.731 28.1549 36.4502 26.9425 35.5386C25.73 34.6269 24.2533 34.1339 22.7354 34.1339C21.2175 34.1339 19.7408 34.6269 18.5284 35.5386C17.3159 36.4502 16.4335 37.731 16.0145 39.1874H9.28954V34.5212H15.7146C15.8411 34.5212 15.9663 34.4963 16.0831 34.4476C16.1998 34.399 16.3057 34.3277 16.3946 34.2379C16.5742 34.0552 16.6751 33.8097 16.6758 33.5537C16.6765 33.4272 16.6521 33.3017 16.6042 33.1845C16.5562 33.0673 16.4856 32.9608 16.3963 32.8709C16.307 32.7811 16.2008 32.7096 16.0839 32.6608C15.9669 32.6119 15.8414 32.5866 15.7146 32.5863H1.09758C0.971456 32.586 0.846515 32.611 0.730191 32.6596C0.613867 32.7083 0.508505 32.7796 0.420256 32.8696C0.332807 32.9605 0.264165 33.0677 0.21823 33.1851C0.172295 33.3025 0.149968 33.4277 0.152544 33.5537C0.149644 33.8078 0.245619 34.0531 0.420256 34.2379C0.508505 34.3279 0.613867 34.3992 0.730191 34.4479C0.846515 34.4965 0.971456 34.5215 1.09758 34.5212H7.37006V40.1548C7.3696 40.411 7.47067 40.657 7.65117 40.839C7.74133 40.926 7.84775 40.9945 7.96444 41.0403C8.08113 41.0862 8.20579 41.1086 8.33117 41.1063H15.728C15.728 42.9584 16.465 44.7345 17.7769 46.0442C19.0888 47.3538 20.8681 48.0895 22.7233 48.0895C24.5786 48.0895 26.3579 47.3538 27.6698 46.0442C28.9817 44.7345 29.7187 42.9584 29.7187 41.1063H58.3291V41.2346C58.4262 43.0396 59.2106 44.7395 60.5217 45.9863C61.8257 47.23 63.5598 47.924 65.3633 47.924C67.1668 47.924 68.9008 47.23 70.2048 45.9863C71.5169 44.7401 72.3014 43.0399 72.3974 41.2346V41.1063H77.077C77.202 41.1088 77.3263 41.0865 77.4426 41.0406C77.5588 40.9948 77.6648 40.9262 77.7543 40.839C77.9356 40.6572 78.0376 40.4113 78.0381 40.1548V25.9638C78.0433 23.9557 77.2933 22.0187 75.9365 20.5359ZM57.4644 5.03537H64.8854C65.5363 5.0369 66.1675 5.25821 66.6764 5.66337C67.186 6.06937 67.5451 6.63379 67.6964 7.26688L67.7339 7.43261H57.4644V5.03537ZM57.4644 17.9543V9.37018H66.3658L68.6254 17.9543H57.4644ZM76.1454 31.7818H74.7318C74.3273 31.7812 73.927 31.7006 73.5539 31.5446C73.1808 31.3886 72.8423 31.1605 72.558 30.8732C71.981 30.2924 71.6567 29.5078 71.6558 28.6898V27.268H76.1454V31.7818ZM22.7314 46.2295C21.7185 46.2295 20.7283 45.9296 19.8861 45.3679C19.0439 44.8061 18.3875 44.0076 17.9999 43.0734C17.6122 42.1392 17.5108 41.1113 17.7084 40.1195C17.906 39.1278 18.3938 38.2168 19.1101 37.5018C19.8263 36.7868 20.7388 36.3 21.7323 36.1027C22.7257 35.9054 23.7554 36.0067 24.6912 36.3936C25.627 36.7806 26.4269 37.4358 26.9896 38.2766C27.5523 39.1173 27.8527 40.1058 27.8527 41.117C27.8527 42.4734 27.3134 43.7743 26.3531 44.7339C25.3928 45.6936 24.0901 46.2334 22.7314 46.2348V46.2295ZM68.9707 44.8505C68.0193 45.8052 66.727 46.3435 65.378 46.347C64.3581 46.3439 63.3624 46.0371 62.5182 45.4658C61.6741 44.8945 61.0199 44.0846 60.6395 43.14C60.2533 42.1971 60.155 41.1611 60.3569 40.1625C60.5589 39.164 61.0521 38.2473 61.7746 37.5277C62.3131 36.9915 62.9648 36.5823 63.6822 36.3299C64.3995 36.0775 65.1643 35.9884 65.9206 36.0691C66.6769 36.1498 67.4055 36.3982 68.0532 36.7963C68.7009 37.1943 69.2513 37.7319 69.6641 38.3696C70.3107 39.3632 70.5958 40.5484 70.4715 41.7268C70.3472 42.9051 69.8211 44.0051 68.9814 44.8424L68.9707 44.8505Z" fill="#EC101B"/>
<path d="M22.7317 38.8506C22.268 38.8513 21.815 38.9895 21.4303 39.248C21.0456 39.5064 20.7466 39.8732 20.5713 40.3018C20.3937 40.7322 20.3472 41.2054 20.4375 41.6621C20.5274 42.1177 20.751 42.5363 21.08 42.8647C21.405 43.1934 21.8211 43.4176 22.2747 43.5086C22.7284 43.5995 23.1989 43.5531 23.6259 43.3751C24.0548 43.1969 24.4209 42.8955 24.678 42.5093C24.9786 42.0558 25.1137 41.5128 25.0605 40.9716C25.0074 40.4305 24.7693 39.924 24.3862 39.5374C24.1701 39.3188 23.9124 39.1455 23.6283 39.0276C23.3442 38.9096 23.0394 38.8495 22.7317 38.8506Z" fill="#EC101B"/>
</svg>
