<svg width="33" height="29" viewBox="0 0 33 29" fill="none" xmlns="http://www.w3.org/2000/svg">
<path d="M31.3571 5.14275H10.9285M7.21425 5.14275H1.64282M31.3571 23.7142H10.9285M7.21425 23.7142H1.64282M22.0714 14.4285H1.64282M31.3571 14.4285H25.7857M9.07139 1.42847C9.56394 1.42847 10.0363 1.62413 10.3846 1.97241C10.7329 2.32069 10.9285 2.79306 10.9285 3.28561V6.9999C10.9285 7.49244 10.7329 7.96481 10.3846 8.31309C10.0363 8.66137 9.56394 8.85704 9.07139 8.85704C8.57885 8.85704 8.10648 8.66137 7.7582 8.31309C7.40991 7.96481 7.21425 7.49244 7.21425 6.9999V3.28561C7.21425 2.79306 7.40991 2.32069 7.7582 1.97241C8.10648 1.62413 8.57885 1.42847 9.07139 1.42847V1.42847ZM9.07139 19.9999C9.56394 19.9999 10.0363 20.1956 10.3846 20.5438C10.7329 20.8921 10.9285 21.3645 10.9285 21.857V25.5713C10.9285 26.0639 10.7329 26.5362 10.3846 26.8845C10.0363 27.2328 9.56394 27.4285 9.07139 27.4285C8.57885 27.4285 8.10648 27.2328 7.7582 26.8845C7.40991 26.5362 7.21425 26.0639 7.21425 25.5713V21.857C7.21425 21.3645 7.40991 20.8921 7.7582 20.5438C8.10648 20.1956 8.57885 19.9999 9.07139 19.9999ZM23.9285 10.7142C24.4211 10.7142 24.8935 10.9098 25.2417 11.2581C25.59 11.6064 25.7857 12.0788 25.7857 12.5713V16.2856C25.7857 16.7782 25.59 17.2505 25.2417 17.5988C24.8935 17.9471 24.4211 18.1428 23.9285 18.1428C23.436 18.1428 22.9636 17.9471 22.6153 17.5988C22.2671 17.2505 22.0714 16.7782 22.0714 16.2856V12.5713C22.0714 12.0788 22.2671 11.6064 22.6153 11.2581C22.9636 10.9098 23.436 10.7142 23.9285 10.7142V10.7142Z" stroke="black" stroke-width="1.5" stroke-linecap="round" stroke-linejoin="round"/>
</svg>
