<svg width="20" height="20" viewBox="0 0 20 20" fill="none" xmlns="http://www.w3.org/2000/svg">
<circle cx="10" cy="10" r="9.25" stroke="#939393" stroke-width="1.5"/>
<path d="M11.888 8.28316L8.22393 8.62415L8.09273 9.07564L8.81274 9.17425C9.28315 9.25742 9.37595 9.38336 9.27355 9.73148L8.09273 13.8519C7.78232 14.9176 8.26073 15.419 9.38555 15.419C10.2576 15.419 11.2704 15.1196 11.7296 14.7085L11.8704 14.2142C11.5504 14.4234 11.0832 14.5065 10.7728 14.5065C10.3328 14.5065 10.1728 14.2772 10.2864 13.8733L11.888 8.28316ZM12 5.80237C12 6.11748 11.8314 6.41968 11.5314 6.6425C11.2313 6.86531 10.8243 6.99049 10.4 6.99049C9.97561 6.99049 9.56864 6.86531 9.26858 6.6425C8.96851 6.41968 8.79994 6.11748 8.79994 5.80237C8.79994 5.48727 8.96851 5.18506 9.26858 4.96225C9.56864 4.73943 9.97561 4.61426 10.4 4.61426C10.8243 4.61426 11.2313 4.73943 11.5314 4.96225C11.8314 5.18506 12 5.48727 12 5.80237Z" fill="#939393"/>
</svg>
