<svg width="46" height="23" viewBox="0 0 46 23" fill="none" xmlns="http://www.w3.org/2000/svg">
<g clip-path="url(#clip0_1_3596)">
<path d="M9.29548 13.8415C8.4582 13.8445 7.64064 14.0957 6.94638 14.5632C6.25212 15.0307 5.71238 15.6936 5.39555 16.4678C5.07872 17.2419 4.99906 18.0927 5.16664 18.9121C5.33423 19.7316 5.74153 20.4829 6.33694 21.071C6.93236 21.659 7.6891 22.0573 8.5113 22.2153C9.33349 22.3734 10.1841 22.2841 10.9555 21.9588C11.7269 21.6335 12.3842 21.0868 12.8443 20.388C13.3044 19.6892 13.5465 18.8697 13.5399 18.0334C13.5375 17.4795 13.4257 16.9316 13.211 16.4209C12.9963 15.9103 12.6828 15.447 12.2885 15.0576C11.8942 14.6682 11.4269 14.3604 10.9133 14.1517C10.3997 13.943 9.84992 13.8376 9.29548 13.8415ZM9.35355 20.3737C9.0461 20.3849 8.73951 20.3346 8.45181 20.2257C8.1641 20.1169 7.90109 19.9516 7.67824 19.7397C7.45539 19.5278 7.2772 19.2736 7.15413 18.9919C7.03107 18.7102 6.96562 18.4068 6.96164 18.0995C6.95766 17.7922 7.01522 17.4872 7.13094 17.2025C7.24666 16.9177 7.41821 16.6589 7.6355 16.4414C7.85278 16.2238 8.11142 16.0518 8.39621 15.9355C8.68099 15.8192 8.98618 15.761 9.29382 15.7642C10.5117 15.7427 11.5919 16.8018 11.6168 18.04C11.6138 18.6455 11.3766 19.2264 10.9548 19.6614C10.533 20.0963 9.95932 20.3515 9.35355 20.3737Z" fill="#C3C3C3"/>
<path d="M37.4849 13.8415C36.6476 13.8445 35.8301 14.0957 35.1358 14.5632C34.4416 15.0307 33.9018 15.6936 33.585 16.4678C33.2682 17.2419 33.1885 18.0927 33.3561 18.9121C33.5237 19.7316 33.931 20.4829 34.5264 21.071C35.1218 21.659 35.8785 22.0573 36.7007 22.2153C37.5229 22.3734 38.3736 22.2841 39.145 21.9588C39.9163 21.6335 40.5737 21.0868 41.0338 20.388C41.4938 19.6892 41.7359 18.8697 41.7293 18.0334C41.727 17.4795 41.6152 16.9316 41.4005 16.4209C41.1857 15.9103 40.8722 15.447 40.4779 15.0576C40.0836 14.6682 39.6163 14.3604 39.1027 14.1517C38.5891 13.943 38.0394 13.8376 37.4849 13.8415ZM37.5447 20.3737C37.2373 20.385 36.9307 20.3347 36.643 20.2259C36.3553 20.1171 36.0923 19.952 35.8694 19.7402C35.6465 19.5284 35.4683 19.2742 35.3452 18.9926C35.222 18.711 35.1565 18.4076 35.1524 18.1004C35.1483 17.7931 35.2057 17.4881 35.3213 17.2034C35.4369 16.9186 35.6083 16.6598 35.8255 16.4421C36.0426 16.2245 36.3012 16.0524 36.5859 15.936C36.8706 15.8196 37.1757 15.7612 37.4833 15.7642C38.7012 15.7427 39.7814 16.8018 39.8063 18.04C39.8037 18.6454 39.5668 19.2263 39.1453 19.6612C38.7238 20.0962 38.1503 20.3515 37.5447 20.3737Z" fill="#C3C3C3"/>
<path d="M4.09702 16.8366C4.49856 16.8665 4.64624 16.6974 4.77567 16.3394C5.50575 14.3703 7.25627 13.1421 9.28224 13.1421C10.2609 13.1413 11.216 13.4418 12.0177 14.0027C12.8193 14.5635 13.4284 15.3574 13.7623 16.2764C13.9133 16.6808 14.0941 16.83 14.5322 16.83C20.3297 16.8123 26.1277 16.8123 31.9263 16.83C32.512 16.83 32.8057 16.6792 33.048 16.0974C33.8411 14.1979 35.3511 13.2233 37.3936 13.1537C39.2968 13.0874 41.1204 14.2427 41.8056 15.9996C42.0728 16.6825 42.4079 16.946 43.0982 16.8284C43.2045 16.8143 43.3122 16.8143 43.4184 16.8284C43.8797 16.8731 44.1353 16.6543 44.2597 16.2201C44.3873 15.7234 44.4432 15.211 44.4256 14.6985C44.4256 14.309 44.6496 14.1167 45.1092 14.1482C45.6717 14.1863 45.9837 13.883 45.9837 13.2962C45.9837 11.2658 45.9837 9.23535 45.9837 7.20491C45.9837 6.65131 45.6701 6.38776 45.1408 6.36622C44.7558 6.34964 44.2033 6.34135 43.8134 6.36622C43.4815 6.38942 43.3703 6.25351 43.3156 5.94521C43.2077 5.31371 43.065 4.68883 42.9256 4.06561C42.5938 2.58214 42.1989 2.26556 40.6823 2.2639C37.408 2.2639 34.1348 2.2639 30.8627 2.2639C27.5674 2.2639 24.2721 2.27882 20.9768 2.25562C19.9884 2.25525 19.0264 2.57384 18.234 3.16392C16.9846 4.03743 16.6527 4.72032 15.9309 5.55073C14.3065 7.42536 13.3956 7.59939 11.4509 7.80658C7.69432 8.20935 7.48692 8.17289 4.20322 8.65523C2.8758 8.85081 2.0893 9.70111 1.71431 10.9492C1.59171 11.3356 1.50397 11.7323 1.45214 12.1343C1.42447 12.3779 1.37561 12.6186 1.30612 12.8537H1.01907C0.88122 12.8535 0.744678 12.8804 0.617258 12.9329C0.489837 12.9855 0.374034 13.0626 0.276481 13.1599C0.178928 13.2572 0.10154 13.3728 0.0487361 13.5C-0.00406767 13.6272 -0.0312502 13.7635 -0.03125 13.9012V15.7858C-0.0312502 15.9235 -0.00406767 16.0598 0.0487361 16.187C0.10154 16.3143 0.178928 16.4298 0.276481 16.5271C0.374034 16.6244 0.489837 16.7015 0.617258 16.7541C0.744678 16.8066 0.88122 16.8336 1.01907 16.8333H3.2259L4.09702 16.8366ZM24.7964 7.79332C23.6648 7.75354 22.5299 7.78172 21.3966 7.78172C20.2617 7.78172 19.1284 7.78172 17.9951 7.78172C17.2036 7.78172 16.8668 7.32094 17.0825 6.58003C17.572 4.88773 19.3822 3.52692 21.1377 3.52526C22.3789 3.52526 23.6267 3.54018 24.8612 3.50869C25.2892 3.49708 25.3954 3.63134 25.3838 4.04406C25.3556 5.08994 25.3506 6.13748 25.3838 7.19331C25.3938 7.64249 25.2942 7.81156 24.7964 7.79332ZM35.0673 7.78007H29.8373C29.0458 7.78007 28.256 7.77012 27.4646 7.78007C27.1592 7.78007 27.0514 7.68061 27.0514 7.37398C27.0514 6.24356 27.0353 5.11204 27.0033 3.97942C27.0033 3.70593 27.0746 3.60814 27.36 3.60979C28.8534 3.60979 33.1376 3.60979 34.6343 3.6015C34.8765 3.6015 34.9661 3.6877 34.9993 3.92472C35.1304 5.11149 35.2664 6.29991 35.4141 7.48503C35.4523 7.8099 35.2498 7.78007 35.059 7.78007H35.0673ZM40.5894 6.87507C39.0512 7.82482 38.5253 7.77509 37.5214 7.77509C36.5374 7.77509 38.3394 7.77509 37.3555 7.77509C37.0916 7.77509 36.9241 7.74194 36.8909 7.41044C36.7747 6.30544 36.6387 5.20431 36.4827 4.10704C36.4329 3.75068 36.5076 3.6214 36.8958 3.62471C38.8189 3.63797 37.9578 3.62471 39.8825 3.62471C40.4467 3.62471 40.8632 3.87831 41.044 4.36893C41.1903 4.70295 41.3015 5.05123 41.3759 5.40818C41.434 5.98168 41.273 6.44743 40.5811 6.87507H40.5894Z" fill="#C3C3C3"/>
<path d="M1.9815 9.76746H1.47542C0.999813 9.76746 0.614258 10.1522 0.614258 10.6269C0.614258 11.1015 0.999813 11.4863 1.47542 11.4863H1.9815C2.4571 11.4863 2.84266 11.1015 2.84266 10.6269C2.84266 10.1522 2.4571 9.76746 1.9815 9.76746Z" fill="white"/>
<path d="M39.5585 0.291504H25.0233C24.642 0.291504 24.333 0.600213 24.333 0.981024C24.333 1.36184 24.642 1.67054 25.0233 1.67054H39.5585C39.9397 1.67054 40.2487 1.36184 40.2487 0.981024C40.2487 0.600213 39.9397 0.291504 39.5585 0.291504Z" fill="#C3C3C3"/>
</g>
<defs>
<clipPath id="clip0_1_3596">
<rect width="46" height="22" fill="white" transform="translate(0 0.291504)"/>
</clipPath>
</defs>
</svg>
