<svg width="74" height="56" viewBox="0 0 74 56" fill="none" xmlns="http://www.w3.org/2000/svg">
<path d="M57.4887 42.341C57.8612 41.9712 58.1568 41.5314 58.3585 41.0472C58.5602 40.5629 58.6641 40.0437 58.6641 39.5192C58.6641 38.9948 58.5602 38.4755 58.3585 37.9913C58.1568 37.507 57.8612 37.0673 57.4887 36.6974L55.5544 34.7641L64.7273 25.6094L63.4168 24.3016L54.244 33.4563L52.9363 32.1542L52.9648 32.1229L42.1056 21.2879L43.9742 19.4256C44.148 19.2522 44.2457 19.017 44.2457 18.7717C44.2457 18.5264 44.148 18.2913 43.9742 18.1178C43.8004 17.9444 43.5648 17.8469 43.319 17.8469C43.0733 17.8469 42.8377 17.9444 42.6639 18.1178L36.8154 23.9519C36.4497 24.3143 36.1593 24.7452 35.9607 25.2199L34.1889 29.4845C33.9923 29.9533 33.6289 30.333 33.1689 30.5508C32.7089 30.7686 32.1845 30.8091 31.6964 30.6646C31.2083 30.5201 30.7907 30.2007 30.5241 29.7677C30.2575 29.3348 30.1606 28.8188 30.2519 28.3188L31.3914 22.2176C31.4676 21.8091 31.6663 21.4334 31.9611 21.14L38.4534 14.6606C38.6445 14.4688 38.8718 14.3168 39.1222 14.2134C39.3725 14.1099 39.641 14.0571 39.912 14.0579H44.0796C44.5936 14.0604 45.103 13.9611 45.5783 13.7659C46.0536 13.5707 46.4853 13.2834 46.8487 12.9206L48.9197 10.8537C49.0866 10.679 49.1784 10.446 49.1754 10.2046C49.1723 9.96316 49.0748 9.73254 48.9036 9.56202C48.7323 9.3915 48.501 9.29463 48.2591 9.29215C48.0172 9.28966 47.784 9.38172 47.6093 9.54869L45.5382 11.6128C45.3474 11.8049 45.1201 11.9572 44.8697 12.0607C44.6193 12.1642 44.3507 12.2169 44.0796 12.2156H39.912C39.3981 12.2137 38.8889 12.3132 38.4137 12.5084C37.9385 12.7036 37.5067 12.9905 37.1429 13.3528L35.6531 14.8426L34.0664 13.259C33.7973 12.9912 33.4757 12.7819 33.1217 12.6439C32.7678 12.5059 32.3892 12.4424 32.0095 12.4572L27.9017 12.6164C27.7773 12.6202 27.6535 12.5989 27.5375 12.554C27.4215 12.5091 27.3157 12.4414 27.2265 12.3549L24.9276 10.0576C24.4106 9.54233 23.7098 9.25293 22.9791 9.25293C22.2484 9.25293 21.5475 9.54233 21.0305 10.0576L8.85784 22.2062C8.34222 22.7226 8.05273 23.4219 8.05273 24.1509C8.05273 24.8799 8.34222 25.5791 8.85784 26.0955L16.1164 33.3397L14.1708 35.2787C13.5074 35.9419 13.1347 36.8407 13.1347 37.7778C13.1347 38.715 13.5074 39.6138 14.1708 40.2769L14.9257 41.0303C15.5609 41.6649 16.4146 42.034 17.3129 42.0624H17.7003V42.449C17.7288 43.3456 18.0987 44.1976 18.7345 44.8316L19.4894 45.585C20.1246 46.2192 20.9785 46.5874 21.8766 46.6142L22.264 46.6284V47.0151C22.2914 47.9113 22.6602 48.7634 23.2953 49.3976L24.0531 50.151C24.6883 50.7853 25.5422 51.1534 26.4403 51.1802L26.8249 51.1944L26.8391 51.5783C26.8659 52.4746 27.2348 53.3268 27.8704 53.9607L28.6252 54.7142C29.2897 55.3764 30.1903 55.7483 31.1293 55.7483C32.0683 55.7483 32.9689 55.3764 33.6333 54.7142L35.5505 52.8036L36.5448 53.7987C36.9185 54.1699 37.3634 54.4619 37.8529 54.6573C38.3424 54.8527 38.8665 54.9475 39.3936 54.936C40.3232 54.9186 41.2209 54.5941 41.9461 54.0133C42.6714 53.4325 43.1832 52.6281 43.4017 51.7261L43.5042 51.3053L43.9173 51.4247C44.6059 51.6286 45.3367 51.644 46.0333 51.4695C46.7299 51.2949 47.3666 50.9368 47.877 50.4325C48.4618 49.8518 48.8501 49.1033 48.988 48.2916L49.0564 47.8851L49.4637 47.9533C50.0947 48.0638 50.7432 48.021 51.3541 47.8285C51.965 47.636 52.5205 47.2994 52.9734 46.8473C53.3583 46.4659 53.6605 46.0097 53.8615 45.507C54.0624 45.0042 54.1577 44.4657 54.1415 43.9247V43.4897H54.5743C55.113 43.5076 55.6497 43.4149 56.151 43.2174C56.6523 43.0198 57.1077 42.7215 57.4887 42.341ZM18.6291 39.7339C18.312 40.0489 17.8828 40.2256 17.4355 40.2256C16.9881 40.2256 16.559 40.0489 16.2419 39.7339L15.4868 38.9776C15.3296 38.8215 15.2048 38.6359 15.1196 38.4314C15.0345 38.227 14.9907 38.0078 14.9907 37.7864C14.9907 37.565 15.0345 37.3458 15.1196 37.1413C15.2048 36.9369 15.3296 36.7513 15.4868 36.5951L18.1191 33.9681C18.4359 33.6525 18.8652 33.4752 19.3127 33.4752C19.7603 33.4752 20.1896 33.6525 20.5064 33.9681L21.2642 34.7215C21.5765 35.0403 21.7513 35.4684 21.7513 35.9142C21.7513 36.36 21.5765 36.7881 21.2642 37.1068L18.6291 39.7339ZM23.2042 44.297C23.0477 44.454 22.8617 44.5786 22.6568 44.6636C22.452 44.7486 22.2324 44.7924 22.0106 44.7924C21.7887 44.7924 21.569 44.7486 21.3642 44.6636C21.1593 44.5786 20.9733 44.454 20.8168 44.297L20.0619 43.5437C19.7457 43.2275 19.5681 42.7991 19.5681 42.3524C19.5681 41.9057 19.7457 41.4772 20.0619 41.1611L22.6942 38.5341C22.8507 38.3771 23.0366 38.2526 23.2414 38.1676C23.4463 38.0826 23.666 38.0388 23.8878 38.0388C24.1097 38.0388 24.3294 38.0826 24.5342 38.1676C24.7391 38.2526 24.925 38.3771 25.0814 38.5341L25.8363 39.2875C26.1526 39.6036 26.3303 40.0321 26.3303 40.4788C26.3303 40.9255 26.1526 41.3539 25.8363 41.67L23.2042 44.297ZM27.7793 48.8631C27.4622 49.178 27.0329 49.3549 26.5855 49.3549C26.1381 49.3549 25.709 49.178 25.3919 48.8631L24.6342 48.1097C24.3219 47.7909 24.147 47.3628 24.147 46.917C24.147 46.4712 24.3219 46.043 24.6342 45.7243L27.2664 43.0973C27.5858 42.7856 28.0148 42.611 28.4615 42.611C28.9082 42.611 29.3371 42.7856 29.6565 43.0973L30.4114 43.8536C30.727 44.17 30.9041 44.5983 30.9041 45.0448C30.9041 45.4913 30.727 45.9196 30.4114 46.2361L27.7793 48.8631ZM34.9865 50.8021L32.3514 53.4291C32.0343 53.7441 31.6052 53.9208 31.1578 53.9208C30.7105 53.9208 30.2813 53.7441 29.9642 53.4291L29.2093 52.6728C28.8938 52.3563 28.7165 51.928 28.7165 51.4816C28.7165 51.0351 28.8938 50.6068 29.2093 50.2903L31.8415 47.6633C32.1582 47.3477 32.5875 47.1704 33.0351 47.1704C33.4827 47.1704 33.912 47.3477 34.2287 47.6633L34.9865 48.4167C35.2988 48.7354 35.4738 49.1636 35.4738 49.6094C35.4738 50.0552 35.2988 50.4833 34.9865 50.8021ZM53.1444 41.0332L40.5671 28.4809C40.4811 28.395 40.3791 28.3267 40.2667 28.2802C40.1542 28.2336 40.0337 28.2097 39.912 28.2097C39.7903 28.2097 39.6697 28.2336 39.5573 28.2802C39.4448 28.3267 39.3428 28.395 39.2568 28.4809C39.2364 28.5004 39.2173 28.5213 39.1998 28.5435L39.1485 28.5946C39.1253 28.613 39.1034 28.6329 39.0829 28.6543C38.9969 28.7399 38.9287 28.8416 38.8821 28.9535C38.8355 29.0655 38.8116 29.1856 38.8116 29.3068C38.8116 29.4281 38.8355 29.5481 38.8821 29.6601C38.9287 29.7721 38.9969 29.8737 39.0829 29.9593L51.663 42.5144C51.8622 42.7134 52.0201 42.9496 52.1279 43.2096C52.2356 43.4695 52.291 43.7481 52.2909 44.0294C52.2908 44.3107 52.2352 44.5892 52.1272 44.8491C52.0192 45.1089 51.861 45.3449 51.6616 45.5437C51.4622 45.7426 51.2255 45.9002 50.965 46.0078C50.7046 46.1153 50.4255 46.1706 50.1436 46.1705C49.8618 46.1703 49.5827 46.1148 49.3224 46.007C49.062 45.8992 48.8254 45.7414 48.6262 45.5424L38.8295 35.7621C38.6555 35.5891 38.4198 35.4921 38.1742 35.4921C37.9286 35.4921 37.6931 35.5891 37.5191 35.7621C37.4326 35.8477 37.3639 35.9496 37.3171 36.0618C37.2703 36.1741 37.2461 36.2944 37.2461 36.416C37.2461 36.5376 37.2703 36.658 37.3171 36.7702C37.3639 36.8824 37.4326 36.9843 37.5191 37.0699L46.5638 46.0996C46.763 46.2984 46.921 46.5344 47.0288 46.7942C47.1366 47.054 47.1921 47.3324 47.1921 47.6135C47.1921 47.8947 47.1366 48.1731 47.0288 48.4329C46.921 48.6926 46.763 48.9287 46.5638 49.1275C46.3646 49.3263 46.128 49.484 45.8677 49.5916C45.6075 49.6992 45.3285 49.7546 45.0468 49.7546C44.7651 49.7546 44.4861 49.6992 44.2258 49.5916C43.9655 49.484 43.7291 49.3263 43.5299 49.1275L33.7302 39.3472C33.5551 39.1806 33.3216 39.0891 33.0797 39.0921C32.8379 39.0951 32.6068 39.1924 32.436 39.3633C32.2651 39.5342 32.1681 39.7651 32.1656 40.0065C32.1631 40.2479 32.2553 40.4807 32.4226 40.6551L41.0914 49.3095C41.2947 49.5121 41.4534 49.7548 41.5574 50.022C41.6614 50.2893 41.7083 50.5753 41.6952 50.8618C41.6677 51.4629 41.4112 52.0308 40.978 52.4493C40.5449 52.8679 39.9679 53.1054 39.365 53.1135C39.0905 53.1151 38.8184 53.0628 38.5642 52.9593C38.3101 52.8559 38.0787 52.7035 37.8836 52.5108L36.8268 51.4532L36.9578 51.1887C37.2904 50.5257 37.4054 49.7751 37.2862 49.0432C37.1671 48.3113 36.8199 47.6355 36.294 47.1118L35.5391 46.3554C34.904 45.7212 34.05 45.3531 33.1519 45.3263L32.7787 45.3149L32.7645 44.9311C32.7377 44.0347 32.3688 43.1825 31.7333 42.5486L30.9755 41.7952C30.3414 41.1605 29.4886 40.7913 28.591 40.7631H28.2036V40.3764C28.1768 39.4801 27.8079 38.6278 27.1724 37.9939L26.4175 37.2405C25.7816 36.6069 24.9283 36.238 24.0303 36.2084H23.6429V35.8218C23.6144 34.9253 23.2445 34.0732 22.6087 33.4393L21.8538 32.6859C21.3327 32.1671 20.6629 31.823 19.937 31.7012C19.2112 31.5794 18.4654 31.6861 17.803 32.0063L17.538 32.1343L10.211 24.8218C10.1269 24.7383 10.0602 24.6391 10.0147 24.5298C9.9692 24.4205 9.94586 24.3033 9.94586 24.185C9.94586 24.0666 9.9692 23.9494 10.0147 23.8401C10.0602 23.7308 10.1269 23.6316 10.211 23.5481L22.3836 11.3996C22.5554 11.2355 22.7841 11.144 23.0218 11.144C23.2596 11.144 23.4882 11.2355 23.66 11.3996L25.9617 13.6968C26.2303 13.9651 26.5518 14.1748 26.9059 14.3128C27.2599 14.4508 27.6388 14.5141 28.0185 14.4986L32.1264 14.3393C32.2503 14.3353 32.3738 14.3564 32.4894 14.4014C32.605 14.4464 32.7101 14.5142 32.7986 14.6009L34.3855 16.1845L30.6821 19.8805C30.1225 20.4378 29.7459 21.1517 29.6024 21.9276L28.4629 28.026C28.2769 28.9881 28.4622 29.9848 28.9815 30.8163C29.5008 31.6478 30.3159 32.2526 31.2632 32.5096C31.9325 32.6941 32.6387 32.6985 33.3102 32.5222C33.9817 32.3459 34.5946 31.9953 35.0862 31.5059C35.4502 31.1432 35.7404 30.7136 35.9408 30.2408L37.7127 25.9761C37.8167 25.7264 37.9687 25.4994 38.16 25.308L40.8321 22.644L43.4985 25.3222C43.5361 25.3867 43.5821 25.446 43.6352 25.4985L56.2153 38.0536C56.6176 38.4555 56.8434 39.0005 56.8432 39.5686C56.8429 40.1367 56.6166 40.6814 56.2139 41.0829C55.8112 41.4845 55.2651 41.7099 54.6959 41.7097C54.1267 41.7094 53.5808 41.4835 53.1785 41.0816L53.1444 41.0332Z" fill="#EC101B"/>
<path d="M18.6395 2.46762L1.66643 19.4071C0.771978 20.2998 0.771978 21.7471 1.66643 22.6398L6.26724 27.2315C7.16169 28.1242 8.6119 28.1242 9.50635 27.2315L26.4794 10.292C27.3738 9.39935 27.3738 7.95211 26.4793 7.05943L21.8785 2.46772C20.984 1.57504 19.5339 1.57494 18.6395 2.46762Z" fill="#FCB6BD"/>
<path d="M7.88952 28.8961C7.4576 28.8975 7.02973 28.8132 6.63068 28.6483C6.23164 28.4833 5.86947 28.2409 5.56505 27.9351L0.961448 23.3406C0.345806 22.7255 0 21.8915 0 21.0221C0 20.1526 0.345806 19.3187 0.961448 18.7035L17.937 1.76154C18.5535 1.14625 19.3897 0.800537 20.2616 0.800537C21.1335 0.800537 21.9697 1.14625 22.5862 1.76154L27.1869 6.35312C27.8027 6.96878 28.1485 7.80321 28.1485 8.67313C28.1485 9.54306 27.8027 10.3774 27.1869 10.9931L10.2112 27.9351C9.90723 28.2407 9.54552 28.483 9.14697 28.6479C8.74842 28.8129 8.32099 28.8973 7.88952 28.8961ZM20.2616 2.79071C20.0917 2.7901 19.9233 2.82325 19.7663 2.88816C19.6093 2.95308 19.4669 3.04849 19.3472 3.16886L2.37149 20.1109C2.12899 20.353 1.99286 20.6812 1.99286 21.0235C1.99286 21.3658 2.12899 21.6941 2.37149 21.9362L6.97509 26.5277C7.09494 26.6475 7.23725 26.7425 7.39391 26.8073C7.55058 26.8721 7.71854 26.9055 7.88813 26.9055C8.05772 26.9055 8.22569 26.8721 8.38235 26.8073C8.53901 26.7425 8.68132 26.6475 8.80117 26.5277L25.7767 9.58576C26.0192 9.3437 26.1555 9.01543 26.1555 8.67313C26.1555 8.33084 26.0192 8.0025 25.7767 7.76044L21.1761 3.16886C21.0562 3.04875 20.9136 2.95347 20.7567 2.88858C20.5997 2.82368 20.4315 2.79042 20.2616 2.79071Z" fill="#EC101B"/>
<path d="M46.8195 10.8142L63.7926 27.7536C64.687 28.6463 66.1372 28.6463 67.0317 27.7536L71.6325 23.1619C72.5269 22.2693 72.5269 20.822 71.6324 19.9293L54.6594 2.98981C53.7649 2.09713 52.3149 2.09718 51.4204 2.98986L46.8196 7.58158C45.9252 8.47426 45.9251 9.9215 46.8195 10.8142Z" fill="#FCB6BD"/>
<path d="M65.4143 29.4191C64.9826 29.4203 64.5551 29.3362 64.1561 29.1718C63.7572 29.0073 63.3947 28.7658 63.0896 28.461L46.1141 11.5189C45.4983 10.9033 45.1523 10.0689 45.1523 9.19898C45.1523 8.32906 45.4983 7.4947 46.1141 6.87904L50.7147 2.28739C51.3316 1.67279 52.1677 1.32764 53.0394 1.32764C53.911 1.32764 54.747 1.67279 55.3638 2.28739L72.3395 19.2294C72.9552 19.8446 73.301 20.6785 73.301 21.548C73.301 22.4175 72.9552 23.2514 72.3395 23.8666L67.7359 28.461C67.4314 28.7657 67.0695 29.0072 66.671 29.1717C66.2725 29.3361 65.8454 29.4202 65.4143 29.4191ZM53.0394 3.31663C52.8695 3.31634 52.7013 3.3496 52.5443 3.4145C52.3874 3.47939 52.2448 3.57467 52.1249 3.69478L47.5241 8.28636C47.2816 8.52842 47.1455 8.85669 47.1455 9.19898C47.1455 9.54128 47.2816 9.86955 47.5241 10.1116L64.4998 27.0537C64.7427 27.295 65.0715 27.4305 65.4143 27.4305C65.757 27.4305 66.0858 27.295 66.3287 27.0537L70.9294 22.4592C71.0493 22.3396 71.1446 22.1975 71.2095 22.0412C71.2745 21.8848 71.3078 21.7173 71.3078 21.548C71.3078 21.3787 71.2745 21.2111 71.2095 21.0548C71.1446 20.8984 71.0493 20.7564 70.9294 20.6368L53.9538 3.69478C53.8341 3.57441 53.6915 3.479 53.5346 3.41408C53.3776 3.34916 53.2093 3.31602 53.0394 3.31663Z" fill="#EC101B"/>
</svg>
