<svg width="24" height="31" viewBox="0 0 24 31" fill="none" xmlns="http://www.w3.org/2000/svg">
<path d="M16.4006 12.5822C16.4006 13.7605 15.937 14.8904 15.1119 15.7236C14.2867 16.5567 13.1675 17.0248 12.0006 17.0248C10.8336 17.0248 9.71448 16.5567 8.88932 15.7236C8.06416 14.8904 7.60059 13.7605 7.60059 12.5822C7.60059 11.404 8.06416 10.274 8.88932 9.44085C9.71448 8.6077 10.8336 8.13965 12.0006 8.13965C13.1675 8.13965 14.2867 8.6077 15.1119 9.44085C15.937 10.274 16.4006 11.404 16.4006 12.5822V12.5822Z" stroke="black" stroke-width="2" stroke-linecap="round" stroke-linejoin="round"/>
<path d="M23 12.5822C23 23.1585 12 29.2419 12 29.2419C12 29.2419 1 23.1585 1 12.5822C1 9.63664 2.15893 6.81168 4.22183 4.72882C6.28473 2.64597 9.08262 1.47583 12 1.47583C14.9174 1.47583 17.7153 2.64597 19.7782 4.72882C21.8411 6.81168 23 9.63664 23 12.5822V12.5822Z" stroke="black" stroke-width="2" stroke-linecap="round" stroke-linejoin="round"/>
</svg>
