<svg width="225" height="51" viewBox="0 0 225 51" fill="none" xmlns="http://www.w3.org/2000/svg">
<g clip-path="url(#clip0_315_54)">
<path d="M89.7956 46.2674H84.6205L82.6296 32.0394L78.0516 46.2674H68.8955L79.2465 17.3235H88.5623L89.8357 30.093L95.6488 17.3235H105.004V46.2674H95.847V32.242L89.7956 46.2674Z" fill="#12100B"/>
<path d="M128.016 17.3235L131.998 46.2674H123.16L122.562 42.0903H114.72L112.689 46.2674H103.732L117.707 17.3235H128.016ZM117.825 35.6468H121.687L120.851 29.3234L117.825 35.6468Z" fill="#12100B"/>
<path d="M151.825 46.2674H146.649L144.659 32.0394L140.08 46.2674H130.924L141.275 17.3235H150.591L151.865 30.093L157.677 17.3235H167.032V46.2674H157.876V32.242L151.825 46.2674Z" fill="#E20C18"/>
<path d="M190.045 17.3235L194.026 46.2674H185.187L184.59 42.0903H176.747L174.718 46.2674H165.76L179.733 17.3235H190.045ZM179.853 35.6468H183.714L182.879 29.3234L179.853 35.6468Z" fill="#E20C18"/>
<path d="M210.23 23.8505L215.126 17.3235H225L213.614 31.9576L219.824 46.2674H209.99L207.403 40.0657L202.467 46.2674H192.752L203.86 31.8768L197.569 17.3235H207.323L210.23 23.8505Z" fill="#E20C18"/>
<path d="M56.5534 36.1436C56.5534 37.5479 57.5083 38.2704 58.5435 38.2704C59.7777 38.2704 60.9325 37.6678 61.2493 35.9028L64.4736 17.3208H73.6323L70.2483 36.668C69.0141 43.6509 64.313 46.2594 57.5048 46.2594C51.4535 46.2594 47.2734 43.0083 47.2734 37.5905C47.2734 36.9888 47.3136 36.3463 47.5527 34.8612L50.6182 17.3235H59.7742L56.7123 34.8994C56.5534 35.7419 56.5534 35.9828 56.5534 36.1436Z" fill="#12100B"/>
<path d="M31.8555 26.3977L26.1559 29.6719L24.583 35.9758H30.0793L31.9 29.7527L37.7873 26.3977H31.8555Z" fill="#E20C18"/>
<path d="M37.3202 26.3977L31.6362 29.6514L30.0791 35.9758L35.8878 36.0006L33.306 50.601H42.3486L46.752 26.3977H37.3202Z" fill="#12100B"/>
<path d="M4.64266 12.5617C4.98191 11.9271 5.34326 11.305 5.72673 10.6953L4.89055 10.3025C4.49253 10.9282 4.1143 11.5725 3.75586 12.2355L4.61822 12.5972C4.62521 12.5839 4.63132 12.5706 4.6383 12.5581" fill="#12100B"/>
<path d="M8.47959 7.02657L7.62683 6.69507C7.16772 7.20521 6.72635 7.73668 6.30273 8.28949L7.15026 8.64498C7.57271 8.08952 8.01611 7.54827 8.47959 7.02746" fill="#12100B"/>
<path d="M6.883 8.99941L7.04012 8.79056L6.19084 8.43506C5.77072 8.98964 5.36921 9.56347 4.98633 10.1566L5.82251 10.5485C6.16059 10.0218 6.51409 9.5057 6.883 9.0003" fill="#12100B"/>
<path d="M4.53962 12.759L3.67551 12.3955C3.32637 13.0561 2.99964 13.7331 2.69531 14.4263L3.56291 14.7942C3.86375 14.104 4.18932 13.4256 4.53962 12.759Z" fill="#12100B"/>
<path d="M1.69719 20.4509C1.76091 20.1736 1.82986 19.8964 1.90056 19.62L1.06525 19.092C1.03034 19.2227 0.995427 19.3542 0.96226 19.4866C0.812132 20.0975 0.678878 20.7099 0.5625 21.3237L1.4109 21.8569C1.49818 21.3865 1.59507 20.9181 1.70155 20.4518" fill="#12100B"/>
<path d="M11.6347 4.05974L10.8273 3.7229C10.3164 4.11514 9.81573 4.53522 9.3252 4.98315L10.1666 5.31198C10.6397 4.87472 11.1291 4.4573 11.6347 4.05974Z" fill="#12100B"/>
<path d="M2.60157 17.2764L1.75579 16.832C1.52304 17.5164 1.30919 18.2114 1.11426 18.917L1.94869 19.445C2.14072 18.7156 2.35834 17.9942 2.60157 17.2809" fill="#12100B"/>
<path d="M3.49215 14.9567L2.62542 14.5896C2.33448 15.2656 2.06448 15.9556 1.81543 16.6595L2.66034 17.1039C2.91229 16.3769 3.18957 15.6602 3.49215 14.954" fill="#12100B"/>
<path d="M41.0912 7.22907C40.6572 6.6632 40.189 6.12535 39.6895 5.61865C39.706 5.70753 39.7252 5.7964 39.7505 5.88528C40.2233 6.30475 40.671 6.75259 41.0912 7.2264" fill="#12100B"/>
<path d="M10.2195 42.6778C10.0233 42.676 9.82885 42.6405 9.64427 42.5729L9.25149 42.4343C8.89363 42.309 8.75135 42.2565 8.62305 42.1988C8.77608 42.4737 8.93378 42.745 9.09612 43.0129C9.15548 43.1115 9.21745 43.2102 9.27855 43.3079C9.5404 43.4679 10.3172 43.9372 10.8331 44.146C11.5785 44.4473 12.2017 44.146 13.1024 43.0502C12.762 42.53 12.442 41.9852 12.1423 41.4158C11.499 42.1908 10.9134 42.6778 10.2221 42.6778" fill="#12100B"/>
<path d="M11.4547 47.2104C10.1087 46.3007 8.87753 45.2261 7.78875 44.0109C6.03361 42.0202 4.65759 39.7143 3.73093 37.2111C2.78914 34.7172 2.29337 32.0608 2.15983 29.3972C2.03868 26.7283 2.25132 24.0545 2.79263 21.4402C3.33055 18.8255 4.18275 16.2883 5.32997 13.8858C5.90701 12.6879 6.55951 11.5292 7.28338 10.417C7.64415 9.86069 8.02238 9.31707 8.41807 8.78619C8.81376 8.25531 9.23214 7.74251 9.67321 7.24777C11.4189 5.26141 13.4561 3.5248 15.7551 2.24411C16.9039 1.60546 18.1165 1.09388 19.3722 0.718126C19.9995 0.53289 20.6373 0.386278 21.2819 0.279085C21.9262 0.173771 22.5763 0.109949 23.2284 0.0880028C22.5784 0.127984 21.9315 0.209614 21.2915 0.332409C20.652 0.452766 20.0201 0.611838 19.3992 0.808779C18.1596 1.20755 16.9655 1.74028 15.8372 2.39786C13.5748 3.69721 11.5769 5.44183 9.87396 7.42996C9.44802 7.92766 9.04069 8.44047 8.65199 8.96839C8.26329 9.49631 7.88971 10.0358 7.53127 10.5868C6.82335 11.6922 6.18659 12.8432 5.62499 14.0325C4.49988 16.4145 3.66563 18.928 3.14089 21.5166C2.59443 24.1018 2.37328 26.7472 2.48278 29.3892C2.59279 32.0295 3.09908 34.637 3.98406 37.1213C4.87324 39.6096 6.20765 41.9085 7.91968 43.9016C8.77663 44.8971 9.72895 45.803 10.7625 46.606C11.1466 46.9055 11.5428 47.1899 11.9478 47.4592C12.1113 47.5404 12.2789 47.6216 12.4506 47.7028C12.413 47.6761 12.3746 47.6503 12.3371 47.6228C11.7981 47.2311 11.2825 46.807 10.7931 46.3527C9.81564 45.439 8.93187 44.4266 8.15535 43.331C6.60344 41.1349 5.46264 38.6526 4.68844 36.0672C3.92128 33.4716 3.5161 30.779 3.48479 28.0685C3.45283 25.3561 3.77958 22.6516 4.45626 20.028C5.13562 17.407 6.13249 14.8822 7.42391 12.5118C8.72269 10.1513 10.3156 7.9481 12.2167 6.05329C13.1639 5.10217 14.1895 4.23543 15.2821 3.46258C16.3747 2.69083 17.5398 2.03141 18.7603 1.49401C19.9814 0.960684 21.2603 0.576728 22.5703 0.350184C23.2215 0.238267 23.8793 0.171163 24.5394 0.149327C24.9496 0.136884 25.3595 0.142513 25.7692 0.166213C25.4201 0.126219 25.077 0.0951134 24.7288 0.072006C24.6179 0.0657847 24.5062 0.0595632 24.3927 0.0551195C24.48 0.0648957 24.5673 0.0737829 24.6546 0.0853367C24.5368 0.0720054 24.4189 0.0622287 24.3002 0.0515637C23.6019 0.0240125 22.8618 0.02579 22.016 0.0515637V0.0329008H21.831V0.0249023C21.3945 0.0560086 20.9634 0.103112 20.533 0.171545C19.3579 0.35738 18.2054 0.669595 17.0949 1.10295V1.11006H17.0862C16.9116 1.17702 16.7409 1.24575 16.5739 1.31626C15.3039 1.85535 14.0915 2.52572 12.9559 3.31683C11.8215 4.10814 10.7583 5.00039 9.77882 5.98308C7.81833 7.95252 6.15894 10.2102 4.85602 12.6807C3.55612 15.1515 2.57872 17.7846 1.9486 20.5132C1.30575 23.2389 1.0335 26.0415 1.13948 28.8426C1.19595 30.2414 1.36144 31.6334 1.63438 33.0055C1.9057 34.3776 2.29503 35.7227 2.79787 37.0253C3.30197 38.3296 3.93144 39.5799 4.67709 40.7581C5.42453 41.935 6.28946 43.0301 7.25807 44.026C8.14715 44.9376 9.11691 45.7638 10.155 46.4941C10.5268 46.718 10.9624 46.9615 11.4521 47.2148" fill="#12100B"/>
<path d="M9.338 40.7812C9.12549 40.7789 8.91486 40.7404 8.71479 40.6674C8.35352 40.5489 7.99941 40.4088 7.6543 40.2479C7.88298 40.7646 8.12854 41.2723 8.39097 41.7712L8.47389 41.8183C8.76367 41.9819 8.76367 41.9819 9.33625 42.1827L9.7299 42.3214C10.5844 42.6235 11.2216 42.1294 12.0089 41.166C11.7523 40.6594 11.5119 40.1339 11.2879 39.5894C10.5966 40.4017 9.97866 40.7856 9.338 40.7856" fill="#12100B"/>
<path d="M11.3553 44.5219C11.1426 44.5196 10.9323 44.4762 10.7356 44.3939C10.3268 44.2159 9.93421 44.0015 9.5625 43.7531C9.78071 44.0855 10.0074 44.4114 10.2424 44.7307C10.3393 44.7876 10.5383 44.9085 10.5794 44.9369C10.7644 45.0649 11.1074 45.3031 12.016 45.6239C12.8618 45.9234 13.4903 45.6648 14.3038 44.6774C13.9366 44.2354 13.5874 43.7697 13.2563 43.2803C12.6349 44.0286 12.044 44.5245 11.3579 44.5245" fill="#12100B"/>
<path d="M11.9301 45.8763C11.504 45.7356 11.0924 45.5528 10.7012 45.3306C10.9031 45.5854 11.1105 45.8351 11.3235 46.0799C11.9685 46.3829 13.1704 46.933 13.2856 46.9615H13.2996C14.134 47.2566 14.7311 47.0059 15.5472 46.0096C15.1765 45.6541 14.8198 45.2773 14.4771 44.8792C13.8303 45.6533 13.2717 46.0088 12.6424 46.0088C12.3993 46.0047 12.1585 45.9594 11.9301 45.8746" fill="#12100B"/>
<path d="M38.2542 4.72284C38.2263 4.62864 38.1992 4.53354 38.1739 4.44022C38.153 4.3629 38.132 4.28736 38.1102 4.21448C37.7785 3.95674 37.4384 3.715 37.0898 3.48926C37.1851 3.73896 37.302 3.97957 37.439 4.20826C37.7165 4.37001 37.9889 4.54065 38.256 4.72284" fill="#12100B"/>
<path d="M0.524683 21.5105C0.390266 22.2416 0.281453 22.9737 0.198242 23.7066L1.06322 24.2079C1.14236 23.4826 1.24623 22.7613 1.37483 22.0437L0.524683 21.5105Z" fill="#12100B"/>
<path d="M10.5364 37.4705C9.8381 38.2783 9.16165 38.6792 8.48957 38.6792C8.28434 38.6785 8.08072 38.6424 7.88731 38.5725C7.40114 38.401 7.07033 38.2757 6.84863 38.1877C7.04589 38.763 7.26323 39.3306 7.50064 39.8905C7.67521 40.0025 7.98769 40.1278 8.80204 40.4149C9.59458 40.6957 10.3094 40.3625 11.177 39.3066C11.1622 39.2693 11.1465 39.2329 11.1316 39.1946C10.9117 38.6318 10.7133 38.057 10.5364 37.4705Z" fill="#12100B"/>
<path d="M36.0873 3.51408C36.4016 3.6545 36.7102 3.80618 37.0134 3.96912C36.9261 3.79137 36.8677 3.63317 36.8127 3.49186C36.7786 3.40298 36.7472 3.32567 36.7149 3.2519C36.3553 3.03327 35.9884 2.83211 35.6143 2.64844C35.703 2.97079 35.8651 3.26733 36.0873 3.51408Z" fill="#12100B"/>
<path d="M39.4196 5.60443C39.4022 5.50578 39.3873 5.41246 39.3751 5.32981C39.3756 5.32152 39.3756 5.31321 39.3751 5.30492C39.0795 5.02052 38.7758 4.75034 38.4639 4.49438C38.508 4.65909 38.5614 4.8211 38.6236 4.97964C38.8959 5.17694 39.1624 5.38432 39.4231 5.60177" fill="#12100B"/>
<path d="M9.62548 5.82388C9.7564 5.69501 9.88733 5.56881 10.0217 5.4435L9.17858 5.11377C8.68863 5.5694 8.21439 6.04874 7.75586 6.55177L8.60775 6.88238C8.93681 6.518 9.27634 6.1625 9.6281 5.81588" fill="#12100B"/>
<path d="M16.5172 1.18286C16.6403 1.13309 16.7651 1.08599 16.8899 1.038L16.2353 0.812256C15.7028 0.990006 15.1739 1.1956 14.6484 1.42905L15.434 1.67079C15.791 1.49748 16.1523 1.33395 16.5198 1.18286" fill="#12100B"/>
<path d="M11.7971 3.93266C12.1416 3.66663 12.4936 3.41067 12.8532 3.16478C13.0156 3.05458 13.1805 2.94615 13.3464 2.84039L12.5608 2.52222L12.4639 2.58087C11.9641 2.8949 11.4712 3.2341 10.9854 3.59849L11.7971 3.93266Z" fill="#12100B"/>
<path d="M7.14355 44.49C7.69018 44.9308 8.26651 45.332 8.86828 45.6907C9.06729 45.8364 9.27066 45.9662 9.47927 46.0897C8.91228 45.67 8.36663 45.2212 7.84444 44.7451L7.14355 44.49Z" fill="#12100B"/>
<path d="M1.04312 24.4007L0.177265 23.8994C0.103946 24.5849 0.0533214 25.2684 0.0253906 25.9498L0.898228 26.6048C0.920922 25.8689 0.970383 25.1342 1.04661 24.4007" fill="#12100B"/>
<path d="M18.4607 48.1986C17.9971 47.9351 17.5481 47.6458 17.1157 47.332C16.4384 48.1319 15.6668 48.6109 14.8516 48.738C15.4364 48.9682 16.0491 49.1931 16.6845 49.4081C17.2903 49.4277 17.8375 48.9567 18.4616 48.1986" fill="#12100B"/>
<path d="M20.5195 0.0941718C20.7901 0.0568444 21.0624 0.0257381 21.3347 0.00529688C20.4284 -0.00820898 19.5228 0.0619935 18.6289 0.215042L19.0566 0.374127C19.5401 0.259479 20.0298 0.16616 20.5221 0.0977262" fill="#12100B"/>
<path d="M17.1471 0.938604V0.944824C17.6865 0.749299 18.2341 0.580141 18.7898 0.437349L18.3054 0.270264C17.7022 0.386228 17.106 0.536664 16.5195 0.720859L17.1471 0.938604Z" fill="#12100B"/>
<path d="M6.70996 43.6233L5.74023 43.2153C6.07017 43.5513 6.41057 43.8721 6.76233 44.1743L7.54788 44.4711C7.42219 44.3512 7.29738 44.2303 7.17431 44.1067C7.0172 43.9485 6.86358 43.7868 6.71083 43.6233" fill="#12100B"/>
<path d="M15.1995 1.78549L14.4035 1.53931C13.8466 1.79764 13.2964 2.08707 12.7529 2.40761L13.5315 2.72401C14.0727 2.3851 14.6287 2.07226 15.1995 1.78549Z" fill="#12100B"/>
<path d="M0.634766 33.2197C0.800023 33.9728 0.996411 34.7105 1.22393 35.4327L1.23615 35.4096L2.18929 35.9162C1.97632 35.2822 1.78982 34.6402 1.6298 33.9903L0.634766 33.2197Z" fill="#12100B"/>
<path d="M4.31641 41.5649C4.66566 42.0281 5.03767 42.4731 5.43102 42.8981L6.42169 43.3149C6.11183 42.9683 5.8107 42.6083 5.53052 42.2395L4.31641 41.5649Z" fill="#12100B"/>
<path d="M0.03125 28.5662C0.0661635 29.3275 0.130753 30.0806 0.225019 30.8254L0.233748 30.8085L1.12841 31.3346C1.03298 30.6325 0.965477 29.9274 0.925908 29.2194L0.03125 28.5662Z" fill="#12100B"/>
<path d="M0.0213027 28.3414L0.911596 28.992C0.911596 28.9458 0.906359 28.9031 0.904614 28.8516C0.874937 28.1755 0.868827 27.4989 0.886284 26.8217L0.0134468 26.1658C-0.0109927 26.8957 -0.0109927 27.621 0.0134468 28.3414" fill="#12100B"/>
<path d="M1.1595 31.5586L0.25 31.0254C0.338448 31.6854 0.449589 32.3372 0.583424 32.9806L0.592152 32.9682L1.56449 33.721C1.513 33.4997 1.46324 33.2766 1.41786 33.0535C1.31777 32.5594 1.23049 32.0626 1.156 31.5631" fill="#12100B"/>
<path d="M3.0791 39.7031C3.38809 40.231 3.71685 40.7367 4.06541 41.2202L5.27603 41.8886C4.9077 41.3897 4.56205 40.8748 4.2391 40.3439L3.0791 39.7031Z" fill="#12100B"/>
<path d="M2.27209 36.1605L1.29102 35.6396C1.33029 35.7587 1.3687 35.8769 1.40885 35.9951C1.57643 36.4792 1.75711 36.9532 1.95088 37.4171L1.95612 37.4056L2.97821 37.946C2.85339 37.6669 2.73294 37.3843 2.62035 37.0999C2.49699 36.7906 2.38061 36.4786 2.27121 36.164" fill="#12100B"/>
<path d="M2.05371 37.6545C2.32487 38.2808 2.62047 38.8837 2.94051 39.4631C2.94051 39.4703 2.94924 39.4774 2.95273 39.4845L2.97455 39.4436L4.05425 40.0426C3.70512 39.4471 3.38508 38.8351 3.09413 38.2065L2.05371 37.6545Z" fill="#12100B"/>
<path d="M23.0137 4.29629C21.8258 3.90879 21.5936 3.81814 20.719 3.21823C20.3166 2.93665 19.9 2.67677 19.4708 2.43969C19.4059 2.40714 19.3437 2.36908 19.2849 2.32593C18.749 2.62692 18.2279 2.95279 17.7217 3.30355L17.7601 3.32577C17.9347 3.42353 18.289 3.62617 19.0824 4.06343C19.3495 4.21097 19.5529 4.34339 19.7318 4.45982C20.2389 4.78865 20.5514 4.99307 21.6337 5.11216C22.0894 4.81591 22.5493 4.54395 23.0137 4.29629Z" fill="#12100B"/>
<path d="M18.6939 48.3301C18.1938 48.9416 17.7199 49.3966 17.2197 49.5851L17.4921 49.6739L17.2215 49.5851L19.0265 50.1619C19.3494 49.7713 19.6336 49.3491 19.8749 48.9016C19.4716 48.7292 19.0771 48.5381 18.6913 48.3284" fill="#12100B"/>
<path d="M16.904 47.1729C16.4996 46.8673 16.1107 46.541 15.7387 46.1953C15.085 46.989 14.536 47.3507 13.9145 47.3507C13.6762 47.347 13.4401 47.3026 13.2162 47.2192C13.0373 47.1685 12.14 46.7303 11.7324 46.533C12.0397 46.8654 12.3577 47.1869 12.6864 47.4973C12.8025 47.6075 12.9177 47.7195 13.0399 47.8199C13.1626 47.9199 13.2934 48.0091 13.431 48.0866C13.6396 48.2066 13.8552 48.3123 14.0708 48.4181L14.268 48.4998C15.2142 48.5478 16.1228 48.0901 16.9066 47.1667" fill="#12100B"/>
<path d="M30.0205 49.6766C30.4278 49.4988 30.8352 49.3071 31.2425 49.1015C31.2564 48.9727 31.2669 48.8491 31.2722 48.738C30.88 48.9051 30.4866 49.0553 30.0921 49.1886C30.0729 49.3602 30.0502 49.5184 30.0223 49.6766" fill="#12100B"/>
<path d="M13.0083 47.8583C12.88 47.7596 12.7613 47.6521 12.6409 47.5463C12.1614 47.1197 11.704 46.6688 11.2688 46.1937C10.3955 45.2454 9.60679 44.2199 8.91211 43.1292C7.9073 41.5306 7.08722 39.819 6.46816 38.0287L6.4315 38.0109L6.44983 37.9754C6.22522 37.3236 6.02593 36.6669 5.85194 36.005C5.68726 35.3758 5.54441 34.7412 5.42338 34.1013C5.30234 33.4614 5.20517 32.818 5.13185 32.171C4.98165 30.8769 4.91459 29.5741 4.9311 28.2711C4.97446 25.6636 5.32405 23.0708 5.97239 20.5479C6.61872 18.0256 7.55076 15.5883 8.74976 13.285C9.35098 12.1348 10.0214 11.0235 10.7573 9.95755C11.4904 8.89057 12.2947 7.87619 13.1646 6.92159C14.9015 5.01344 16.9178 3.3497 19.1802 2.13656C19.8437 1.7826 20.5285 1.47151 21.2305 1.20515L21.2383 1.19004L21.2514 1.19715C21.7393 1.01229 22.2351 0.849651 22.7352 0.713672C22.84 0.686121 22.9456 0.660347 23.0512 0.634574C23.5531 0.511127 24.0609 0.414124 24.5726 0.343952L24.5979 0.33773H24.6031H24.6083C25.1166 0.272482 25.628 0.235101 26.1402 0.225748L26.1184 0.215972L26.1227 0.207084L26.059 0.199086C24.8919 0.150563 23.7232 0.240035 22.5764 0.46571C21.2854 0.722816 20.0291 1.13512 18.8336 1.69396C17.6407 2.24847 16.5045 2.92187 15.4418 3.70431C14.3757 4.4836 13.3757 5.35259 12.4523 6.30213C11.9903 6.77613 11.5466 7.26731 11.1213 7.77568C10.6959 8.28404 10.2886 8.80663 9.89929 9.34343C9.12042 10.4196 8.41357 11.5479 7.78353 12.7207C6.51898 15.0648 5.5425 17.5584 4.87611 20.1453C3.52439 25.335 3.5681 30.7993 5.00267 35.9659C5.72887 38.5326 6.82428 41.0016 8.31945 43.2012C9.06289 44.3072 9.91511 45.333 10.8629 46.263C11.3394 46.7261 11.8419 47.1609 12.3677 47.565C12.482 47.6539 12.5981 47.7427 12.7168 47.8245C13.0598 47.9836 13.4203 48.1445 13.7956 48.3044C13.6656 48.244 13.5338 48.1827 13.4107 48.1151C13.2687 48.0403 13.1332 47.9532 13.0057 47.8547" fill="#12100B"/>
<path d="M28.1582 50.3486C28.2455 50.3219 28.3328 50.297 28.4201 50.2695C28.8582 50.1308 29.2946 49.9735 29.7293 49.7975C29.7651 49.626 29.7913 49.458 29.8166 49.2803C29.3051 49.4438 28.7922 49.5801 28.2778 49.6891C28.2526 49.9113 28.2132 50.1316 28.1599 50.3486" fill="#12100B"/>
<path d="M31.0154 2.33118C30.7858 2.12561 30.5741 1.90021 30.3826 1.65751C30.2648 1.51619 30.1426 1.37044 30.0117 1.23179C29.8873 1.09947 29.7534 0.976775 29.611 0.864741C29.3492 0.805195 29.0943 0.748314 28.8499 0.695878L28.7976 0.669217L28.7906 0.683436C28.1892 0.553678 27.6419 0.44614 27.127 0.358154L27.3329 0.437253C27.6821 0.569677 27.9186 0.656774 28.1403 0.8443C28.363 1.03785 28.5676 1.25208 28.7513 1.4842C29.0507 1.8397 29.2925 2.1321 29.9296 2.33207C30.2916 2.31785 30.6526 2.31785 31.0128 2.33207" fill="#12100B"/>
<path d="M32.4402 2.46005C32.2008 2.23815 31.995 1.98149 31.8292 1.69839C31.751 1.56845 31.6635 1.44457 31.5674 1.32778C31.0594 1.20425 30.588 1.09138 30.1455 0.988281C30.1647 1.00783 30.1848 1.0265 30.204 1.04783C30.341 1.19269 30.4658 1.34111 30.5854 1.48509C30.8665 1.82193 31.1336 2.13921 31.5167 2.35962C31.8263 2.38273 32.1353 2.41621 32.4437 2.46005" fill="#12100B"/>
<path d="M32.9901 2.54897C33.3323 2.61236 33.6733 2.68939 34.0131 2.78004C33.8773 2.59787 33.7537 2.40666 33.643 2.20769C33.5601 2.05196 33.4615 1.90542 33.3489 1.77042C33.0748 1.69132 32.7981 1.61933 32.5188 1.55712L31.9619 1.42114C31.9907 1.4638 32.0186 1.51002 32.0492 1.55001C32.2822 1.95302 32.6044 2.29507 32.9901 2.54897Z" fill="#12100B"/>
<path d="M35.6122 3.31406C35.4988 3.1207 35.4108 2.91304 35.3504 2.69638C35.3268 2.61995 35.3059 2.5524 35.2814 2.49196C34.7869 2.26448 34.2798 2.06654 33.7627 1.89917C33.7976 1.95842 33.8325 2.01767 33.8674 2.07692C34.0325 2.37873 34.2327 2.65922 34.4636 2.91234C34.8529 3.03084 35.2355 3.16534 35.6114 3.31584" fill="#12100B"/>
<path d="M21.5498 49.6525C21.3752 49.9707 21.191 50.2996 20.9248 50.7013C21.4574 50.8139 21.996 50.8946 22.5378 50.943C22.7621 50.5217 22.9149 50.2053 23.0755 49.8267C22.5876 49.7479 22.1043 49.6425 21.6274 49.5112L21.5498 49.6525Z" fill="#12100B"/>
<path d="M31.5369 48.6226C31.5369 48.7319 31.5282 48.8457 31.5186 48.9559C32.1068 48.6413 32.6861 48.2923 33.2564 47.909L33.2878 47.7312C32.72 48.0606 32.1355 48.3593 31.5369 48.6262" fill="#12100B"/>
<path d="M19.2881 50.2631L19.4199 50.3094C19.6128 50.368 19.8118 50.4231 20.0483 50.4871C20.2473 50.5431 20.4481 50.5929 20.6497 50.64C20.9439 50.2063 21.1359 49.8588 21.3218 49.5219L21.3689 49.433C20.9447 49.3074 20.529 49.1623 20.1216 48.9976C19.8852 49.4443 19.6063 49.8664 19.289 50.2578" fill="#12100B"/>
<path d="M26.4355 50.761C26.9121 50.6721 27.3887 50.5673 27.8661 50.4349C27.9272 50.2076 27.9741 49.9767 28.0067 49.7434C27.5487 49.8317 27.0908 49.8978 26.6328 49.9416C26.594 50.2207 26.5279 50.4952 26.4355 50.761Z" fill="#12100B"/>
<path d="M25.0612 50.0081C24.939 50.3707 24.8596 50.6 24.7217 50.9768C25.1921 50.9466 25.6652 50.888 26.1392 50.816C26.2451 50.5432 26.3203 50.259 26.3635 49.969C26.0013 49.9965 25.6399 50.0117 25.2794 50.0117C25.2061 50.0117 25.1337 50.0117 25.0612 50.0117" fill="#12100B"/>
<path d="M29.3343 2.37114C28.9852 2.17295 28.7775 1.92677 28.554 1.66014C28.3797 1.43965 28.1854 1.23641 27.9736 1.05313C27.7859 0.89493 27.5695 0.814054 27.2422 0.690518C26.9698 0.588312 26.6312 0.460332 26.1738 0.241699C25.6977 0.266044 25.2232 0.314989 24.752 0.388344C24.9876 0.465665 25.1779 0.523433 25.3359 0.572314C25.8168 0.718958 26.0167 0.779393 26.3021 1.01669C26.5046 1.18733 26.6704 1.34908 26.8319 1.5055C27.2587 1.92055 27.6026 2.25383 28.3594 2.48313C28.6841 2.43395 29.0091 2.39632 29.3343 2.37025" fill="#12100B"/>
<path d="M22.8203 50.9662C23.3572 51.0034 23.8957 51.0099 24.4333 50.9857C24.5843 50.5769 24.6655 50.345 24.7825 49.9983C24.3012 49.9805 23.8211 49.9378 23.344 49.8704C23.1834 50.2516 23.0342 50.5663 22.8247 50.9662" fill="#12100B"/>
<path d="M15.378 11.0926C15.0313 11.1719 14.6773 11.2137 14.3219 11.217C13.7515 11.2227 13.1894 11.0785 12.6897 10.7984C12.6356 10.7709 12.5867 10.746 12.5422 10.7247C11.8326 10.3931 11.576 10.1159 11.3307 9.80835C10.8704 10.4648 10.4366 11.1391 10.0293 11.8311C10.3217 12.0978 10.5277 12.208 11.4581 12.5981C11.6022 12.6346 11.7313 12.6755 11.857 12.7155C12.4226 12.8932 12.914 13.0487 14.342 12.599C14.6725 12.0818 15.0179 11.5796 15.378 11.0926Z" fill="#12100B"/>
<path d="M13.0226 14.8769C12.3365 15.0875 11.846 15.1613 11.4567 15.1613C11.0887 15.1556 10.7241 15.0893 10.377 14.9648C10.2583 14.9284 10.1343 14.8902 10.0052 14.8582C9.5494 14.724 9.13088 14.483 8.78318 14.1543C8.46809 14.8031 8.1722 15.4616 7.89551 16.13L7.92955 16.1886C8.07531 16.4473 8.1914 16.6508 8.99354 16.8481C9.09653 16.8739 9.19516 16.9014 9.29379 16.929C9.93882 17.1112 10.5489 17.2845 12.168 16.6517C12.4351 16.0467 12.7197 15.4542 13.0217 14.8742" fill="#12100B"/>
<path d="M10.4849 21.4588C9.40782 21.984 9.00108 22.1351 8.61179 22.1351C8.42053 22.1283 8.23016 22.1051 8.0427 22.0658C7.96153 22.0525 7.8725 22.0365 7.773 22.0214C6.98744 21.8969 6.48294 21.5308 6.2499 21.2739C6.08056 21.9885 5.93509 22.7081 5.81348 23.4327C6.23131 23.8537 6.76942 24.1291 7.35054 24.2192C8.27575 24.365 8.52975 24.3294 10.024 23.454C10.1573 22.7881 10.3121 22.123 10.4884 21.4588" fill="#12100B"/>
<path d="M27.8309 2.56936C27.3072 2.33651 26.9965 2.03611 26.65 1.6975C26.4928 1.54464 26.3305 1.38644 26.1341 1.22202C25.8897 1.01583 25.7309 0.967837 25.2613 0.823859C25.0867 0.770534 24.625 0.571455 24.3116 0.459473C23.9392 0.52761 23.5697 0.609967 23.2031 0.706545C23.5811 0.899404 23.6395 0.939397 23.7975 1.02738C23.925 1.10115 24.0594 1.17669 24.3431 1.326C24.583 1.4436 24.7913 1.61901 24.9497 1.83703C25.1504 2.09033 25.3765 2.37739 26.6953 2.8271C27.0753 2.72578 27.4556 2.63987 27.8361 2.56936" fill="#12100B"/>
<path d="M12.0211 16.9911C11.2521 17.2702 10.7057 17.3617 10.2754 17.3617C9.91965 17.3545 9.56681 17.2947 9.228 17.184C9.13286 17.1564 9.03597 17.1297 8.93647 17.1049C8.15092 16.9111 7.92573 16.6809 7.77472 16.4365C7.70228 16.6196 7.62983 16.8036 7.56001 16.9875C7.36275 17.5119 7.1777 18.0407 7.00488 18.574L7.01187 18.582C7.22047 18.8353 7.43694 19.0966 8.30192 19.2885L8.34643 19.2983C9.25244 19.4983 9.43137 19.5374 11.2827 18.8833C11.5113 18.2398 11.7584 17.6082 12.0237 16.9884" fill="#12100B"/>
<path d="M10.5553 21.1941C10.7398 20.5216 10.9434 19.8592 11.1663 19.2068C10.1189 19.5703 9.62138 19.6983 9.19107 19.6983C8.88533 19.6868 8.58177 19.6409 8.28594 19.5614L8.2423 19.5517C7.42271 19.3739 7.11896 19.1153 6.90599 18.8735C6.72036 19.466 6.55132 20.0615 6.39887 20.6599C6.37181 20.7648 6.34562 20.8697 6.32031 20.9754H6.33515C6.33745 20.9649 6.33745 20.954 6.33515 20.9434C6.35959 21.0456 6.84314 21.602 7.8085 21.754C7.90975 21.77 7.99965 21.786 8.0817 21.8002C8.7852 21.9219 8.89344 21.9406 10.5256 21.1372L10.5553 21.1941Z" fill="#12100B"/>
<path d="M7.51702 34.2266C7.31662 34.2233 7.11676 34.2046 6.91913 34.1706C6.49669 34.1104 6.09286 33.9546 5.7373 33.7147C5.75476 33.8214 5.77222 33.9271 5.79055 34.0338C5.88772 34.5949 6.00236 35.1527 6.13445 35.7073C6.30901 35.8602 6.60665 36.1117 7.33809 36.2272C8.28512 36.3756 9.08987 36.2165 9.9147 34.975C9.80414 34.4056 9.71104 33.8294 9.6354 33.2463C8.60196 33.9858 8.12975 34.224 7.51702 34.224" fill="#12100B"/>
<path d="M5.41378 30.9277C5.59883 31.0974 6.05881 31.3809 6.73875 31.4876C7.67531 31.6351 7.92843 31.5294 9.42185 30.6513C9.39741 29.9628 9.39741 29.269 9.42185 28.5698C8.36136 29.1919 7.92406 29.4132 7.33315 29.4132C7.12688 29.4101 6.92116 29.3908 6.7178 29.3555C6.12427 29.2666 5.66516 29.072 5.3457 28.7893C5.3457 29.5003 5.36869 30.2131 5.41466 30.9277" fill="#12100B"/>
<path d="M5.6761 33.3272C6.03903 33.6433 6.48463 33.8446 6.95829 33.9067C7.88699 34.0533 8.22827 33.936 9.59863 32.9468C9.52065 32.288 9.46625 31.6226 9.43541 30.9507C8.33127 31.5977 7.89223 31.8119 7.32314 31.8119C7.11392 31.8077 6.9053 31.7875 6.69906 31.7514C6.2513 31.6888 5.82203 31.5288 5.44043 31.2822C5.46225 31.5639 5.48844 31.8448 5.51898 32.1265C5.56263 32.5273 5.61587 32.9264 5.6761 33.3272Z" fill="#12100B"/>
<path d="M9.43295 28.2561C9.46321 27.5705 9.51703 26.8826 9.59442 26.1924C8.56273 26.7958 8.14639 27.0011 7.59388 27.0011C7.38145 26.9969 7.16962 26.9764 6.9602 26.9398C6.4001 26.8418 5.87919 26.5828 5.45892 26.1933C5.40131 26.8865 5.36378 27.5824 5.35156 28.2783C5.35156 28.3227 5.35156 28.3671 5.35156 28.4107C5.62301 28.7582 6.09522 28.9875 6.75945 29.0924C7.69164 29.239 7.94389 29.1333 9.4347 28.2561" fill="#12100B"/>
<path d="M7.99605 24.5526C7.76477 24.5472 7.53424 24.5237 7.3065 24.4823C6.73371 24.3907 6.19743 24.138 5.75809 23.7527C5.64637 24.4483 5.55676 25.1477 5.48926 25.851C5.70921 26.0812 6.24513 26.5576 7.00014 26.6758C7.91225 26.8189 8.07984 26.7753 9.63262 25.8617C9.7199 25.1765 9.82377 24.4877 9.95295 23.7998C8.95879 24.373 8.51451 24.5526 7.99605 24.5526Z" fill="#12100B"/>
<path d="M23.3439 4.12378C23.7437 3.91937 24.1458 3.73244 24.5502 3.56298C23.4556 3.26347 23.2139 3.01107 22.9171 2.70001C22.7749 2.54444 22.6196 2.40199 22.4528 2.27429C22.0371 1.94731 21.5906 1.66301 21.1199 1.42554C20.584 1.65128 20.0603 1.90546 19.5488 2.18364L19.5933 2.20853C20.0309 2.44702 20.4557 2.70898 20.8659 2.99329C21.7536 3.60209 21.9282 3.65897 23.282 4.09979L23.3439 4.12378Z" fill="#12100B"/>
<path d="M20.0571 6.23377C20.4644 5.9156 20.8761 5.61669 21.2921 5.33703C20.3914 5.2046 20.0614 4.98953 19.5918 4.68468C19.4173 4.57004 19.2174 4.44117 18.9582 4.29808C18.1639 3.85992 17.8051 3.6564 17.6332 3.55864C17.5838 3.5275 17.5325 3.4996 17.4796 3.4751C17.0263 3.79742 16.5852 4.13692 16.1564 4.4936L16.0176 4.61181C16.097 4.67224 16.1581 4.72201 16.2105 4.76378C16.4226 4.93709 16.4941 4.99486 17.1811 5.28903C17.3725 5.37445 17.5588 5.4715 17.7388 5.57966C18.2145 5.8525 18.7522 6.16001 20.0012 6.2791L20.0571 6.23377Z" fill="#12100B"/>
<path d="M19.7057 6.51548C18.5911 6.37506 18.0726 6.07822 17.6109 5.81248C17.4397 5.70916 17.2625 5.61656 17.0802 5.53519C16.3592 5.2268 16.2746 5.15747 16.0468 4.97261C15.9865 4.92284 15.9123 4.8633 15.812 4.78687C15.3197 5.21346 14.8443 5.65784 14.3857 6.11999C14.9356 6.57858 14.9688 6.59636 15.4026 6.81855L15.709 6.97675C16.4072 7.34113 17.1928 7.75085 18.4235 7.63797C18.8395 7.24515 19.2672 6.87039 19.7066 6.5137" fill="#12100B"/>
<path d="M26.2494 2.95234C25.1767 2.54885 24.9462 2.26 24.7403 2.00404C24.605 1.81355 24.425 1.66074 24.2166 1.55967C23.9268 1.40769 23.7924 1.33126 23.6623 1.2566C23.493 1.16062 23.3332 1.06908 22.8305 0.812229L22.8479 0.797119L22.7676 0.820227C22.3143 0.955317 21.868 1.11085 21.4287 1.28682C21.8425 1.50549 22.2357 1.76222 22.6035 2.05381C22.7822 2.18969 22.9484 2.34169 23.1002 2.50796C23.4083 2.83058 23.6335 3.0661 24.9602 3.38782C25.3862 3.22133 25.8141 3.07321 26.2442 2.94345" fill="#12100B"/>
<path d="M14.1255 12.9412C13.6973 13.0742 13.2533 13.1477 12.8058 13.1598C12.4556 13.1547 12.1088 13.0905 11.7793 12.9696C11.6545 12.9305 11.5262 12.8896 11.3865 12.855L11.3673 12.8487C10.4526 12.4657 10.2065 12.3386 9.89312 12.064C9.62428 12.5297 9.36563 13.0019 9.11717 13.4806C9.04501 13.6216 8.97373 13.7633 8.90332 13.9055C9.23059 14.2291 9.62971 14.4675 10.0668 14.6005C10.2004 14.6342 10.3287 14.6733 10.45 14.7107C11.047 14.8946 11.6109 15.0662 13.1977 14.5409C13.4886 13.9952 13.7967 13.462 14.122 12.9412" fill="#12100B"/>
<path d="M18.1273 7.92419H18.006C16.9498 7.92419 16.2341 7.55002 15.5891 7.21319L15.2853 7.05588C14.8245 6.82036 14.7861 6.79903 14.2004 6.30933C13.9339 6.58484 13.672 6.86539 13.4149 7.15097C13.1902 7.40515 12.9706 7.66319 12.7559 7.92507C13.2058 8.22836 13.6845 8.485 14.1847 8.69117C14.4396 8.77472 14.6386 8.85826 14.8149 8.93114C15.3665 9.16132 15.7104 9.30441 16.997 9.09645C17.363 8.69058 17.7389 8.29894 18.1247 7.92152" fill="#12100B"/>
<path d="M7.88337 36.5417C7.68714 36.5398 7.49135 36.5225 7.2977 36.4902C6.92209 36.443 6.56045 36.3159 6.23633 36.1169C6.38355 36.7017 6.55113 37.2809 6.73908 37.8544C6.93023 37.9353 7.30119 38.0828 7.97415 38.321C8.76756 38.6019 9.57755 38.2233 10.4469 37.1656C10.2723 36.5625 10.1199 35.9492 9.98953 35.3259C9.28253 36.2884 8.57117 36.5382 7.88512 36.5382" fill="#12100B"/>
<path d="M16.7272 9.40826C16.4749 9.44406 16.2207 9.46336 15.966 9.46602C15.4031 9.46602 15.1028 9.34071 14.7188 9.18074C14.5442 9.10875 14.3504 9.02698 14.1025 8.94611L14.0921 8.94166C13.5659 8.72516 13.0629 8.45447 12.5908 8.13379C12.2091 8.60779 11.8419 9.09127 11.4893 9.58423C11.738 9.90062 11.9536 10.1566 12.651 10.4819C12.699 10.5041 12.7505 10.5307 12.8081 10.5601C13.2698 10.7983 14.0301 11.192 15.6291 10.7565C15.9829 10.2926 16.3489 9.84315 16.7272 9.40826Z" fill="#12100B"/>
<path d="M33.7046 38.6321C31.6691 40.2025 29.4451 41.0148 27.2604 41.0148C26.4641 41.0156 25.6714 40.9068 24.9037 40.6913C23.5169 40.2982 22.243 39.5719 21.189 38.5734C21.1505 38.5379 21.113 38.5014 21.0755 38.465L21.0336 38.425C17.7063 35.1962 16.3377 29.3109 17.9542 23.3456C19.2198 18.669 22.0347 14.9914 25.3454 13.125C27.6235 11.8372 30.1382 11.4017 32.5524 12.0798C33.6442 12.3861 34.667 12.9059 35.5637 13.6102C37.0938 14.7656 38.3271 16.4302 39.1537 18.5135C39.504 19.4011 39.7694 20.3211 39.9462 21.2606L45.4224 18.0416C45.3936 17.8754 45.3648 17.71 45.3351 17.5447C45.0724 15.9077 44.6544 14.3004 44.087 12.7455C42.0899 7.99246 38.6248 4.4428 34.1043 3.17099C32.9329 2.84254 31.7233 2.67662 30.5082 2.67774C22.1953 2.68041 13.8624 10.3139 10.8624 21.3904C9.19704 27.5405 9.4074 33.8186 11.4542 39.0685C13.494 44.3014 17.1154 47.884 21.6507 49.1576C25.4685 50.2294 29.5534 49.5575 33.3668 47.2743L35.1063 37.3994C34.6655 37.8405 34.1973 38.2522 33.7046 38.6321Z" fill="#12100B"/>
<path d="M30.2851 12.4532C31.0245 12.4526 31.7606 12.554 32.4733 12.7545C35.1835 13.5152 37.3551 15.6438 38.5832 18.7464C38.9037 19.5576 39.15 20.3972 39.319 21.2545L29.6165 19.3881C28.9776 17.0685 27.7373 15.0235 25.9951 13.557C27.3969 12.8265 28.8493 12.4514 30.2816 12.4514" fill="#211E1B"/>
</g>
<defs>
<clipPath id="clip0_315_54">
<rect width="225" height="51" fill="white"/>
</clipPath>
</defs>
</svg>
