<svg width="43" height="25" viewBox="0 0 43 25" fill="none" xmlns="http://www.w3.org/2000/svg">
<g clip-path="url(#clip0_1_3585)">
<path d="M35.9707 10.4104H35.8551L36.6385 9.67915L35.9707 9.08316C35.9707 9.08316 38.1453 8.9648 36.6385 7.1219C35.1317 5.279 33.2696 2.78517 33.2696 2.78517C33.2696 2.78517 34.1728 1.29732 32.4134 0.287109L31.9853 1.77495L29.9905 0.883095L27.1053 1.59743C27.1053 1.59743 26.1464 3.14022 27.8887 3.44033C27.8887 3.44033 35.2943 5.81582 32.2251 6.70768L31.7841 7.24872L31.0008 7.30788L29.6181 4.80982L28.4751 4.21385L26.9084 4.69147L27.0283 5.53684C27.0283 5.53684 17.0156 1.24237 15.5173 7.48542C15.5173 7.48542 11.6647 9.38749 8.11595 4.69147C8.11595 4.69147 5.59888 2.96693 1.07842 4.0955C1.07842 4.0955 4.62288 9.32831 9.01919 9.32831L12.996 10.9895L15.3975 14.857L13.7152 15.191C13.2071 13.6547 12.1723 12.3414 10.789 11.4775C9.40576 10.6136 7.76065 10.2531 6.13713 10.4581C4.51361 10.6631 3.01334 11.4208 1.89479 12.6007C0.776233 13.7805 0.10944 15.3086 0.00928142 16.9217C-0.0908776 18.5348 0.381872 20.1319 1.34608 21.4378C2.3103 22.7438 3.70558 23.6768 5.29158 24.0761C6.87757 24.4754 8.55496 24.316 10.0347 23.6254C11.5145 22.9348 12.704 21.7562 13.3984 20.2927L14.8581 21.4509H27.9315C27.9315 21.4509 25.6969 15.4107 31.1634 12.3209C29.9811 13.4319 29.2278 14.915 29.033 16.5151C28.8382 18.1152 29.2141 19.7323 30.0961 21.0883C30.9781 22.4443 32.311 23.4546 33.8656 23.9453C35.4203 24.436 37.0995 24.3765 38.6146 23.777C40.1296 23.1776 41.3858 22.0756 42.167 20.6607C42.9483 19.2457 43.2059 17.6062 42.8955 16.024C42.5851 14.4418 41.7261 13.0159 40.4662 11.9914C39.2063 10.9669 37.6242 10.4078 35.9921 10.4104H35.9707ZM7.02865 22.1779C6.13829 22.1788 5.26459 21.9395 4.50187 21.4859C3.73915 21.0323 3.11637 20.3817 2.70073 19.6042C2.28509 18.8267 2.09238 17.9519 2.1434 17.0742C2.19443 16.1965 2.48727 15.3492 2.99028 14.6238C3.49329 13.8984 4.18738 13.3224 4.99766 12.958C5.80793 12.5936 6.70361 12.4546 7.58803 12.5561C8.47245 12.6575 9.31202 12.9955 10.0161 13.5336C10.7202 14.0717 11.2621 14.7895 11.5834 15.6094L6.12113 16.6957L6.48072 18.4794L11.8316 18.23C11.6237 19.3382 11.0297 20.3397 10.1524 21.0607C9.27519 21.7818 8.17007 22.177 7.02865 22.1779ZM13.8051 19.2529C13.9135 18.8853 13.9894 18.5092 14.0319 18.1286L15.4103 18.0652L15.8384 19.2529H13.8051ZM35.9921 22.1779C35.0252 22.1779 34.0801 21.8948 33.2761 21.3644C32.4722 20.834 31.8456 20.0801 31.4756 19.1981C31.1056 18.3161 31.0088 17.3455 31.1974 16.4091C31.3861 15.4728 31.8517 14.6127 32.5354 13.9376C33.219 13.2625 34.0901 12.8028 35.0384 12.6166C35.9867 12.4303 36.9696 12.5259 37.8629 12.8913C38.7562 13.2566 39.5197 13.8753 40.0568 14.6691C40.594 15.4629 40.8807 16.3962 40.8807 17.3509C40.8801 17.9864 40.7526 18.6155 40.5054 19.2023C40.2582 19.7891 39.8962 20.3219 39.4401 20.7703C38.9839 21.2187 38.4427 21.5739 37.8474 21.8154C37.2521 22.057 36.6143 22.1801 35.9707 22.1779H35.9921Z" fill="#C3C3C3"/>
</g>
<defs>
<clipPath id="clip0_1_3585">
<rect width="43" height="24" fill="white" transform="translate(0 0.291504)"/>
</clipPath>
</defs>
</svg>
