<svg width="46" height="57" viewBox="0 0 46 57" fill="none" xmlns="http://www.w3.org/2000/svg">
<path d="M0.0258982 17.5995V14.9924C0.231007 15.1743 0.416164 15.4416 0.655457 15.5212C1.2252 15.6918 1.624 15.2653 1.624 14.5716V6.04232C1.60662 5.55745 1.68705 5.07403 1.86047 4.62077C2.03495 4.17039 2.29957 3.76022 2.63817 3.4153C2.97496 3.07321 3.37953 2.80498 3.82607 2.62776C4.2703 2.45089 4.74696 2.36949 5.22484 2.38891H9.06493C9.19494 2.37766 9.32525 2.40794 9.43688 2.4754C9.54851 2.54286 9.63574 2.64402 9.686 2.76422C10.0022 3.39254 10.3554 4.00097 10.6972 4.61508C10.9367 5.10058 11.3079 5.50931 11.7684 5.79494C12.2241 6.08027 12.7517 6.23017 13.2896 6.22709C15.052 6.24984 16.8116 6.24984 18.5683 6.22709C19.107 6.22275 19.6336 6.06597 20.0867 5.77502C20.5448 5.48196 20.911 5.0662 21.1435 4.57524C21.4683 4.00662 21.8102 3.43803 22.1065 2.8296C22.1596 2.68131 22.2613 2.55533 22.3953 2.4722C22.5293 2.38908 22.6876 2.35367 22.8443 2.37183H26.3596C28.8038 2.37183 30.2111 3.79337 30.2111 6.26687V25.1479H7.67756C5.90565 25.1479 4.77194 26.251 4.77194 28.028V48.5893C4.74439 49.1507 4.8902 49.7069 5.18979 50.1829C5.48937 50.6588 5.92824 51.0315 6.44696 51.2504C6.85617 51.4265 7.3013 51.5034 7.746 51.475H30.1655C30.1052 52.3773 29.6967 53.2211 29.026 53.8291C28.3652 54.4308 27.4926 54.7467 26.599 54.7076H5.26184C5.01467 54.7113 4.76773 54.6923 4.52406 54.6508C3.67677 54.5088 2.91294 54.0567 2.38181 53.3828C1.84501 52.7005 1.57558 51.8464 1.624 50.9803V18.0686C1.624 17.6023 1.55563 17.1816 1.05425 17.028C0.949839 16.9945 0.839779 16.9825 0.730571 16.9928C0.621363 17.003 0.515293 17.0353 0.41899 17.0877C0.222329 17.1937 0.0750871 17.3723 0.00878906 17.5853L0.0258982 17.5995Z" fill="#FCB6BD"/>
<path d="M22.9781 15.9733C22.9973 14.5548 22.6013 13.1615 21.8386 11.9645C21.08 10.778 19.984 9.84455 18.6908 9.28344C17.4063 8.72694 15.9829 8.57227 14.6085 8.8399C13.2295 9.11088 11.964 9.78946 10.9764 10.7875C9.97758 11.7937 9.29792 13.0713 9.02217 14.4607C8.74291 15.8551 8.87657 17.3004 9.40678 18.6202C9.93414 19.9307 10.8368 21.0571 12.0019 21.8585C12.9608 22.5128 14.0677 22.9189 15.2229 23.04C16.3781 23.1611 17.5454 22.9934 18.6195 22.5522C19.4728 22.1946 20.2471 21.6729 20.8985 21.0169C21.5564 20.3543 22.0772 19.5688 22.4311 18.7054C22.7898 17.8388 22.9766 16.9109 22.981 15.9733H22.9781Z" fill="#EC101B"/>
<path d="M0.0255941 17.5995C0.0964196 17.3924 0.244362 17.2204 0.438716 17.119C0.632312 17.0192 0.857484 16.9998 1.06535 17.065C1.56103 17.2185 1.6351 17.6336 1.6351 18.1056V51.0059C1.59386 51.8682 1.86824 52.716 2.4071 53.3912C2.93825 54.0589 3.69845 54.5066 4.54087 54.6479C4.78454 54.6894 5.03148 54.7085 5.27865 54.7048H26.6015C27.4951 54.7438 28.3678 54.4279 29.0286 53.8262C29.6993 53.2183 30.1078 52.3744 30.1681 51.4721H7.74848C7.30378 51.5005 6.85864 51.4236 6.44944 51.2476C5.92998 51.0297 5.49047 50.6573 5.19073 50.1811C4.891 49.7049 4.74563 49.148 4.77441 48.5864V28.0137C4.77441 26.2368 5.89117 25.1337 7.68018 25.1337H30.2137V6.26401C30.2137 3.79335 28.8036 2.36897 26.3622 2.36897H22.8468C22.6901 2.35081 22.5319 2.38621 22.3979 2.46934C22.2639 2.55247 22.162 2.67845 22.109 2.82674C21.8241 3.39536 21.4709 3.96395 21.1462 4.57238C20.9136 5.06334 20.5474 5.4791 20.0893 5.77215C19.6362 6.06311 19.1097 6.21988 18.5709 6.22423C16.8123 6.24698 15.0526 6.24698 13.2921 6.22423C12.7489 6.22737 12.2163 6.07545 11.7567 5.78638C11.2929 5.49383 10.9208 5.07713 10.6828 4.58376C10.3409 3.96965 9.98758 3.36122 9.67137 2.7329C9.62111 2.6127 9.53388 2.51161 9.42225 2.44415C9.31061 2.37669 9.18045 2.34634 9.05044 2.35759H5.20743C4.72955 2.33817 4.25303 2.41957 3.80879 2.59643C3.36226 2.77366 2.95755 3.04189 2.62075 3.38398C2.2812 3.72974 2.0162 4.14116 1.8418 4.59292C1.6674 5.04469 1.58727 5.52725 1.60659 6.011V14.5403C1.60659 15.234 1.18792 15.6776 0.640965 15.4899C0.398823 15.4103 0.213594 15.143 0.008485 14.9611V5.18368C0.113888 4.82545 0.202238 4.46153 0.33328 4.10898C0.670496 3.14346 1.29201 2.30212 2.11652 1.69519C2.93485 1.09586 3.9191 0.764109 4.93396 0.745574C12.2419 0.722829 19.548 0.722829 26.8521 0.745574C27.5138 0.758075 28.1664 0.902346 28.7715 1.16989C29.3766 1.43743 29.9222 1.82285 30.376 2.30359C31.3079 3.28389 31.819 4.5888 31.8004 5.93992V25.1365H42.8849C44.8078 25.1365 45.8817 26.2283 45.8817 28.1986V48.3846C45.8817 50.3747 44.8077 51.458 42.842 51.458H40.1188C39.5091 51.458 39.1786 51.1737 39.1644 50.6847C39.1502 50.1956 39.4977 49.8317 40.1188 49.8317H42.9988C43.9588 49.8317 44.2778 49.4337 44.2778 48.5353V28.0479C44.2778 27.1267 43.8762 26.74 42.9589 26.74H7.67726C6.74287 26.74 6.35832 27.1381 6.35262 28.1047V48.4556C6.35262 49.4507 6.7429 49.809 7.77699 49.809H36.6775C36.7851 49.8083 36.8918 49.8295 36.9909 49.8715C37.0908 49.9119 37.181 49.9729 37.2557 50.0506C37.3322 50.1278 37.3923 50.2198 37.4324 50.3207C37.4726 50.423 37.492 50.5322 37.4894 50.642C37.4922 50.7511 37.4717 50.8597 37.4294 50.9604C37.389 51.0609 37.3268 51.1512 37.2472 51.2248C37.1654 51.3004 37.0682 51.3576 36.9623 51.3926C36.8597 51.4266 36.7508 51.4382 36.6432 51.4267H31.8146C31.7519 51.7565 31.7206 52.0578 31.6409 52.3478C31.4182 53.2918 30.9334 54.154 30.2421 54.8355C29.5586 55.5108 28.6955 55.9765 27.7551 56.1775C27.6204 56.2309 27.4752 56.2523 27.3307 56.24C19.6392 56.24 12.0473 56.2855 4.36713 56.2855L4.02245 56.1718C3.15307 55.9878 2.34859 55.5756 1.69213 54.9777C1.03209 54.3736 0.541172 53.6083 0.267764 52.7572C0.162361 52.4559 0.0883108 52.1431 0 51.8361L0.0255941 17.5995ZM11.3265 2.40882C11.6114 2.92342 11.8962 3.35554 12.0871 3.79906C12.2036 4.05369 12.393 4.26829 12.6312 4.41599C12.8668 4.56169 13.1406 4.63401 13.4176 4.6236H18.417C18.8048 4.61852 19.1754 4.46361 19.4511 4.19144C19.8562 3.63112 20.2182 3.04084 20.5337 2.42582L11.3265 2.40882Z" fill="#EC101B"/>
<path d="M9.08198 38.2775V35.7954C9.07128 35.5551 9.11003 35.3151 9.1959 35.0903C9.2787 34.8661 9.4078 34.6617 9.5748 34.4904C9.74064 34.3193 9.94056 34.1847 10.1617 34.0953C10.3807 34.0044 10.6169 33.9617 10.854 33.9702H15.7993C16.0368 33.9613 16.2735 34.002 16.4944 34.0896C16.7157 34.1776 16.9164 34.3102 17.084 34.4791C17.2536 34.6496 17.3868 34.8526 17.4755 35.0759C17.5641 35.2993 17.6063 35.5382 17.5997 35.7784C17.6225 37.4577 17.6225 39.137 17.5997 40.8163C17.6075 41.0619 17.566 41.3065 17.4773 41.5356C17.3876 41.7628 17.2517 41.969 17.0783 42.1413C16.907 42.3137 16.7013 42.4483 16.4745 42.5364C16.2486 42.6231 16.0067 42.6609 15.7651 42.6473H10.9223C10.677 42.6643 10.431 42.6274 10.2016 42.5393C9.97054 42.4505 9.76145 42.3128 9.58899 42.1356C9.41414 41.9582 9.2789 41.7459 9.19201 41.5127C9.10511 41.2794 9.06851 41.0305 9.08476 40.7822C9.07621 39.9378 9.08198 39.1076 9.08198 38.2775ZM10.6858 39.1588V40.7026C10.7083 40.7746 10.7496 40.8394 10.8054 40.8902C10.8599 40.9418 10.9266 40.979 10.9992 40.9983H15.6313C15.7538 40.9983 15.9674 40.8277 15.9731 40.714C16.0129 40.1966 15.9731 39.6763 15.9731 39.1532C15.3634 39.0394 14.5659 39.2726 14.4918 38.3855C14.3978 37.2483 15.3691 37.5667 15.9788 37.4188V35.9604C15.9788 35.6931 15.9047 35.5623 15.6142 35.568H10.9821C10.9088 35.5846 10.8411 35.6199 10.7855 35.6704C10.7314 35.7221 10.6912 35.7866 10.6687 35.858C10.6345 36.3754 10.6687 36.8957 10.6687 37.4018C11.9193 37.578 12.1843 37.743 12.1672 38.2888C12.1501 38.8347 11.8822 39.0224 10.6801 39.1418L10.6858 39.1588Z" fill="#EC101B"/>
<path d="M37.4498 29.1538H38.7858C39.615 29.1921 40.3966 29.551 40.9651 30.1546C41.5378 30.7673 41.8563 31.5741 41.8563 32.4121C41.8563 33.25 41.5378 34.0567 40.9651 34.6695C40.3982 35.2753 39.6156 35.6347 38.7858 35.6703C37.897 35.7044 37.0082 35.6987 36.1194 35.6703C35.2903 35.6352 34.5084 35.2756 33.943 34.6695C33.3702 34.0567 33.0518 33.25 33.0518 32.4121C33.0518 31.5741 33.3702 30.7673 33.943 30.1546C34.5101 29.5507 35.291 29.1916 36.1194 29.1538C36.5724 29.1368 37.0082 29.1538 37.4498 29.1538ZM37.4498 30.783H36.1763C35.7659 30.8079 35.3811 30.9902 35.1023 31.2918C34.8221 31.5979 34.6667 31.9975 34.6667 32.4121C34.6667 32.8267 34.8221 33.2262 35.1023 33.5322C35.3808 33.8347 35.7656 34.0181 36.1763 34.044C37.048 34.0724 37.9141 34.0781 38.7801 34.044C38.9924 34.0445 39.2027 34.0025 39.3984 33.9205C39.5941 33.8384 39.7713 33.718 39.9196 33.5663C40.2193 33.2576 40.3868 32.8447 40.3868 32.4149C40.3868 31.9851 40.2193 31.5721 39.9196 31.2634C39.7712 31.1122 39.5939 30.9922 39.3981 30.9106C39.2024 30.8291 38.9922 30.7876 38.7801 30.7886C38.3215 30.7659 37.897 30.7886 37.4669 30.7886L37.4498 30.783Z" fill="#EC101B"/>
<path d="M22.978 15.9732C22.9976 17.3935 22.6015 18.7886 21.8385 19.9876C21.0777 21.1742 19.9798 22.1077 18.685 22.6687C17.4 23.2233 15.9766 23.376 14.6028 23.1066C13.2231 22.8357 11.9574 22.1559 10.9706 21.1562C9.97313 20.1471 9.29456 18.8679 9.01921 17.4772C8.74282 16.0821 8.87953 14.6367 9.41245 13.3177C9.93961 12.0054 10.8458 10.8792 12.0161 10.0823C13.3633 9.16209 14.9916 8.74332 16.6166 8.89921C18.2417 9.05511 19.7601 9.77575 20.907 10.9353C22.2288 12.281 22.9719 14.0887 22.978 15.9732ZM21.3742 15.9732C21.3837 14.8764 21.0728 13.8005 20.4797 12.8771C19.8905 11.9617 19.0417 11.2422 18.0413 10.8102C17.048 10.3839 15.9487 10.2669 14.8876 10.4746C13.823 10.6869 12.8467 11.2128 12.0845 11.9844C11.3146 12.7643 10.7914 13.753 10.5803 14.8275C10.3663 15.9051 10.4723 17.0217 10.8852 18.0402C11.2923 19.0531 11.9912 19.9228 12.8935 20.5393C13.9354 21.2495 15.1942 21.5719 16.45 21.4503C17.7058 21.3287 18.879 20.7708 19.7647 19.874C20.2723 19.3582 20.6731 18.7476 20.9441 18.0771C21.2176 17.4043 21.3578 16.685 21.3571 15.959L21.3742 15.9732Z" fill="#EC101B"/>
<path d="M11.3262 2.36621H20.5334C20.2178 2.98123 19.8559 3.57144 19.4508 4.13176C19.1751 4.40393 18.8045 4.55884 18.4167 4.56392C16.7388 4.60941 15.061 4.56392 13.4172 4.56392C13.1403 4.57433 12.8665 4.50208 12.6309 4.35638C12.3936 4.20753 12.2046 3.99326 12.0868 3.73945C11.8589 3.31299 11.6082 2.88081 11.3262 2.36621Z" fill="white"/>
<path d="M10.6797 39.1588C11.8819 39.0337 12.1668 38.8744 12.1782 38.3058C12.1896 37.7372 11.9303 37.595 10.6797 37.4187V35.875C10.7023 35.8036 10.7425 35.7391 10.7965 35.6873C10.8521 35.6369 10.9198 35.6016 10.9931 35.585H15.6252C15.9101 35.585 15.9955 35.71 15.9898 35.9773V37.4358C15.3801 37.5837 14.4087 37.2823 14.5027 38.4024C14.5739 39.2895 15.3744 39.0564 15.9841 39.1701V40.731C15.9841 40.8334 15.7647 41.0153 15.6422 41.0153H11.0102C10.937 40.9955 10.8696 40.9584 10.8136 40.9072C10.7596 40.8554 10.7194 40.7909 10.6968 40.7196C10.6797 40.2022 10.6797 39.6933 10.6797 39.1588Z" fill="white"/>
<path d="M37.4728 30.783H38.7461C38.9582 30.782 39.1684 30.8234 39.3641 30.905C39.5598 30.9866 39.7372 31.1066 39.8856 31.2578C40.1866 31.5658 40.3552 31.979 40.3552 32.4093C40.3552 32.8395 40.1866 33.2527 39.8856 33.5607C39.7373 33.7123 39.5601 33.8328 39.3644 33.9148C39.1687 33.9969 38.9584 34.0389 38.7461 34.0384C37.8915 34.0782 37.0142 34.0725 36.1424 34.0384C35.7319 34.0119 35.3473 33.8286 35.0685 33.5266C34.7882 33.2206 34.6328 32.821 34.6328 32.4064C34.6328 31.9919 34.7882 31.5922 35.0685 31.2862C35.3476 30.985 35.7322 30.8028 36.1424 30.7773C36.6182 30.766 37.0426 30.783 37.4728 30.783Z" fill="white"/>
<path d="M21.3685 15.9505C21.387 17.0489 21.0841 18.1289 20.4968 19.058C19.915 19.978 19.0721 20.7045 18.0754 21.1449C17.0857 21.5798 15.987 21.7047 14.9247 21.5031C13.8573 21.3009 12.8757 20.7828 12.1074 20.0162C11.3326 19.2385 10.8024 18.2519 10.5817 17.1776C10.3611 16.1033 10.4595 14.988 10.8652 13.9689C11.2662 12.9527 11.9602 12.0781 12.8593 11.4556C13.8969 10.7394 15.1532 10.4089 16.4097 10.5216C17.6661 10.6343 18.8433 11.1832 19.7362 12.0726C20.7657 13.1036 21.3514 14.495 21.3685 15.9505ZM14.9333 16.8916C14.5145 16.4424 14.1555 16.0188 13.7596 15.6378C13.6877 15.562 13.6015 15.5011 13.506 15.4587C13.4102 15.4155 13.3063 15.3931 13.2012 15.3931C13.0961 15.3931 12.9923 15.4155 12.8965 15.4587C12.8005 15.5003 12.7141 15.5613 12.6429 15.6378C12.5649 15.7105 12.5028 15.7986 12.4607 15.8964C12.4185 15.9943 12.3972 16.0999 12.3979 16.2064C12.3972 16.3139 12.4185 16.4202 12.4605 16.5191C12.5029 16.6169 12.565 16.705 12.6429 16.7779C13.2126 17.392 13.8033 17.9909 14.4149 18.5747C14.4862 18.6571 14.5746 18.7231 14.674 18.7681C14.7728 18.8112 14.8795 18.8335 14.9874 18.8335C15.0952 18.8332 15.2019 18.8109 15.3008 18.7681C15.3993 18.7216 15.4875 18.6558 15.5601 18.5747C15.862 18.2904 16.1298 18.0061 16.4147 17.7048C17.332 16.7722 18.2662 15.8539 19.1551 14.8929C19.2495 14.7711 19.3193 14.632 19.3602 14.4835C19.3995 14.3333 19.4092 14.1768 19.3887 14.0229C19.3463 13.8953 19.2717 13.7808 19.1722 13.6903C19.0758 13.5994 18.9584 13.534 18.8304 13.4998C18.5215 13.5028 18.2251 13.6227 18.0014 13.8353C16.9673 14.7849 16.0072 15.797 14.9219 16.8916H14.9333Z" fill="white"/>
<path d="M14.9213 16.8916C15.9953 15.797 16.9553 14.7849 17.9581 13.8125C18.1808 13.6001 18.4761 13.4802 18.7842 13.4771C18.9155 13.5095 19.0366 13.5745 19.1361 13.6659C19.2357 13.7573 19.3106 13.8723 19.354 14.0002C19.3761 14.1541 19.3664 14.3108 19.3254 14.4608C19.2845 14.6093 19.2149 14.7483 19.1204 14.8701C18.2316 15.8311 17.2972 16.7495 16.3799 17.682C16.095 17.9663 15.8101 18.2506 15.5253 18.552C15.4539 18.6344 15.3654 18.7003 15.266 18.7453C15.1671 18.7884 15.0604 18.8106 14.9526 18.8106C14.8448 18.8106 14.738 18.7884 14.6392 18.7453C14.5398 18.7003 14.4515 18.6344 14.3801 18.552C13.7761 17.9644 13.1854 17.3655 12.6081 16.7552C12.5311 16.6815 12.4693 16.5937 12.4259 16.4965C12.3846 16.3978 12.3633 16.292 12.3633 16.1851C12.3633 16.0782 12.3846 15.9724 12.4259 15.8738C12.4693 15.7766 12.5311 15.6887 12.6081 15.6151C12.6799 15.5392 12.7661 15.4783 12.8617 15.4359C12.9575 15.3927 13.0613 15.3705 13.1664 15.3705C13.2715 15.3705 13.3755 15.3927 13.4713 15.4359C13.5673 15.4776 13.6535 15.5386 13.7248 15.6151C14.1549 16.0188 14.5139 16.4623 14.9213 16.8916Z" fill="#EC101B"/>
</svg>
