<svg width="31" height="31" viewBox="0 0 31 31" fill="none" xmlns="http://www.w3.org/2000/svg">
<path d="M17.1214 0V2.13592C23.5963 2.13592 28.8648 7.40631 28.8648 13.8835H31C31 6.22835 24.7738 0 17.1214 0ZM6.07181 3.21029C5.49921 3.20836 4.94317 3.40244 4.49605 3.76029L4.44374 3.80301L1.08618 7.26747L1.1577 7.20019C0.047413 8.15708 -0.260053 9.66931 0.217159 10.9402C1.11714 13.5353 3.40925 18.5537 7.93476 23.0733C12.4677 27.6143 17.5366 29.81 20.0444 30.7893L20.07 30.7978L20.0946 30.8064C20.7224 31.014 21.3934 31.0555 22.042 30.9267C22.6906 30.798 23.2949 30.5034 23.7959 30.0716L23.8279 30.0449L27.1631 26.7076C28.0492 25.8211 28.0492 24.2683 27.1631 23.383L22.7892 19.0022C21.9009 18.1137 20.3487 18.1137 19.4604 19.0022L17.3423 21.1211C16.5844 20.759 14.7182 19.8203 12.9439 18.1286C11.1952 16.4583 10.3016 14.5296 9.97812 13.7831L12.1133 11.6472C13.0496 10.7106 13.103 9.10116 12.0236 8.24038L12.1208 8.33116L7.69882 3.80301L7.64864 3.76029C7.20128 3.40213 6.6448 3.20803 6.07181 3.21029ZM17.1214 4.27184V6.40776C21.2412 6.40776 24.5945 9.76116 24.5945 13.8835H26.7296C26.7296 8.58427 22.4198 4.27184 17.1214 4.27184ZM6.07395 5.3398C6.15082 5.3398 6.22555 5.36864 6.29921 5.42524L10.6411 9.87223L10.6934 9.91495C10.6806 9.90427 10.734 10.0068 10.6037 10.1371L7.44687 13.2961L7.69028 13.9412C7.69028 13.9412 8.89559 17.2177 11.4706 19.675C14.0029 22.0908 17.1256 23.4108 17.1256 23.4108L17.7907 23.6948L20.97 20.5134C21.1504 20.334 21.0992 20.334 21.2796 20.5134L25.6535 24.8942C25.835 25.0757 25.835 25.0159 25.6535 25.1985L22.4006 28.4526C21.9052 28.8734 21.3938 28.9834 20.7778 28.7794C18.364 27.8353 13.6399 25.7677 9.44433 21.5643C5.21881 17.3426 3.02812 12.5464 2.22529 10.2225L2.22102 10.2097L2.21462 10.1948C2.05341 9.76757 2.17191 9.14708 2.55091 8.82029L2.58614 8.78825L5.84655 5.42524C5.91085 5.37243 5.9908 5.34239 6.07395 5.3398ZM17.1214 8.54368V10.6796C18.8871 10.6796 20.3241 12.1171 20.3241 13.8835H22.4593C22.4593 10.9391 20.0647 8.54368 17.1214 8.54368Z" fill="black"/>
</svg>
