<svg width="62" height="59" viewBox="0 0 62 59" fill="none" xmlns="http://www.w3.org/2000/svg">
<path d="M20.0862 57.4249C19.0015 57.4283 17.9301 57.1862 16.9526 56.717C15.9714 56.2499 15.107 55.57 14.4228 54.7268L3.10479 40.7274C2.49389 39.9705 2.03801 39.101 1.76305 38.1686C1.20006 36.2871 1.39746 34.2603 2.31291 32.5222C2.76481 31.6672 3.38032 30.909 4.12466 30.2904L37.1102 2.88004C37.8487 2.26422 38.7029 1.80174 39.6229 1.51971C40.5428 1.23769 41.51 1.14184 42.4676 1.23769C43.4251 1.33355 44.3538 1.61924 45.1993 2.07799C46.0448 2.53675 46.79 3.15934 47.3912 3.90928L58.7092 17.9087C59.6277 19.049 60.1924 20.4322 60.3336 21.8885C60.4748 23.3447 60.1864 24.8104 59.504 26.1053C59.053 26.9617 58.4374 27.721 57.6923 28.34L24.7267 55.7475C23.4296 56.833 21.7903 57.4271 20.0975 57.4249H20.0862ZM41.7166 2.89712C40.4139 2.89577 39.1526 3.35397 38.1556 4.19074L5.18724 31.5982C4.02799 32.5678 3.29736 33.9536 3.1532 35.4563C3.07972 36.2033 3.15228 36.9574 3.36686 37.6768C3.57999 38.3941 3.93236 39.0625 4.40383 39.6442L15.7219 53.6436C16.1919 54.2255 16.7728 54.7087 17.4311 55.0651C18.082 55.4179 18.7966 55.6382 19.5334 55.7134C20.271 55.7875 21.0161 55.7131 21.7242 55.4945C22.4343 55.2768 23.0937 54.9202 23.6641 54.4454L56.6325 27.035C57.7917 26.0654 58.5224 24.6796 58.6665 23.177C58.7399 22.43 58.6673 21.6759 58.4529 20.9565C58.2397 20.2392 57.8874 19.5707 57.4159 18.9891L46.0979 4.99245C45.6338 4.41214 45.0579 3.93055 44.4042 3.57603C43.7505 3.22152 43.0324 3.00126 42.292 2.92835C42.104 2.91129 41.9131 2.90281 41.7223 2.90281L41.7166 2.89712Z" fill="#EC101B"/>
<path d="M20.0727 57.5671C18.9735 57.5661 17.8884 57.3204 16.8964 56.8478C15.8961 56.3664 15.0155 55.6691 14.3183 54.8065L3.00016 40.8071C1.74344 39.253 1.14834 37.2686 1.3428 35.2811C1.53727 33.2935 2.50585 31.4616 4.04006 30.1795L37.0056 2.76922C37.759 2.14137 38.6305 1.66991 39.5689 1.38251C40.5072 1.09512 41.4935 0.997523 42.4702 1.0955C43.4468 1.19347 44.394 1.48505 45.2563 1.95308C46.1186 2.4211 46.8786 3.05621 47.4918 3.82115L58.8098 17.8206C60.0676 19.374 60.6637 21.3582 60.4698 23.346C60.2758 25.3338 59.3072 27.166 57.7728 28.448L24.8073 55.8584C23.4859 56.9592 21.8195 57.5628 20.0983 57.5643L20.0727 57.5671ZM41.7231 1.34198C40.067 1.34151 38.4639 1.92449 37.1964 2.98814L4.22798 30.3984C3.49665 31.0052 2.89264 31.7501 2.45045 32.5905C1.55403 34.2948 1.36077 36.2814 1.912 38.126C2.18168 39.0382 2.62895 39.8884 3.22814 40.6279L14.5462 54.6273C15.2168 55.4561 16.0633 56.1261 17.0246 56.5891C17.9781 57.0444 19.0214 57.2814 20.0784 57.2828H20.0926C21.7498 57.2784 23.3538 56.6972 24.6279 55.6395L57.5963 28.2292C58.3276 27.6231 58.9308 26.8779 59.371 26.0371C60.0417 24.7679 60.3255 23.3305 60.1873 21.9023C60.0491 20.474 59.495 19.1173 58.5933 17.9997L47.2753 4.00023C46.6842 3.26263 45.9511 2.6505 45.1194 2.19983C44.2877 1.74917 43.3742 1.46908 42.4325 1.37606C42.1951 1.35331 41.9567 1.34198 41.7174 1.34198H41.7231ZM20.0926 55.8783C19.1384 55.8738 18.2001 55.6345 17.3607 55.1817C16.6888 54.8188 16.0961 54.3259 15.6172 53.7318L4.2992 39.7352C3.32511 38.5295 2.86373 36.9905 3.01393 35.449C3.16414 33.9074 3.91403 32.4861 5.10263 31.4902L38.071 4.07985C39.0921 3.22513 40.3819 2.75616 41.7146 2.75499C41.9049 2.75455 42.095 2.76407 42.2843 2.78345C43.0415 2.85486 43.7762 3.07923 44.4437 3.443C45.1157 3.80705 45.7082 4.30095 46.187 4.89585L57.505 18.8924C58.4798 20.0979 58.9418 21.6369 58.7916 23.1787C58.6413 24.7205 57.891 26.142 56.7017 27.1374L23.7333 54.5477C23.1468 55.0353 22.469 55.4016 21.7392 55.6253C21.2039 55.7902 20.6472 55.8755 20.087 55.8783H20.0926ZM41.7146 3.0393C40.4488 3.04229 39.2239 3.48793 38.2533 4.29877L5.28485 31.7091C4.72449 32.1742 4.26179 32.7452 3.92322 33.3894C3.22626 34.6981 3.07278 36.2277 3.49591 37.6483C3.70337 38.3482 4.04696 39.0003 4.50715 39.5674L15.8252 53.564C16.2775 54.1282 16.838 54.5968 17.4739 54.9425C18.1098 55.2881 18.8082 55.5038 19.5285 55.5769C20.2481 55.6478 20.9747 55.5749 21.6658 55.3625C22.3569 55.1502 22.9988 54.8027 23.5539 54.3402L56.5223 26.9299C57.0827 26.4648 57.5454 25.8937 57.8839 25.2496C58.3967 24.2753 58.6134 23.173 58.5077 22.0777C58.4019 20.9823 57.9783 19.9415 57.2886 19.0829L45.9677 5.08632C45.5136 4.52035 44.9509 4.05061 44.3125 3.70461C43.6771 3.35966 42.9786 3.14592 42.2586 3.07623C42.082 3.05917 41.8968 3.05068 41.706 3.05068L41.7146 3.0393Z" fill="#EC101B"/>
<path d="M60.0659 38.9987V20.0011C60.0746 19.1032 59.9056 18.2123 59.5685 17.3797C59.2315 16.547 58.7329 15.789 58.1017 15.149C57.4705 14.509 56.7191 13.9997 55.8902 13.6502C55.0613 13.3007 54.1715 13.1179 53.2717 13.1123H8.54653C7.64675 13.1179 6.75686 13.3007 5.928 13.6502C5.09915 13.9997 4.34768 14.509 3.71648 15.149C3.08527 15.789 2.58687 16.547 2.24982 17.3797C1.91277 18.2123 1.74363 19.1032 1.75227 20.0011V38.9987C1.744 39.8965 1.9133 40.787 2.25052 41.6193C2.58774 42.4516 3.08628 43.2093 3.71745 43.849C4.34862 44.4887 5.10003 44.9978 5.9287 45.3471C6.75737 45.6964 7.64699 45.8791 8.54653 45.8847H53.2717C54.1712 45.8791 55.0608 45.6964 55.8895 45.3471C56.7182 44.9978 57.4696 44.4887 58.1007 43.849C58.7319 43.2093 59.2305 42.4516 59.5677 41.6193C59.9049 40.787 60.0742 39.8965 60.0659 38.9987Z" fill="#FCB6BD"/>
<path d="M30.4589 38.507C35.5659 38.507 39.7059 34.3828 39.7059 29.2954C39.7059 24.2079 35.5659 20.0837 30.4589 20.0837C25.3519 20.0837 21.2119 24.2079 21.2119 29.2954C21.2119 34.3828 25.3519 38.507 30.4589 38.507Z" fill="white"/>
<path d="M53.2738 46.7776H8.53433C7.52617 46.7751 6.52852 46.5727 5.59936 46.1823C4.6702 45.7918 3.82805 45.2211 3.12174 44.5032C1.67944 43.0353 0.873211 41.0604 0.876966 39.0046V20.0098C0.873211 17.954 1.67944 15.9791 3.12174 14.5113C3.82795 13.7932 4.67018 13.2223 5.59936 12.8319C6.52854 12.4414 7.52615 12.2392 8.53433 12.2368H53.2738C54.282 12.2393 55.2795 12.4416 56.2086 12.8321C57.1378 13.2225 57.9801 13.7933 58.6864 14.5113C60.1274 15.98 60.9334 17.9543 60.9312 20.0098V39.0046C60.9334 41.0601 60.1274 43.0345 58.6864 44.5032C57.98 45.221 57.1378 45.7916 56.2086 46.1821C55.2795 46.5725 54.2819 46.775 53.2738 46.7776ZM8.53433 14.0052C7.75521 14.0051 6.98387 14.1599 6.26536 14.4606C5.54685 14.7613 4.89559 15.2019 4.34956 15.7565C3.23721 16.8891 2.61518 18.4125 2.6175 19.9984V38.9932C2.61518 40.5791 3.23721 42.1025 4.34956 43.2351C4.89478 43.7904 5.5454 44.2319 6.26341 44.5336C6.98143 44.8352 7.7525 44.9911 8.53155 44.9922H53.2709C54.0504 44.9912 54.8218 44.8353 55.5403 44.5336C56.2588 44.232 56.9099 43.7905 57.4557 43.2351C58.568 42.1025 59.19 40.5791 59.1877 38.9932V19.9984C59.19 18.4125 58.568 16.8891 57.4557 15.7565C56.9099 15.2011 56.2588 14.7597 55.5403 14.458C54.8218 14.1563 54.0504 14.0005 53.2709 13.9995L8.53433 14.0052Z" fill="#EC101B"/>
<path d="M14.751 32.5762H9.71165C9.3119 32.5767 8.91611 32.4972 8.54768 32.3424C8.17924 32.1876 7.84568 31.9606 7.56662 31.675C7.28374 31.3887 7.06012 31.0496 6.90854 30.6771C6.6021 29.9231 6.6021 29.0797 6.90854 28.3258C7.21392 27.5762 7.80376 26.9774 8.54948 26.6598C8.91763 26.506 9.31258 26.4268 9.71165 26.4266H14.751C15.3538 26.4307 15.9418 26.6134 16.4404 26.9515C16.939 27.2897 17.3256 27.768 17.5514 28.3258C17.8578 29.0797 17.8578 29.9231 17.5514 30.6771C17.3282 31.2366 16.9422 31.7166 16.443 32.0552C15.9439 32.3937 15.3545 32.5752 14.751 32.5762ZM9.71165 28.2036C9.4571 28.205 9.20876 28.2819 8.99822 28.4247C8.78767 28.5675 8.62448 28.7697 8.52945 29.0053C8.40037 29.3235 8.40037 29.6794 8.52945 29.9976C8.594 30.1561 8.69104 30.2994 8.81433 30.4184C8.93259 30.5385 9.07362 30.6339 9.22912 30.6993C9.38462 30.7647 9.55154 30.7987 9.72028 30.7993H14.7597C14.928 30.799 15.0945 30.7652 15.2496 30.6998C15.4053 30.6342 15.5459 30.5374 15.6627 30.4155C15.7849 30.2957 15.8817 30.1526 15.9476 29.9947C16.0767 29.6765 16.0767 29.3207 15.9476 29.0025C15.881 28.845 15.7842 28.7021 15.6627 28.5817C15.5459 28.4598 15.4053 28.3631 15.2496 28.2974C15.0945 28.232 14.928 28.1982 14.7597 28.1979L9.71165 28.2036Z" fill="#EC101B"/>
<path d="M51.4283 32.3886H46.3747C45.9762 32.3889 45.5819 32.3086 45.2153 32.1526C44.8461 31.9977 44.5112 31.7717 44.2297 31.4874C43.664 30.9041 43.3477 30.1241 43.3477 29.3124C43.3477 28.5006 43.664 27.7207 44.2297 27.1374C44.5112 26.8531 44.8461 26.627 45.2153 26.4721C45.5825 26.3184 45.9766 26.2392 46.3747 26.239H51.4283C51.8273 26.2392 52.2222 26.3187 52.59 26.473C52.9579 26.6273 53.2912 26.8531 53.5706 27.1374C54.1409 27.7183 54.4604 28.4991 54.4604 29.3124C54.4604 30.1256 54.1409 30.9065 53.5706 31.4874C53.2905 31.7722 52.9565 31.9983 52.5878 32.1526C52.2213 32.3086 51.8268 32.3889 51.4283 32.3886ZM46.3747 28.016C46.2067 28.0167 46.0403 28.0494 45.8847 28.1126C45.7296 28.1793 45.5893 28.2759 45.4717 28.3969C45.3508 28.5178 45.2541 28.6606 45.1868 28.8177C45.0576 29.1368 45.0576 29.4936 45.1868 29.8127C45.2541 29.9698 45.3508 30.1126 45.4717 30.2335C45.5893 30.3545 45.7296 30.4511 45.8847 30.5178C46.0399 30.5823 46.2066 30.6152 46.3747 30.6145H51.4283C51.5964 30.6152 51.7631 30.5823 51.9183 30.5178C52.0734 30.4511 52.2138 30.3545 52.3315 30.2335C52.4524 30.1126 52.5491 29.9698 52.6163 29.8127C52.7456 29.4936 52.7456 29.1368 52.6163 28.8177C52.5491 28.6606 52.4524 28.5178 52.3315 28.3969C52.2138 28.2759 52.0734 28.1793 51.9183 28.1126C51.7627 28.0494 51.5963 28.0167 51.4283 28.016H46.3747Z" fill="#EC101B"/>
<path d="M30.4732 40.1275C28.3473 40.1269 26.2706 39.488 24.5135 38.2937C22.7431 37.0907 21.3686 35.3924 20.5624 33.4121C19.7502 31.4253 19.5375 29.2449 19.9505 27.1391C20.3635 25.0333 21.3841 23.0937 22.8869 21.5592C24.3798 20.0432 26.2924 19.0067 28.3793 18.5824C30.461 18.161 32.6216 18.3771 34.5781 19.2023C36.5456 20.0313 38.2214 21.4257 39.3924 23.2082C40.7711 25.3061 41.39 27.8112 41.1465 30.3082C40.903 32.8053 39.8117 35.1443 38.0536 36.9375C37.065 37.9441 35.8857 38.7445 34.5844 39.2922C33.283 39.8398 31.8855 40.1237 30.4732 40.1275ZM30.4732 20.3793C28.7396 20.3804 27.0464 20.9015 25.6132 21.8748C24.1694 22.8554 23.0484 24.2402 22.3913 25.8551C21.7288 27.4753 21.5552 29.2534 21.8918 30.9707C22.2283 32.6881 23.0604 34.2699 24.2857 35.5217C25.5041 36.7578 27.0643 37.6032 28.7667 37.9497C30.464 38.2908 32.2249 38.1145 33.8204 37.4436C35.4249 36.7678 36.7914 35.6306 37.7459 34.1769C38.872 32.4662 39.3778 30.4225 39.1793 28.3853C38.9809 26.3481 38.09 24.44 36.6548 22.9779C35.8488 22.1567 34.8871 21.5039 33.8259 21.0572C32.7646 20.6106 31.6249 20.3792 30.4732 20.3765V20.3793Z" fill="#EC101B"/>
<path d="M34.6093 29.173V32.0019C34.6094 32.1083 34.5878 32.2137 34.5456 32.3114C34.5035 32.4092 34.4417 32.4973 34.3642 32.5705C34.2883 32.6473 34.1985 32.7091 34.0994 32.7525C33.9991 32.7935 33.8915 32.8138 33.7831 32.8122H31.3276V34.8023C31.3293 34.9105 31.3089 35.0179 31.2678 35.118C31.2273 35.2177 31.166 35.3078 31.0882 35.3823C31.0142 35.4575 30.9262 35.5173 30.8291 35.5586C30.7331 35.6007 30.6289 35.6212 30.5242 35.6183C30.415 35.6212 30.3064 35.6018 30.2051 35.5614C30.1038 35.5204 30.0118 35.4595 29.9345 35.3823C29.8582 35.3072 29.7981 35.2172 29.7579 35.118C29.7153 35.0183 29.6949 34.9106 29.6981 34.8023V32.815H27.2681C27.1636 32.8152 27.0599 32.795 26.9632 32.7553C26.7667 32.6663 26.6097 32.5085 26.5217 32.3118C26.482 32.2113 26.4617 32.1043 26.4619 31.9962C26.4612 31.8888 26.4825 31.7824 26.5245 31.6835C26.5635 31.5841 26.6223 31.4936 26.6971 31.4173C26.772 31.3411 26.8616 31.2808 26.9605 31.2399C27.0582 31.2003 27.1627 31.18 27.2681 31.1802H32.9656V30.0032H27.288C27.1817 30.0062 27.0759 29.9867 26.9776 29.9463C26.8786 29.9069 26.7891 29.8468 26.7154 29.7701C26.6391 29.6932 26.5782 29.6025 26.5359 29.5028C26.495 29.4018 26.4766 29.2932 26.4818 29.1844V26.364C26.4801 26.2568 26.5005 26.1503 26.5416 26.0513C26.5818 25.9519 26.6408 25.8611 26.7154 25.784C26.7917 25.7104 26.8805 25.6507 26.9776 25.6077C27.0761 25.5672 27.1815 25.5459 27.288 25.5452H29.7038V23.555C29.7007 23.4449 29.7211 23.3355 29.7636 23.2338C29.8054 23.1325 29.8673 23.0407 29.9457 22.964C30.024 22.8873 30.1171 22.8272 30.2194 22.7874C30.3215 22.7502 30.4298 22.7329 30.5385 22.7362C30.6433 22.7358 30.7471 22.7571 30.8433 22.7988C30.9397 22.8398 31.0269 22.8997 31.0996 22.975C31.1741 23.0517 31.234 23.1414 31.2763 23.2395C31.3163 23.3398 31.3357 23.4471 31.3333 23.555V25.5452H33.8088C33.9174 25.5447 34.0248 25.566 34.125 25.6077C34.2241 25.6511 34.314 25.7129 34.39 25.7897C34.4677 25.8639 34.5296 25.9528 34.5722 26.0513C34.6126 26.1507 34.6339 26.2568 34.6349 26.364C34.6325 26.5844 34.5448 26.7953 34.39 26.9525C34.2383 27.1044 34.0349 27.1938 33.8202 27.2027H28.1228V28.3684H33.8031C33.9109 28.3664 34.0178 28.3877 34.1165 28.431C34.2177 28.4721 34.3089 28.534 34.3843 28.6129C34.4617 28.6856 34.5228 28.7737 34.5637 28.8716C34.606 28.9694 34.6273 29.075 34.6263 29.1815L34.6093 29.173Z" fill="#EC101B"/>
</svg>
