<svg width="55" height="55" viewBox="0 0 55 55" fill="none" xmlns="http://www.w3.org/2000/svg">
<path d="M27.1309 43.9254C36.2593 43.9254 43.6593 36.54 43.6593 27.4297C43.6593 18.3194 36.2593 10.9341 27.1309 10.9341C18.0025 10.9341 10.6025 18.3194 10.6025 27.4297C10.6025 36.54 18.0025 43.9254 27.1309 43.9254Z" fill="#FCB6BD"/>
<path d="M27.1312 9.76566C23.0303 9.76116 19.0547 11.1762 15.8822 13.7697C12.7096 16.3631 10.5364 19.9743 9.73303 23.9878C8.92969 28.0013 9.54592 32.1687 11.4766 35.7795C13.4073 39.3904 16.533 42.2212 20.3209 43.7895C24.1088 45.3578 28.3245 45.5665 32.2493 44.38C36.1741 43.1935 39.5652 40.6852 41.8445 37.2827C44.1237 33.8803 45.15 29.7942 44.7486 25.7211C44.3471 21.6479 42.5426 17.8398 39.6428 14.9458C38.0036 13.3002 36.0539 11.9952 33.9064 11.1061C31.7589 10.2169 29.4562 9.76136 27.1312 9.76566ZM38.5916 38.8677C36.7062 40.7463 34.3859 42.132 31.8359 42.9022C29.286 43.6724 26.585 43.8034 23.9723 43.2835C21.3595 42.7636 18.9155 41.6088 16.8565 39.9215C14.7976 38.2341 13.1871 36.0662 12.1678 33.6096C11.1485 31.153 10.7518 28.4834 11.0127 25.8373C11.2736 23.1912 12.1841 20.65 13.6637 18.4388C15.1432 16.2276 17.1462 14.4146 19.4952 13.1602C21.8443 11.9057 24.467 11.2486 27.1312 11.2469C30.3383 11.2455 33.4736 12.1937 36.1404 13.9716C38.8073 15.7495 40.8856 18.2771 42.1124 21.2344C43.3391 24.1917 43.659 27.4458 43.0318 30.5847C42.4046 33.7236 40.8583 36.6062 38.5887 38.8677H38.5916Z" fill="#EC101B"/>
<path d="M22.9093 27.2563C22.9093 25.1239 21.2685 23.6342 18.9696 23.6342H16.041V30.9097H18.9696C21.2685 30.9125 22.9093 29.4227 22.9093 27.2563ZM17.8557 25.2661H18.9696C19.2399 25.2543 19.5097 25.2968 19.7631 25.3912C20.0166 25.4857 20.2486 25.63 20.445 25.8157C20.6414 26.0014 20.7983 26.2246 20.9065 26.4721C21.0147 26.7196 21.0719 26.9863 21.0747 27.2563C21.0778 27.5289 21.0234 27.7991 20.9152 28.0495C20.8099 28.3011 20.6548 28.5288 20.4589 28.7188C20.2631 28.9089 20.0306 29.0574 19.7757 29.1554C19.5199 29.2547 19.2465 29.3001 18.9724 29.289H17.8585L17.8557 25.2661Z" fill="#EC101B"/>
<path d="M27.7183 31.0603C28.4641 31.0446 29.1885 30.8096 29.801 30.3847C30.4135 29.9598 30.8867 29.364 31.1613 28.6718C31.4358 27.9796 31.4995 27.2219 31.3444 26.4937C31.1894 25.7655 30.8224 25.0993 30.2895 24.5784C29.7566 24.0575 29.0815 23.7051 28.3488 23.5656C27.6161 23.426 26.8584 23.5054 26.1707 23.7938C25.483 24.0822 24.8959 24.5668 24.483 25.1868C24.0701 25.8068 23.8499 26.5346 23.8497 27.279C23.8464 27.7833 23.9449 28.2829 24.1392 28.7484C24.3334 29.2139 24.6196 29.6356 24.9806 29.9884C25.3415 30.3412 25.7699 30.6179 26.2402 30.8021C26.7106 30.9862 27.2132 31.074 27.7183 31.0603ZM27.7183 25.1893C27.9903 25.1891 28.2595 25.2432 28.5102 25.3486C28.7604 25.4558 28.987 25.6113 29.1767 25.8063C29.4488 26.1106 29.6328 26.483 29.7091 26.8837C29.7853 27.2843 29.751 27.6981 29.6098 28.0807C29.5117 28.3338 29.3639 28.5647 29.1748 28.7597C28.9857 28.9547 28.7593 29.1098 28.5091 29.2159C28.2588 29.3219 27.9898 29.3768 27.7179 29.3771C27.446 29.3775 27.1768 29.3234 26.9263 29.218C26.6763 29.113 26.4504 28.9582 26.2625 28.7631C26.0719 28.569 25.9235 28.3376 25.8267 28.0836C25.6731 27.7029 25.6323 27.2862 25.709 26.883C25.7858 26.4799 25.977 26.1071 26.2597 25.8091C26.4487 25.6133 26.6754 25.4576 26.9263 25.3514C27.177 25.2464 27.4463 25.1922 27.7183 25.1922V25.1893Z" fill="#EC101B"/>
<path d="M34.093 30.921H35.8963V25.2661H38.2237V23.6484H31.7656V25.2661H34.093V30.921Z" fill="#EC101B"/>
<path d="M27.1338 0.411761C20.8619 0.404633 14.7817 2.56854 9.92965 6.5347C5.07755 10.5009 1.7539 16.0237 0.525207 22.1618C-0.703484 28.2999 0.238968 34.6734 3.19172 40.1957C6.14448 45.718 10.9248 50.0473 16.7179 52.4458C22.5111 54.8442 28.9584 55.1632 34.9608 53.3484C40.9633 51.5336 46.1493 47.6974 49.6349 42.4937C53.1204 37.2899 54.6898 31.0408 54.0754 24.8115C53.4611 18.5822 50.7011 12.7583 46.2659 8.3326C41.1915 3.26738 34.3106 0.418671 27.1338 0.411761ZM1.69739 28.8428H5.5461L6.81371 27.5775C6.89711 27.4958 6.96477 27.3994 7.01317 27.2932C7.05848 27.1822 7.08177 27.0634 7.08161 26.9435C7.08206 26.8245 7.05876 26.7066 7.01317 26.5967C6.96601 26.4856 6.89831 26.3843 6.81371 26.2981C6.73169 26.2158 6.63511 26.1493 6.52883 26.102C6.418 26.0551 6.29884 26.0309 6.17844 26.0309C6.05805 26.0309 5.93889 26.0551 5.82806 26.102C5.72178 26.1493 5.6252 26.2158 5.54318 26.2981L4.81111 27.0317H1.6775C1.77371 20.9207 4.0794 15.0503 8.16978 10.5019L10.8761 13.2086H12.6707C12.8514 13.2088 13.0281 13.1555 13.1783 13.0554C13.3285 12.9552 13.4456 12.8127 13.5146 12.6461C13.5836 12.4795 13.6014 12.2962 13.5658 12.1194C13.5302 11.9427 13.4428 11.7805 13.3146 11.6534C13.2302 11.5687 13.1299 11.5015 13.0194 11.4556C12.909 11.4098 12.7904 11.3861 12.6707 11.3861H11.6339L9.43738 9.19691C13.8292 4.93637 19.6167 2.40477 25.7322 2.06924V5.89889L26.9999 7.16412C27.0811 7.2482 27.1779 7.31577 27.2848 7.36312C27.5095 7.45416 27.7609 7.45416 27.9856 7.36312C28.0925 7.31577 28.1893 7.2482 28.2705 7.16412C28.356 7.07984 28.4238 6.97927 28.4698 6.86843C28.5158 6.75758 28.539 6.6387 28.5382 6.51873C28.5384 6.39976 28.5151 6.28193 28.4698 6.17188C28.422 6.06533 28.3544 5.96883 28.2705 5.88757L27.5383 5.15403V2.02662C33.6657 2.11284 39.555 4.40932 44.1179 8.49183L41.4116 11.1899V12.9811C41.4116 13.2231 41.5081 13.4553 41.6796 13.6264C41.851 13.7976 42.0836 13.8937 42.3261 13.8937C42.5686 13.8937 42.8013 13.7976 42.9728 13.6264C43.1442 13.4553 43.2405 13.2231 43.2405 12.9811V11.9462L45.4341 9.75699C49.7024 14.1405 52.2389 19.9163 52.5758 26.0195H48.7414L47.4709 27.2847C47.3861 27.3692 47.3188 27.4696 47.2728 27.5801C47.2269 27.6906 47.2033 27.809 47.2033 27.9287C47.2033 28.0483 47.2269 28.1668 47.2728 28.2773C47.3188 28.3878 47.3861 28.4881 47.4709 28.5726C47.5558 28.6574 47.6567 28.7246 47.7676 28.7705C47.8786 28.8164 47.9975 28.84 48.1176 28.84C48.2377 28.84 48.3566 28.8164 48.4676 28.7705C48.5785 28.7246 48.6793 28.6574 48.7643 28.5726L49.4963 27.842H52.6043C52.5102 33.9533 50.2042 39.8244 46.1121 44.3717L43.4172 41.6736H41.6196C41.4998 41.673 41.3812 41.6964 41.2706 41.7423C41.16 41.7882 41.0599 41.8557 40.9759 41.9409C40.8491 42.0685 40.7628 42.2306 40.728 42.4069C40.6932 42.5832 40.7113 42.7658 40.78 42.9319C40.8488 43.098 40.9652 43.2401 41.1145 43.3405C41.2639 43.4408 41.4396 43.495 41.6196 43.4961H42.6566L44.8529 45.6853C40.4612 49.9458 34.6736 52.4773 28.5581 52.8129V48.9804L27.2905 47.7124C27.2092 47.6292 27.1125 47.5625 27.0056 47.5162C26.8948 47.4693 26.7757 47.4451 26.6553 47.4451C26.5349 47.4451 26.4157 47.4693 26.3049 47.5162C26.1981 47.5625 26.1013 47.6292 26.02 47.7124C25.9366 47.7941 25.8689 47.8905 25.8205 47.9967C25.7293 48.2209 25.7293 48.4718 25.8205 48.6961C25.8689 48.8023 25.9366 48.8986 26.02 48.9804L26.7521 49.7111V52.8385C20.6298 52.7425 14.7487 50.4414 10.1924 46.3591L12.8873 43.6524V41.8613C12.8873 41.6198 12.7914 41.388 12.6205 41.217C12.4496 41.0459 12.2177 40.9494 11.9756 40.9486C11.7331 40.9486 11.5006 41.0448 11.3291 41.2159C11.1576 41.3871 11.0612 41.6193 11.0612 41.8613V42.8962L8.86763 45.0854C4.60247 40.7002 2.06829 34.925 1.73161 28.8228L1.69739 28.8428Z" fill="#EC101B"/>
</svg>
