<svg width="59" height="58" viewBox="0 0 59 58" fill="none" xmlns="http://www.w3.org/2000/svg">
<path d="M37.8448 43.5436L38.2612 51.9886L29.719 46.0523L21.1289 51.9942L21.5456 43.5436H17.938L17.3162 56.155H21.4478L29.7142 50.4371L37.9424 56.155H42.0742L41.4524 43.5436H37.8448ZM47.645 17.7481L47.3979 12.3371L42.8358 9.41765L39.9159 4.85514L34.5048 4.60741L29.6952 2.11655L24.8856 4.60798L19.4746 4.8557L16.5546 9.41765L11.9925 12.3371L11.7454 17.7481L9.25391 22.5577L11.7454 27.3675L11.9932 32.7784L16.5546 35.6978L19.4741 40.2604L24.8852 40.5076L29.6952 42.999L34.5048 40.5076L39.9159 40.2604L42.8354 35.6978L47.3978 32.7788L47.645 27.368L50.1365 22.5582L47.645 17.7481ZM44.0816 26.4127L43.883 30.7494L40.2263 33.0893L37.8864 36.746L33.5496 36.9442L29.6952 38.941L25.8404 36.9442L21.5035 36.746L19.1637 33.0893L15.5074 30.7494L15.3093 26.4127L13.3116 22.5577L15.3088 18.7036L15.5074 14.3662L19.1637 12.0263L21.5035 8.36967L25.8404 8.17149L29.6952 6.17461L33.55 8.17138L37.8869 8.36955L40.2267 12.0262L43.883 14.3662L44.0811 18.703L46.0788 22.5577L44.0816 26.4127Z" fill="#F6B100"/>
</svg>
