<svg width="56" height="60" viewBox="0 0 56 60" fill="none" xmlns="http://www.w3.org/2000/svg">
<path d="M27.6195 48.3046C30.8208 48.3111 33.9522 47.3666 36.6171 45.5905C39.282 43.8145 41.3608 41.2869 42.5903 38.3275C43.8197 35.3681 44.1446 32.1101 43.5238 28.9658C42.903 25.8215 41.3644 22.9322 39.1028 20.6637C36.8412 18.3953 33.9582 16.8495 30.8187 16.2222C27.6793 15.5949 24.4247 15.9142 21.4666 17.1396C18.5084 18.3651 15.9799 20.4416 14.201 23.1065C12.4222 25.7713 11.4731 28.9046 11.4736 32.1098C11.4717 34.2346 11.8878 36.3389 12.6981 38.3027C13.5085 40.2665 14.6972 42.0512 16.1965 43.5551C17.6957 45.0589 19.4762 46.2524 21.4362 47.0673C23.3961 47.8822 25.4972 48.3026 27.6195 48.3046Z" fill="#FCB6BD"/>
<path d="M54.6009 23.8796C52.8867 18.153 49.3753 13.1318 44.5871 9.55995C39.7989 5.98814 33.9887 4.05582 28.0176 4.0494H27.9461C23.9145 4.06209 19.9339 4.9517 16.2795 6.65667L15.7259 6.91296L18.2141 1.53452C18.2649 1.42476 18.2935 1.30606 18.2985 1.18519C18.3035 1.06431 18.2847 0.943616 18.2431 0.830033C18.2015 0.71645 18.1379 0.612185 18.0561 0.523184C17.9743 0.434182 17.8757 0.362212 17.766 0.311343C17.6564 0.260473 17.5378 0.231731 17.4171 0.226738C17.2964 0.221744 17.1758 0.240601 17.0624 0.282244C16.9489 0.323886 16.8448 0.387484 16.7559 0.469423C16.667 0.551362 16.5951 0.649998 16.5443 0.759758L12.9194 8.59947C12.8685 8.71007 12.8392 8.82948 12.8331 8.95113C12.8264 9.07273 12.8446 9.19439 12.8866 9.30868C12.9297 9.41896 12.9935 9.52007 13.0742 9.60666C13.1584 9.69619 13.2596 9.76809 13.3718 9.8182L21.1903 13.4535C21.3454 13.5259 21.5175 13.5534 21.6874 13.5328C21.8573 13.5123 22.0181 13.4446 22.1516 13.3373C22.3136 13.2053 22.4266 13.0228 22.4729 12.8188C22.5153 12.6174 22.4891 12.4076 22.3985 12.2229C22.3057 12.0352 22.1527 11.884 21.9639 11.7937L15.8331 8.94516L16.2407 8.73652C21.6749 5.96265 27.9113 5.19356 33.8553 6.56414C39.7994 7.93471 45.0715 11.3574 48.7463 16.2316C52.4212 21.1058 54.264 27.1201 53.9515 33.219C53.6389 39.318 51.1909 45.1118 47.0371 49.5839C42.8832 54.056 37.289 56.9205 31.2361 57.6748C25.1831 58.4291 19.0581 57.025 13.9361 53.7089C8.81403 50.3928 5.02218 45.3765 3.22585 39.5404C1.42953 33.7043 1.74349 27.4212 4.11275 21.7938C4.16005 21.6826 4.18442 21.563 4.18425 21.4422C4.18577 21.3205 4.16248 21.1999 4.11581 21.0876C4.07101 20.9761 4.00415 20.8747 3.91933 20.7896C3.83432 20.7032 3.7332 20.6343 3.62171 20.5869C3.51068 20.5396 3.39116 20.5153 3.27047 20.5154C3.14915 20.5157 3.029 20.5389 2.91632 20.584C2.8043 20.6298 2.70248 20.6974 2.61667 20.7828C2.53085 20.8682 2.46283 20.9697 2.41641 21.0816C0.675931 25.1989 -0.049316 29.6749 0.302124 34.1319C0.653564 38.5888 2.07131 42.8956 4.43551 46.6884C6.79972 50.4812 10.041 53.6486 13.8855 55.923C17.73 58.1973 22.0647 59.5119 26.5236 59.7557C27.0057 59.7825 27.4907 59.7944 27.9729 59.7944C32.3137 59.7933 36.5943 58.7756 40.4721 56.8226C44.35 54.8697 47.7178 52.0356 50.3064 48.5469C52.895 45.0582 54.6327 41.0116 55.3804 36.7306C56.1282 32.4495 55.8653 28.0527 54.6128 23.8915L54.6009 23.8796Z" fill="#EC101B"/>
<path d="M28.4252 40.8373V37.5387H32.2675C32.3914 37.5392 32.5141 37.5138 32.6276 37.4643C32.8547 37.3593 33.0356 37.1749 33.1365 36.9458C33.1839 36.8294 33.2082 36.7049 33.208 36.5793V32.3063C33.2082 32.1807 33.1839 32.0562 33.1365 31.9398C33.0356 31.7107 32.8547 31.5263 32.6276 31.4213C32.5141 31.3718 32.3914 31.3464 32.2675 31.3468H23.7318V29.0137H32.2973C32.5441 29.0026 32.7769 28.8958 32.9462 28.7157C33.1173 28.5268 33.2146 28.2824 33.22 28.0274C33.2207 27.9017 33.1964 27.7771 33.1485 27.6609C33.102 27.5481 33.032 27.4465 32.9431 27.3629C32.8601 27.2705 32.7587 27.1964 32.6455 27.1454C32.5333 27.0952 32.4112 27.0708 32.2883 27.0739H28.4193V23.7962C28.422 23.6706 28.4002 23.5457 28.3547 23.4286C28.3093 23.3116 28.2412 23.2045 28.1545 23.1138C28.0767 23.0263 27.9814 22.9562 27.8747 22.9082C27.7699 22.8612 27.6563 22.8368 27.5414 22.8367C27.4159 22.8277 27.29 22.846 27.1722 22.8903C27.0548 22.9374 26.9484 23.0085 26.8598 23.0989C26.7686 23.1915 26.6976 23.3021 26.6514 23.4237C26.6045 23.5462 26.5823 23.6769 26.586 23.8081V27.0858H22.8033C22.6807 27.0832 22.559 27.1065 22.4461 27.1543C22.3341 27.2034 22.2329 27.2743 22.1485 27.3629C22.0626 27.4557 21.995 27.5639 21.9491 27.6818C21.905 27.802 21.8827 27.9291 21.8835 28.0572V32.3063C21.8804 32.4324 21.9022 32.5578 21.9476 32.6754C21.9931 32.793 22.0614 32.9006 22.1485 32.9917C22.2318 33.0808 22.3333 33.1509 22.4461 33.1972C22.5558 33.245 22.6746 33.2684 22.7943 33.2658H31.333V35.584H22.7675C22.6451 35.5828 22.5236 35.6061 22.4103 35.6525C22.2959 35.7031 22.1926 35.7761 22.1068 35.8672C22.0209 35.9582 21.9542 36.0656 21.9104 36.183C21.8649 36.3028 21.8427 36.4302 21.8449 36.5584C21.8425 36.6849 21.8658 36.8106 21.9133 36.9279C21.9599 37.0399 22.0288 37.1413 22.1158 37.2259C22.1983 37.3173 22.2999 37.3895 22.4134 37.4374C22.5235 37.4844 22.6419 37.5087 22.7616 37.5089H26.5741V40.8344C26.5716 40.9606 26.5937 41.0861 26.6395 41.2038C26.6869 41.3161 26.7569 41.4175 26.845 41.5018C26.9288 41.5926 27.03 41.6656 27.1426 41.7163C27.2566 41.7639 27.3792 41.7872 27.5027 41.7849C27.6226 41.7865 27.7413 41.7621 27.8509 41.7134C27.9644 41.6655 28.066 41.5933 28.1485 41.5018C28.2428 41.4198 28.3179 41.3181 28.3687 41.2038C28.4211 41.0837 28.4465 40.9535 28.4431 40.8224L28.4252 40.8373Z" fill="#EC101B"/>
<path d="M34.1483 16.2873C32.082 15.4258 29.8659 14.9823 27.6276 14.9822C23.092 14.9822 18.7423 16.786 15.5352 19.997C12.3281 23.2079 10.5264 27.5628 10.5264 32.1037C10.5264 36.6447 12.3281 40.9996 15.5352 44.2105C18.7423 47.4214 23.092 49.2253 27.6276 49.2253C31.5801 49.2175 35.4079 47.8394 38.4603 45.3252C41.5126 42.8111 43.6012 39.3162 44.3707 35.4346C45.1402 31.5531 44.5431 27.5245 42.6812 24.0339C40.8192 20.5432 37.8073 17.8058 34.1573 16.2873H34.1483ZM41.687 37.9499C40.339 41.2101 37.9033 43.9012 34.795 45.5643C31.6867 47.2273 28.0984 47.7593 24.6421 47.0696C21.1858 46.3798 18.0755 44.511 15.8417 41.7818C13.6078 39.0527 12.3888 35.6322 12.3924 32.1037C12.3925 29.8487 12.8921 27.6218 13.8554 25.5835C14.8187 23.5451 16.2216 21.746 17.9629 20.3159C19.7043 18.8857 21.7408 17.86 23.9258 17.3128C26.1108 16.7656 28.3898 16.7104 30.5987 17.1512C32.8075 17.592 34.8912 18.5179 36.6996 19.8621C38.508 21.2063 39.996 22.9353 41.0566 24.9247C42.1172 26.914 42.7239 29.1141 42.8329 31.3664C42.9419 33.6188 42.5505 35.8673 41.687 37.9499Z" fill="#EC101B"/>
</svg>
