<svg width="85" height="85" viewBox="0 0 85 85" fill="none" xmlns="http://www.w3.org/2000/svg">
<path d="M67.4084 39.097C67.4084 35.5581 64.5436 33.7043 60.6676 33.7043H49.3766C50.2192 30.671 50.5563 27.8061 50.5563 25.2783C50.5563 15.504 47.8599 13.4817 45.5006 13.4817C43.9839 13.4817 42.8043 13.6503 41.2876 14.4929C40.782 14.8299 40.6135 15.167 40.445 15.6725L38.7597 24.7727C36.906 29.4913 32.3559 33.7043 28.6484 36.5692V60.6678C29.9966 60.6678 31.3448 61.3419 33.03 62.1845C34.8837 63.0271 36.7375 64.0383 38.7597 64.0383H54.7693C58.1397 64.0383 60.6676 61.3419 60.6676 58.9826C60.6676 58.477 60.6676 58.14 60.4991 57.803C62.5213 56.9603 64.038 55.2751 64.038 53.0843C64.038 52.0732 63.8695 51.2306 63.5324 50.388C64.8806 49.5454 66.0603 48.0287 66.0603 46.3435C66.0603 45.3323 65.5547 44.3212 65.0491 43.4786C66.3973 42.4675 67.4084 40.7823 67.4084 39.097ZM63.8695 39.097C63.8695 41.2878 61.6787 41.4563 61.3417 42.4675C61.0046 43.6471 62.6898 43.9842 62.6898 46.0064C62.6898 48.0287 60.162 48.0287 59.825 49.2083C59.4879 50.5565 60.6676 50.8936 60.6676 52.9158V53.2529C60.3305 54.9381 57.8027 55.1066 57.2971 55.7807C56.7916 56.6233 57.2971 56.9603 57.2971 58.8141C57.2971 59.8252 56.1175 60.4993 54.7693 60.4993H38.7597C37.4116 60.4993 36.0634 59.8252 34.3782 58.9826C33.03 58.3085 31.6818 57.6344 30.3337 57.2974V39.6026C34.5467 36.4007 39.9394 31.6821 41.9617 25.7838V25.4468L43.4784 17.0207C44.1524 16.8522 44.658 16.8522 45.5006 16.8522C45.8377 16.8522 47.1858 18.8744 47.1858 25.2783C47.1858 27.8061 46.6803 30.5024 45.8377 33.7043H45.5006C44.4895 33.7043 43.8154 34.3784 43.8154 35.3896C43.8154 36.4007 44.4895 37.0748 45.5006 37.0748H60.6676C62.3528 37.0748 63.8695 37.9174 63.8695 39.097Z" fill="#F6B100"/>
<path d="M26.9632 64.0383H16.8519C14.9981 64.0383 13.4814 62.5216 13.4814 60.6678V37.0748C13.4814 35.221 14.9981 33.7043 16.8519 33.7043H26.9632C28.8169 33.7043 30.3336 35.221 30.3336 37.0748V60.6678C30.3336 62.5216 28.8169 64.0383 26.9632 64.0383ZM16.8519 37.0748V60.6678H26.9632V37.0748H16.8519Z" fill="#F6B100"/>
</svg>
