<svg width="58" height="52" viewBox="0 0 58 52" fill="none" xmlns="http://www.w3.org/2000/svg">
<path d="M48.0585 11.382H9.34993C8.29048 11.382 7.24131 11.5902 6.26251 11.9949C5.2837 12.3995 4.39438 12.9926 3.64523 13.7402C2.89608 14.4879 2.30178 15.3755 1.89635 16.3524C1.49091 17.3293 1.28223 18.3763 1.28223 19.4336V42.9944C1.28223 44.8749 2.03074 46.6785 3.36314 48.0083C4.69554 49.338 6.50266 50.0851 8.38696 50.0851H48.0585C48.6067 50.0862 49.1497 49.9795 49.6565 49.771C50.1633 49.5625 50.6239 49.2563 51.012 48.87C51.4001 48.4837 51.7082 48.0248 51.9185 47.5196C52.1288 47.0144 52.2372 46.4727 52.2376 45.9256V15.5443C52.2376 14.997 52.1295 14.455 51.9193 13.9494C51.7092 13.4439 51.4013 12.9847 51.0131 12.5981C50.6249 12.2114 50.1642 11.905 49.6572 11.6963C49.1502 11.4877 48.6069 11.3808 48.0585 11.382ZM34.7122 21.7621C34.7122 22.6903 34.3427 23.5806 33.6851 24.2369C33.0274 24.8933 32.1354 25.262 31.2054 25.262H26.9323C26.0019 25.262 25.1097 24.8933 24.4516 24.2371C23.7935 23.5808 23.4234 22.6906 23.4227 21.7621V12.343H34.7179L34.7122 21.7621Z" fill="#FCB6BD"/>
<path d="M49.024 51.0802H8.45788C6.21589 51.0779 4.06641 50.1882 2.48082 48.6063C0.895229 47.0243 0.00301634 44.8793 0 42.6418V18.828C0.00301479 16.5902 0.895171 14.4449 2.48068 12.8625C4.06619 11.2802 6.21563 10.3898 8.45788 10.3868H49.024C51.2662 10.3898 53.4157 11.2802 55.0012 12.8625C56.5867 14.4449 57.4788 16.5902 57.4819 18.828V42.6418C57.4788 44.8793 56.5866 47.0243 55.001 48.6063C53.4154 50.1882 51.266 51.0779 49.024 51.0802ZM8.45788 12.377C6.74427 12.3793 5.10159 13.0597 3.88989 14.269C2.67818 15.4783 1.99638 17.1178 1.99411 18.828V42.6418C1.99638 44.3517 2.67824 45.991 3.89003 47.1998C5.10181 48.4087 6.74453 49.0885 8.45788 49.09H49.024C50.7373 49.0885 52.38 48.4087 53.5918 47.1998C54.8036 45.991 55.4855 44.3517 55.4877 42.6418V18.828C55.4855 17.1178 54.8037 15.4783 53.592 14.269C52.3803 13.0597 50.7376 12.3793 49.024 12.377H8.45788Z" fill="#EC101B"/>
<path d="M52.1575 13.1902L41.6171 3.87048C40.2353 2.66916 38.4644 2.00765 36.6318 2.00824H20.8726C19.0379 2.00835 17.2651 2.67081 15.8816 3.87333L5.34124 13.1902L4.01953 11.7004L14.5599 2.37785C16.3073 0.856172 18.5478 0.0178374 20.8668 0.0180666H36.6261C38.943 0.0176512 41.1815 0.854968 42.9274 2.37501L53.4821 11.7004L52.1575 13.1902Z" fill="#EC101B"/>
<path d="M31.4416 26.7347H26.2399C25.1066 26.7347 24.0196 26.2854 23.2183 25.4856C22.4169 24.6858 21.9668 23.6011 21.9668 22.47V11.0976L25.4593 0.694785C25.5008 0.570829 25.5665 0.456244 25.6523 0.357584C25.7382 0.258923 25.8427 0.178055 25.9599 0.11971C26.0771 0.0613647 26.2047 0.0266836 26.3353 0.0175362C26.466 0.00838872 26.5971 0.0249589 26.7213 0.066402C26.8455 0.107845 26.9603 0.173295 27.0592 0.259019C27.158 0.344743 27.239 0.449072 27.2975 0.566027C27.3559 0.682981 27.3907 0.810331 27.3998 0.94071C27.409 1.07109 27.3924 1.20199 27.3509 1.32594L23.9609 11.4218V22.4672C23.9609 23.0704 24.2009 23.649 24.6283 24.0755C25.0557 24.5021 25.6355 24.7417 26.2399 24.7417H31.4416C32.046 24.7417 32.6257 24.5021 33.0531 24.0755C33.4805 23.649 33.7206 23.0704 33.7206 22.4672V11.4388L30.0173 1.35433C29.972 1.23169 29.9514 1.10137 29.9566 0.970766C29.9618 0.840164 29.9927 0.711837 30.0476 0.593167C30.1025 0.474496 30.1803 0.367822 30.2765 0.279149C30.3728 0.190475 30.4855 0.121574 30.6084 0.0763972C30.7313 0.0312205 30.8619 0.0106029 30.9928 0.0158009C31.1236 0.0209989 31.2522 0.0518794 31.3711 0.106661C31.49 0.161442 31.5969 0.23907 31.6857 0.335094C31.7746 0.431119 31.8436 0.543677 31.8888 0.666326L35.7261 11.0834V22.4558C35.728 23.018 35.6185 23.575 35.4038 24.0948C35.1892 24.6146 34.8738 25.087 34.4756 25.4847C34.0774 25.8823 33.6044 26.1975 33.0837 26.412C32.563 26.6265 32.0049 26.7362 31.4416 26.7347Z" fill="#EC101B"/>
<path d="M17.1497 39.3864H7.70897C7.44454 39.3864 7.19101 39.2816 7.00402 39.095C6.81704 38.9083 6.71191 38.6552 6.71191 38.3913C6.71191 38.1274 6.81704 37.8743 7.00402 37.6877C7.19101 37.5011 7.44454 37.3962 7.70897 37.3962H17.1497C17.4142 37.3962 17.6677 37.5011 17.8547 37.6877C18.0417 37.8743 18.1468 38.1274 18.1468 38.3913C18.1468 38.6552 18.0417 38.9083 17.8547 39.095C17.6677 39.2816 17.4142 39.3864 17.1497 39.3864Z" fill="#EC101B"/>
<path d="M21.3544 44.2197H7.70897C7.44454 44.2197 7.19101 44.1148 7.00402 43.9282C6.81704 43.7416 6.71191 43.4885 6.71191 43.2246C6.71191 42.9607 6.81704 42.7076 7.00402 42.521C7.19101 42.3343 7.44454 42.2295 7.70897 42.2295H21.3544C21.6188 42.2295 21.8725 42.3343 22.0595 42.521C22.2465 42.7076 22.3514 42.9607 22.3514 43.2246C22.3514 43.4885 22.2465 43.7416 22.0595 43.9282C21.8725 44.1148 21.6188 44.2197 21.3544 44.2197Z" fill="#EC101B"/>
</svg>
