<svg width="51" height="52" viewBox="0 0 51 52" fill="none" xmlns="http://www.w3.org/2000/svg">
<path d="M49.505 10.18C49.505 9.98665 49.5734 9.32707 49.4252 9.20482C49.2771 9.08257 48.8555 9.51186 48.619 9.54598C46.0551 9.99803 45.2006 13.3956 42.6623 13.768C41.9041 13.835 41.1416 13.7006 40.4522 13.3785C39.7628 13.0565 39.1709 12.5582 38.7368 11.9342C38.054 10.7958 37.6354 9.51931 37.5118 8.19835C37.5118 7.86002 37.0817 7.34542 37.2042 7.06111C37.4207 6.47259 38.4319 6.31339 38.7823 5.7931C39.9218 4.03891 42.5028 3.84559 42.6054 1.68199C39.9471 1.49422 37.2996 2.17368 35.0619 3.61809C33.9564 4.3472 33.0241 5.30879 32.3302 6.43543C31.6364 7.56208 31.1978 8.82656 31.0452 10.1402C30.954 11.1353 31.3842 12.3123 31.2161 13.2676C31.0481 14.2229 30.1706 14.6721 29.581 15.2578L24.815 19.9915L15.3088 29.4676C14.7226 30.1063 14.0516 30.662 13.3147 31.1194C11.5769 32.0832 9.44325 31.8557 7.50326 32.2566C5.73116 32.626 4.11498 33.5284 2.87247 34.8424C1.62996 36.1564 0.820758 37.8189 0.553837 39.6059C0.286916 41.3929 0.575113 43.2186 1.37959 44.8372C2.18408 46.4557 3.46621 47.7894 5.05332 48.6585C6.19619 49.2563 7.42547 49.6726 8.69687 49.8924C9.93922 50.1827 11.2268 50.2253 12.4857 50.0175C14.4498 49.5823 16.1648 48.3962 17.263 46.7138C18.3485 45.0363 19.0067 43.1194 19.1802 41.13C19.2225 40.2623 19.3708 39.403 19.6217 38.5712C20.3374 37.1717 21.4205 35.9925 22.7553 35.1595C26.2112 32.4702 29.3823 29.435 32.2189 26.1013C34.0563 23.9406 35.8624 21.5751 38.4376 20.4408C40.7166 19.4002 43.3717 19.3888 45.5851 18.1663C46.9865 17.3961 48.1155 16.213 48.8181 14.7786C49.5206 13.3442 49.7625 11.7282 49.5107 10.1515L49.505 10.18ZM13.9585 41.2778C13.4115 42.2189 12.819 43.1457 12.2777 44.064C12.2204 44.1422 12.1475 44.2077 12.0637 44.2566C11.9799 44.3055 11.8869 44.3367 11.7906 44.3483H8.39773C8.1914 44.3214 8.00203 44.2204 7.86506 44.064C7.29531 43.1457 6.72553 42.2302 6.19567 41.2892C6.15693 41.1993 6.1366 41.1026 6.13586 41.0048C6.13698 40.9071 6.15729 40.8105 6.19567 40.7205C6.73123 39.7823 7.33519 38.864 7.86506 37.9485C7.92398 37.8696 7.99861 37.8038 8.08435 37.7552C8.17221 37.7061 8.2691 37.6751 8.36922 37.6642H11.7735C11.8741 37.6766 11.9711 37.7096 12.0584 37.7609C12.1443 37.8116 12.219 37.8793 12.2777 37.9599C12.8475 38.8754 13.4172 39.7937 13.9471 40.7319C13.9904 40.8207 14.0147 40.9175 14.0183 41.0162C14.0215 41.1133 14.0051 41.21 13.9699 41.3005L13.9585 41.2778Z" fill="#FCB6BD"/>
<path d="M50.2765 42.8871C49.9926 41.5321 49.2962 40.2979 48.2824 39.3531L38.9328 30.0363C37.9443 29.0412 37.9329 29.0412 36.8219 29.9339L36.6168 30.0704C36.4929 30.1441 36.3534 30.1879 36.2095 30.1983C36.0658 30.2082 35.9216 30.1846 35.7886 30.1293C35.6556 30.074 35.5373 29.9887 35.4431 29.8799C35.3488 29.7717 35.2806 29.6433 35.2437 29.5046C35.214 29.3131 35.2346 29.1172 35.3035 28.936C35.3721 28.7512 35.4893 28.5882 35.6426 28.4641C36.3234 27.7732 36.312 27.432 35.6426 26.7411L33.9846 25.0893C35.3805 23.7075 36.7421 22.3599 38.0811 20.9924C38.1774 20.8856 38.3017 20.8078 38.44 20.7678C38.5789 20.7294 38.7256 20.7294 38.8645 20.7678C40.7874 21.0942 42.7643 20.8336 44.5363 20.0201C46.6355 19.0861 48.3469 17.457 49.381 15.4085C50.4151 13.36 50.7083 11.0179 50.211 8.77844C50.1312 8.3605 50.0401 7.97381 49.5757 7.82882C49.1114 7.68382 48.8037 7.93968 48.5075 8.23536C46.9435 9.80759 45.3738 11.3628 43.8099 12.9322C43.7281 13.0404 43.6103 13.116 43.4776 13.1452C43.3449 13.1744 43.2061 13.1553 43.0863 13.0914C41.9468 12.7076 40.8073 12.3437 39.6821 11.9542C39.5831 11.9147 39.4937 11.8547 39.4199 11.7779C39.3463 11.7017 39.2882 11.6119 39.2491 11.5135C38.8531 10.3762 38.4998 9.23898 38.1096 8.17282C38.045 8.03678 38.0291 7.88279 38.0643 7.73643C38.0995 7.59007 38.1838 7.4602 38.3033 7.36827C39.9014 5.79604 41.491 4.19815 43.0806 2.61455C43.223 2.50098 43.3282 2.34757 43.3826 2.17392C43.4367 1.99985 43.4367 1.81345 43.3826 1.63938C43.3306 1.47765 43.2314 1.33511 43.0977 1.22999C42.9613 1.12496 42.7967 1.06259 42.6248 1.05084C42.1604 0.974079 41.6961 0.871741 41.2289 0.780762H39.4599L38.7448 0.905911C37.4412 1.1115 36.1911 1.57234 35.0666 2.26194C33.9421 2.95153 32.9653 3.85622 32.1925 4.92401C31.4196 5.9918 30.8659 7.20157 30.5633 8.48372C30.2608 9.76586 30.2153 11.0951 30.4294 12.3949C30.4552 12.5275 30.4464 12.6646 30.4037 12.7929C30.3605 12.9205 30.2826 13.0338 30.1787 13.1199C24.2419 19.0297 18.3156 24.9471 12.3997 30.8722C12.3019 30.9811 12.1756 31.0609 12.0351 31.1025C11.8947 31.1438 11.7453 31.1438 11.6049 31.1025C10.0469 30.827 8.44383 30.9602 6.95291 31.4891C5.57175 31.9399 4.3047 32.6836 3.23864 33.6691C2.17258 34.6546 1.33275 35.8587 0.776875 37.1987C0.220998 38.5386 -0.0377907 39.9828 0.0182319 41.4319C0.0742545 42.8811 0.44379 44.3011 1.10146 45.5943C1.75913 46.8875 2.68937 48.0234 3.82835 48.924C4.96732 49.8247 6.28808 50.4687 7.69994 50.812C9.1118 51.1552 10.5814 51.1894 12.0077 50.9125C13.4341 50.6355 14.7836 50.0538 15.9635 49.2073C17.4932 48.1533 18.6906 46.6862 19.4155 44.9779C20.1404 43.2696 20.363 41.3906 20.0571 39.5607C20.0273 39.4061 20.038 39.2464 20.0878 39.097C20.1377 38.9476 20.2252 38.8136 20.342 38.7078C21.5555 37.5705 22.7463 36.3309 23.94 35.1311C24.0742 34.9458 24.1914 34.7488 24.2903 34.5426C25.0396 35.3017 25.6179 35.9016 26.2189 36.4901C26.3019 36.6002 26.4091 36.6897 26.5323 36.7517C26.6551 36.8134 26.7908 36.8456 26.9283 36.8456C27.0658 36.8456 27.2014 36.8134 27.3242 36.7517C27.4474 36.6897 27.5547 36.6002 27.6376 36.4901C27.7925 36.3223 27.9676 36.1742 28.159 36.0494C28.3388 35.9387 28.5513 35.8929 28.7609 35.9197C28.9705 35.9465 29.1646 36.0443 29.3106 36.1967C29.4567 36.3491 29.5459 36.547 29.5634 36.7572C29.5808 36.9674 29.5255 37.1772 29.4067 37.3516C29.2975 37.5142 29.1725 37.6655 29.0335 37.8036C28.478 38.3921 28.4637 38.7646 29.0335 39.3531L38.779 49.0794C39.4304 49.7521 40.214 50.2835 41.0806 50.6401C41.9473 50.9967 42.8784 51.171 43.8156 51.152C44.8207 51.1354 45.8093 50.8947 46.7092 50.4476C47.6091 50.0005 48.3974 49.3583 49.0165 48.5679C49.6356 47.7775 50.0698 46.859 50.2873 45.8795C50.5048 44.9 50.5001 43.8845 50.2737 42.907L50.2765 42.8871ZM18.516 38.0396C18.3546 38.2016 18.2421 38.4055 18.1912 38.6281C18.143 38.8503 18.1568 39.0813 18.2311 39.2962C18.4814 40.3946 18.5019 41.5327 18.2911 42.6394C18.0803 43.746 17.6428 44.7973 17.0061 45.7273C16.2236 46.9038 15.1577 47.8653 13.9062 48.5239C12.6546 49.1824 11.2574 49.5168 9.84275 49.4965C8.42806 49.4762 7.04109 49.1018 5.80904 48.4076C4.57698 47.7134 3.5393 46.7217 2.79102 45.5233C2.04274 44.3249 1.60782 42.9582 1.5262 41.5486C1.44458 40.1389 1.71886 38.7312 2.32386 37.4548C2.92886 36.1784 3.84524 35.074 4.98898 34.2428C6.13272 33.4116 7.46717 32.8802 8.87011 32.6974C9.83276 32.6324 10.7997 32.6743 11.7531 32.8225C11.9888 32.8794 12.2354 32.8736 12.4681 32.8055C12.7009 32.7374 12.912 32.61 13.0805 32.4359C19.2832 26.2322 25.4935 20.0399 31.7113 13.859C31.8938 13.6878 32.025 13.4693 32.0902 13.2279C32.16 12.9864 32.16 12.7302 32.0902 12.4887C31.8236 11.2335 31.8506 9.93378 32.169 8.69063C32.4874 7.44748 33.0887 6.29428 33.9262 5.3207C34.7636 4.34712 35.8146 3.57933 36.9977 3.07697C38.1807 2.5746 39.4639 2.35118 40.7475 2.42408C40.5766 2.60604 40.4768 2.73112 40.3629 2.83347C39.0924 4.11287 37.8218 5.39232 36.5257 6.6575C36.3387 6.81613 36.208 7.03071 36.1531 7.26943C36.0982 7.50814 36.1219 7.75821 36.2208 7.98236C36.7298 9.46645 37.2255 10.9534 37.7079 12.4432C37.7666 12.6644 37.8825 12.8664 38.0441 13.0289C38.2021 13.1893 38.398 13.3076 38.6138 13.3729C40.1236 13.859 41.6334 14.3566 43.1518 14.8769C43.3713 14.9663 43.6133 14.9852 43.844 14.9309C44.0732 14.8737 44.2797 14.7488 44.4366 14.5726C45.6729 13.316 46.9321 12.0707 48.1912 10.8141C48.3088 10.6803 48.4146 10.5367 48.5075 10.3848L48.6442 10.4501C48.6758 10.5653 48.6949 10.6835 48.7011 10.8027C48.7112 12.9967 47.8544 15.1064 46.3165 16.6742C44.7786 18.2421 42.6836 19.1418 40.4854 19.1784C39.7957 19.1667 39.1086 19.0877 38.4343 18.9425C38.2333 18.8842 38.0199 18.8842 37.819 18.9425C37.6184 19.0017 37.4381 19.1148 37.2976 19.2694C31.057 25.5432 24.7965 31.7999 18.516 38.0396ZM39.7903 47.7061C36.8276 44.7522 33.8763 41.7954 30.9051 38.8528C30.643 38.594 30.5747 38.4234 30.7912 38.0822C31.083 37.5904 31.2014 37.0153 31.1276 36.4485C31.0538 35.8817 30.7919 35.3558 30.3838 34.9548C29.9822 34.5485 29.4579 34.2852 28.8917 34.2056C28.3254 34.1259 27.7486 34.2344 27.2502 34.5142C27.1328 34.5792 27.0196 34.6513 26.9112 34.7303L25.6635 33.4395L32.7425 26.3317L34.0131 27.6566C33.6139 28.1737 33.4219 28.8207 33.4746 29.4714C33.5273 30.122 33.8207 30.7299 34.2979 31.1764C34.7492 31.6145 35.3443 31.8743 35.9729 31.9078C36.6016 31.9412 37.221 31.746 37.7164 31.3583L47.4021 40.9822L40.2433 48.1468C40.1112 47.9849 39.9664 47.8337 39.8103 47.6948L39.7903 47.7061ZM47.2882 47.8085C46.6111 48.5098 45.7458 49.0014 44.7959 49.2242C43.846 49.4471 42.8518 49.3919 41.9325 49.0651L48.3565 42.6568C48.6808 43.5274 48.7548 44.4711 48.57 45.3815C48.3853 46.2918 47.9492 47.1325 47.311 47.8085H47.2882Z" fill="#EC101B"/>
<path d="M3.33801 11.0073C3.54166 11.3126 3.84289 11.5401 4.19263 11.6527C4.98743 11.9114 5.81641 12.0593 6.61121 12.2839C6.92034 12.3723 7.20435 12.532 7.44023 12.7502C10.7809 16.0709 14.1119 19.3955 17.4335 22.7238C17.5362 22.8488 17.6242 22.9852 17.6957 23.1303L19.0801 21.885C18.9234 21.7713 18.7724 21.6519 18.6272 21.5239C15.3255 18.2288 12.001 14.9337 8.71076 11.63C8.24162 11.1038 7.61009 10.7486 6.91604 10.6207C6.29217 10.507 5.67969 10.3364 5.06721 10.1572C4.89485 10.1218 4.73935 10.0297 4.62565 9.89569C3.69411 8.30071 2.78818 6.69153 1.89083 5.14204L4.38633 2.66287C5.94174 3.5556 7.55127 4.4625 9.15226 5.38935C9.26921 5.4959 9.35241 5.6343 9.39157 5.78743C9.59383 6.56928 9.7534 7.34828 9.99269 8.11876C10.1122 8.50291 10.3177 8.8549 10.5937 9.14799C13.997 12.5825 17.4003 16.0017 20.8036 19.4058L21.0885 19.6902L22.3362 18.5529C22.193 18.4583 22.0603 18.3487 21.9403 18.226C19.0687 15.3829 16.2656 12.463 13.3171 9.67962C12.066 8.61068 11.2545 7.11833 11.0382 5.48889C11.0011 5.15071 10.8766 4.82796 10.6768 4.55232C10.4771 4.27668 10.2089 4.05761 9.89866 3.91665C8.06122 2.91872 6.26649 1.84404 4.45184 0.803467H3.98753C3.81935 0.903528 3.65935 1.01664 3.50897 1.14178L0.34399 4.31188C0.248113 4.38961 0.169509 4.48644 0.113225 4.59619C0.0545402 4.70082 0.0177374 4.81624 0.00500691 4.93547C-0.00772353 5.0547 0.00387997 5.17526 0.0391556 5.28989C0.0732801 5.40446 0.130497 5.51084 0.207256 5.60259C1.21571 7.39374 2.24695 9.18774 3.33801 11.0073Z" fill="#EC101B"/>
<path d="M13.3687 36.4815C13.2805 36.3145 13.1461 36.1763 12.9813 36.0835C12.8161 35.9898 12.6267 35.9472 12.4372 35.9612H7.65983C7.4706 35.9463 7.28124 35.9879 7.11574 36.0807C6.95104 36.1739 6.81731 36.3133 6.73114 36.4815C5.93634 37.795 5.15297 39.1199 4.34678 40.4334C4.23037 40.6003 4.16797 40.7987 4.16797 41.002C4.16797 41.2053 4.23037 41.4038 4.34678 41.5706L6.73114 45.5198C6.82227 45.6949 6.96429 45.8386 7.13855 45.932C7.31234 46.0276 7.51048 46.0701 7.7083 46.0542H12.3831C12.5803 46.069 12.7776 46.0263 12.951 45.9314C13.1244 45.8366 13.2665 45.6936 13.3601 45.5198C14.1407 44.2091 14.9355 42.8842 15.7417 41.5706C15.8617 41.4052 15.9264 41.2062 15.9264 41.002C15.9264 40.7978 15.8617 40.5988 15.7417 40.4334C14.9441 39.0943 14.1493 37.8149 13.3687 36.4815ZM13.9384 41.2693C13.3943 42.2104 12.799 43.1372 12.2577 44.0555C12.2003 44.1336 12.1275 44.1992 12.0437 44.2481C11.9599 44.297 11.867 44.3282 11.7706 44.3398H8.37771C8.17138 44.3129 7.982 44.2118 7.84504 44.0555C7.27529 43.1372 6.70551 42.2217 6.17565 41.2806C6.13691 41.1908 6.11658 41.0941 6.11583 40.9963C6.11696 40.8986 6.13727 40.802 6.17565 40.712C6.71121 39.7738 7.31517 38.8555 7.84504 37.94C7.90395 37.8611 7.97865 37.7953 8.06439 37.7467C8.15226 37.6976 8.24915 37.6666 8.34927 37.6557H11.7677C11.8683 37.6681 11.9653 37.701 12.0526 37.7524C12.1391 37.8024 12.2139 37.8702 12.272 37.9514C12.8417 38.8669 13.4114 39.7852 13.9413 40.7234C13.991 40.806 14.023 40.898 14.0353 40.9936C14.0469 41.0891 14.0381 41.1859 14.0097 41.2779L13.9384 41.2693Z" fill="#EC101B"/>
<path d="M15.4199 34.5654L16.4655 35.5718L34.8569 17.2224L33.8797 16.0852L15.4199 34.5654Z" fill="#EC101B"/>
<path d="M35.0389 34.7131L33.8994 35.731L42.2063 44.0072L43.3458 42.978L35.0389 34.7131Z" fill="#EC101B"/>
</svg>
