<svg width="155" height="23" viewBox="0 0 155 23" fill="none" xmlns="http://www.w3.org/2000/svg">
<rect x="0.5" y="0.5" width="22" height="22" rx="1.5" stroke="#ADADAD"/>
<rect x="33.5" y="0.5" width="22" height="22" rx="1.5" stroke="#ADADAD"/>
<rect x="66.5" y="0.5" width="22" height="22" rx="1.5" stroke="#ADADAD"/>
<rect x="99.5" y="0.5" width="22" height="22" rx="1.5" stroke="#ADADAD"/>
<rect x="132.5" y="0.5" width="22" height="22" rx="1.5" stroke="#ADADAD"/>
<path d="M12.5475 18.494V12.3488H14.6206L14.9288 9.94272H12.5475V8.41015C12.5475 7.71585 12.7409 7.24049 13.7374 7.24049H15V5.09535C14.3857 5.02951 13.7681 4.99772 13.1503 5.00013C11.3178 5.00013 10.0597 6.11881 10.0597 8.17247V9.93822H8V12.3443H10.0642V18.494H12.5475Z" fill="#6D6D6D"/>
<path d="M47 9C47.5523 9 48 8.55228 48 8C48 7.44771 47.5523 7 47 7C46.4477 7 46 7.44771 46 8C46 8.55228 46.4477 9 47 9Z" fill="#6D6D6D"/>
<path d="M44 8C43.4067 8 42.8266 8.17595 42.3333 8.50559C41.8399 8.83523 41.4554 9.30377 41.2284 9.85195C41.0013 10.4001 40.9419 11.0033 41.0576 11.5853C41.1734 12.1672 41.4591 12.7018 41.8787 13.1213C42.2982 13.5409 42.8328 13.8266 43.4147 13.9424C43.9967 14.0581 44.5999 13.9987 45.1481 13.7716C45.6962 13.5446 46.1648 13.1601 46.4944 12.6667C46.8241 12.1734 47 11.5933 47 11C47 10.2043 46.6839 9.44129 46.1213 8.87868C45.5587 8.31607 44.7957 8 44 8ZM44 12.9474C43.6148 12.9474 43.2383 12.8332 42.9181 12.6192C42.5978 12.4052 42.3482 12.1011 42.2008 11.7452C42.0534 11.3894 42.0149 10.9978 42.09 10.6201C42.1651 10.2423 42.3506 9.89532 42.623 9.62297C42.8953 9.35061 43.2423 9.16514 43.6201 9.09C43.9978 9.01486 44.3894 9.05342 44.7452 9.20082C45.1011 9.34821 45.4052 9.59782 45.6192 9.91807C45.8332 10.2383 45.9474 10.6148 45.9474 11C45.9474 11.5165 45.7422 12.0118 45.377 12.377C45.0118 12.7422 44.5165 12.9474 44 12.9474Z" fill="#6D6D6D"/>
<path d="M44 6.081C45.602 6.081 45.792 6.087 46.4245 6.116C46.8049 6.12052 47.1817 6.19037 47.5385 6.3225C47.7973 6.42235 48.0324 6.57527 48.2286 6.77144C48.4247 6.96761 48.5777 7.20267 48.6775 7.4615C48.8096 7.81826 48.8795 8.19508 48.884 8.5755C48.913 9.208 48.919 9.398 48.919 11.0005C48.919 12.603 48.913 12.792 48.884 13.4245C48.8795 13.8049 48.8096 14.1817 48.6775 14.5385C48.5777 14.7973 48.4247 15.0324 48.2286 15.2286C48.0324 15.4247 47.7973 15.5777 47.5385 15.6775C47.1817 15.8096 46.8049 15.8795 46.4245 15.884C45.792 15.913 45.602 15.919 44 15.919C42.398 15.919 42.208 15.913 41.5755 15.884C41.1951 15.8795 40.8183 15.8096 40.4615 15.6775C40.2027 15.5777 39.9676 15.4247 39.7714 15.2286C39.5753 15.0324 39.4223 14.7973 39.3225 14.5385C39.1904 14.1817 39.1205 13.8049 39.116 13.4245C39.087 12.792 39.081 12.602 39.081 11C39.081 9.398 39.087 9.208 39.116 8.5755C39.1205 8.19508 39.1904 7.81826 39.3225 7.4615C39.4223 7.20267 39.5753 6.96761 39.7714 6.77144C39.9676 6.57527 40.2027 6.42235 40.4615 6.3225C40.8183 6.19037 41.1951 6.12052 41.5755 6.116C42.208 6.087 42.398 6.081 44 6.081ZM44 5C42.3705 5 42.166 5.007 41.526 5.036C41.0284 5.04605 40.5361 5.14038 40.07 5.315C39.6714 5.46915 39.3093 5.70489 39.0071 6.00711C38.7049 6.30933 38.4691 6.67136 38.315 7.07C38.1403 7.53624 38.046 8.02872 38.036 8.5265C38.007 9.1665 38 9.37 38 11C38 12.63 38.007 12.834 38.036 13.474C38.046 13.9716 38.1404 14.4639 38.315 14.93C38.4691 15.3286 38.7049 15.6907 39.0071 15.9929C39.3093 16.2951 39.6714 16.5309 40.07 16.685C40.5362 16.8597 41.0287 16.954 41.5265 16.964C42.1665 16.993 42.3705 17 44 17C45.6295 17 45.834 16.993 46.474 16.964C46.9718 16.954 47.4643 16.8597 47.9305 16.685C48.3291 16.5309 48.6912 16.2951 48.9934 15.9929C49.2956 15.6907 49.5314 15.3286 49.6855 14.93C49.86 14.4637 49.9542 13.9713 49.964 13.4735C49.993 12.8335 50 12.63 50 11C50 9.37 49.993 9.166 49.964 8.526C49.954 8.02839 49.8596 7.53608 49.685 7.07C49.5309 6.67136 49.2951 6.30933 48.9929 6.00711C48.6907 5.70489 48.3286 5.46915 47.93 5.315C47.4637 5.1405 46.9713 5.04633 46.4735 5.0365C45.8335 5.0065 45.63 5 44 5Z" fill="#6D6D6D"/>
<path fill-rule="evenodd" clip-rule="evenodd" d="M76.4574 9.83295H78.6858V10.8505C79.0068 10.2653 79.83 9.73945 81.0666 9.73945C83.4372 9.73945 84 10.9044 84 13.0417V17H81.6V13.5284C81.6 12.3112 81.279 11.6249 80.4618 11.6249C79.3284 11.6249 78.8574 12.3646 78.8574 13.5279V17H76.4574V9.83295ZM72.342 16.9065H74.742V9.73945H72.342V16.9065ZM75.0858 7.4025C75.0859 7.5869 75.046 7.76948 74.9684 7.93962C74.8909 8.10977 74.7772 8.26408 74.634 8.3936C74.3438 8.65794 73.9511 8.80591 73.542 8.805C73.1336 8.80475 72.7418 8.65716 72.4512 8.39415C72.3085 8.26419 72.1952 8.1097 72.1178 7.93954C72.0404 7.76937 72.0003 7.58687 72 7.4025C72 7.03015 72.162 6.67375 72.4518 6.41085C72.7421 6.14749 73.1341 5.99984 73.5426 6C73.9518 6 74.3442 6.14795 74.634 6.41085C74.9232 6.67375 75.0858 7.03015 75.0858 7.4025Z" fill="#6D6D6D"/>
<path d="M116.642 10.8499C116.637 10.423 116.635 9.99304 116.633 9.56463H115.28C115.275 9.99146 115.272 10.4199 115.268 10.8499C114.813 10.8514 114.36 10.8546 113.908 10.8594V12.1383C114.36 12.143 114.816 12.1462 115.268 12.1509C115.273 12.5778 115.273 13.0062 115.277 13.433H116.632C116.633 13.0062 116.637 12.5778 116.64 12.1478C117.096 12.143 117.548 12.1414 118 12.1367V10.8578C117.549 10.8546 117.094 10.8546 116.642 10.8499ZM107.765 10.8562C107.763 11.3668 107.765 11.879 107.766 12.3896C108.674 12.4181 109.583 12.4054 110.491 12.4181C110.091 14.3199 107.352 14.9364 105.904 13.6938C104.413 12.6046 104.483 10.2159 106.033 9.20419C107.116 8.38846 108.656 8.58923 109.739 9.29588C110.165 8.92438 110.563 8.526 110.947 8.11498C110.046 7.43679 108.94 6.95304 107.765 7.00363C105.309 6.92617 103.053 8.95599 103.013 11.2751C102.855 13.1706 104.175 15.0281 106.038 15.6984C107.893 16.3734 110.274 15.9134 111.459 14.3388C112.242 13.3445 112.411 12.064 112.319 10.8609C110.799 10.8499 109.282 10.8514 107.765 10.8562Z" fill="#6D6D6D"/>
<path d="M147.973 9.99374C147.979 10.0814 147.979 10.1687 147.979 10.2559C147.979 12.9247 145.917 16 142.148 16C140.987 16 139.908 15.6687 139 15.0933C139.165 15.1119 139.324 15.1184 139.495 15.1184C140.418 15.1206 141.314 14.8168 142.04 14.2559C141.612 14.2482 141.198 14.1092 140.854 13.8583C140.51 13.6073 140.255 13.2569 140.123 12.856C140.25 12.8746 140.377 12.8871 140.51 12.8871C140.694 12.8871 140.879 12.862 141.05 12.8184C140.586 12.7261 140.169 12.4783 139.869 12.1171C139.569 11.7559 139.406 11.3037 139.407 10.8372V10.8122C139.68 10.962 139.997 11.0558 140.333 11.0683C140.051 10.8841 139.821 10.6343 139.661 10.341C139.502 10.0476 139.418 9.72001 139.419 9.38729C139.419 9.0124 139.52 8.66859 139.698 8.36888C140.213 8.99287 140.855 9.50335 141.583 9.86726C142.311 10.2312 143.109 10.4404 143.924 10.4814C143.893 10.331 143.873 10.1752 143.873 10.0188C143.873 9.75365 143.926 9.49107 144.029 9.24608C144.132 9.00109 144.283 8.77849 144.473 8.591C144.664 8.40351 144.89 8.25481 145.138 8.1534C145.387 8.052 145.654 7.99987 145.923 8C146.513 8 147.046 8.24358 147.421 8.63751C147.879 8.55012 148.319 8.38513 148.721 8.14986C148.568 8.61637 148.248 9.01196 147.82 9.2625C148.227 9.21678 148.625 9.11137 149 8.94976C148.72 9.35226 148.372 9.70522 147.973 9.99374Z" fill="#6D6D6D"/>
</svg>
