<svg width="32" height="27" viewBox="0 0 32 27" fill="none" xmlns="http://www.w3.org/2000/svg">
<g id="Frame" clip-path="url(#clip0_1_2647)">
<path id="Vector 13" d="M16 1L17 2.5V24L16 26L14.5 25L6.5 20V18H4.5H2L0.5 16.5L1 10.5L1.5 9.5L2.5 8.5H6.5L7 6.5L16 1Z" fill="#FCB6BD"/>
<path id="Vector" d="M22.1272 13.5016C22.1257 12.1973 21.6749 10.9368 20.8565 9.94811C20.038 8.95946 18.906 8.3081 17.6654 8.112V2.57588C17.6652 2.21753 17.5735 1.86567 17.3998 1.55617C17.226 1.24667 16.9763 0.990623 16.6763 0.814155C16.3762 0.637688 16.0364 0.547112 15.6917 0.551678C15.3469 0.556244 15.0095 0.655787 14.7139 0.840144L6.5862 5.88779C6.29931 6.06968 6.0622 6.32513 5.8976 6.62964C5.733 6.93415 5.64644 7.2775 5.64622 7.62678V7.67237H2.86075C2.10397 7.67324 1.37842 7.98607 0.843296 8.54225C0.308172 9.09843 0.007177 9.85252 0.00634766 10.6391V15.9831C0.00800562 16.7691 0.309366 17.5223 0.844401 18.0778C1.37944 18.6333 2.10451 18.9457 2.86075 18.9465H5.64622V19.3601C5.64644 19.7094 5.733 20.0527 5.8976 20.3572C6.0622 20.6618 6.29931 20.9172 6.5862 21.0991L14.7139 26.1598C15.0151 26.3504 15.3607 26.4517 15.7134 26.4529C16.0507 26.451 16.382 26.3591 16.6753 26.1858C16.9769 26.011 17.2278 25.7554 17.402 25.4455C17.5761 25.1357 17.6671 24.7829 17.6654 24.424V18.8879C18.9055 18.6919 20.0371 18.041 20.8555 17.053C21.6739 16.0651 22.125 14.8053 22.1272 13.5016ZM2.85448 17.3248C2.51349 17.3248 2.18641 17.1842 1.945 16.9339C1.70358 16.6836 1.56754 16.344 1.56671 15.9896V10.6456C1.56671 10.2906 1.70239 9.95018 1.94389 9.69918C2.1854 9.44817 2.51294 9.30716 2.85448 9.30716H5.63995V17.3248H2.85448ZM16.0988 24.4305C16.0964 24.4997 16.0766 24.567 16.0415 24.6257C16.0064 24.6845 15.9571 24.7327 15.8985 24.7656C15.84 24.7985 15.7742 24.815 15.7076 24.8133C15.6411 24.8117 15.5761 24.792 15.5191 24.7562L7.39144 19.6955C7.33521 19.6596 7.28873 19.6093 7.25639 19.5495C7.22404 19.4896 7.2069 19.4222 7.20658 19.3536V7.63004C7.2069 7.56141 7.22404 7.494 7.25639 7.43418C7.28873 7.37435 7.33521 7.32407 7.39144 7.28809L15.5097 2.23068C15.5667 2.19491 15.6317 2.17522 15.6982 2.17357C15.7648 2.17191 15.8306 2.18835 15.8891 2.22125C15.9477 2.25415 15.997 2.30237 16.0321 2.36114C16.0672 2.41992 16.087 2.4872 16.0894 2.55634L16.0988 24.4305ZM20.5605 13.5016C20.5599 14.3739 20.2725 15.2199 19.746 15.8992C19.2194 16.5785 18.4854 17.0505 17.6654 17.2368V9.74679C18.4885 9.93385 19.225 10.4087 19.7519 11.092C20.2788 11.7754 20.5642 12.6259 20.5605 13.5016Z" fill="#EC101B"/>
<path id="Vector_2" d="M26.946 13.5016C26.9459 11.6264 26.4611 9.78569 25.5423 8.1719C24.6234 6.55811 23.3043 5.23051 21.7229 4.32792C21.5412 4.22826 21.3292 4.20675 21.1324 4.268C20.9357 4.32926 20.7699 4.4684 20.6709 4.65543C20.5719 4.84247 20.5475 5.06244 20.603 5.26797C20.6586 5.47351 20.7895 5.64815 20.9678 5.75429C22.3121 6.5217 23.4317 7.65272 24.208 9.02756C24.9843 10.4024 25.3884 11.9699 25.3775 13.5639C25.3666 15.158 24.9411 16.7193 24.146 18.0826C23.3509 19.4458 22.2159 20.5601 20.8612 21.3075C20.7668 21.3556 20.6827 21.4229 20.6138 21.5055C20.5449 21.588 20.4928 21.6841 20.4604 21.7881C20.428 21.892 20.4161 22.0017 20.4254 22.1106C20.4347 22.2194 20.4649 22.3252 20.5144 22.4216C20.5638 22.518 20.6314 22.6031 20.7132 22.6718C20.7949 22.7405 20.8892 22.7914 20.9902 22.8215C21.0913 22.8515 21.1972 22.8601 21.3015 22.8468C21.4058 22.8334 21.5065 22.7983 21.5975 22.7437C23.2137 21.8548 24.5659 20.5243 25.5084 18.8957C26.4509 17.2671 26.948 15.4021 26.946 13.5016Z" fill="#EC101B"/>
<path id="Vector_3" d="M24.8121 0.120446C24.7244 0.0642089 24.627 0.0264636 24.5253 0.00936658C24.4236 -0.00773048 24.3197 -0.00384995 24.2195 0.0207955C24.1193 0.0454409 24.0247 0.0903672 23.9411 0.153003C23.8576 0.215639 23.7868 0.294764 23.7327 0.385855C23.6786 0.476945 23.6422 0.578213 23.6258 0.683891C23.6093 0.789568 23.6131 0.897577 23.6368 1.00175C23.6605 1.10593 23.7037 1.20424 23.764 1.29105C23.8243 1.37787 23.9004 1.45149 23.988 1.50773C25.957 2.7693 27.5826 4.53358 28.7102 6.63269C29.8377 8.73179 30.4296 11.0959 30.4296 13.4999C30.4296 15.904 29.8377 18.2681 28.7102 20.3672C27.5826 22.4663 25.957 24.2306 23.988 25.4922C23.811 25.6057 23.6847 25.7878 23.6368 25.9981C23.5889 26.2085 23.6234 26.4301 23.7327 26.614C23.8419 26.798 24.0171 26.9293 24.2195 26.9791C24.4219 27.0289 24.6351 26.993 24.8121 26.8795C27.0084 25.4716 28.8217 23.5031 30.0794 21.1612C31.337 18.8193 31.9973 16.1819 31.9973 13.4999C31.9973 10.818 31.337 8.18057 30.0794 5.83868C28.8217 3.49678 27.0084 1.52829 24.8121 0.120446Z" fill="#EC101B"/>
</g>
<defs>
<clipPath id="clip0_1_2647">
<rect width="32" height="27" fill="white"/>
</clipPath>
</defs>
</svg>
