<svg width="29" height="29" viewBox="0 0 29 29" fill="none" xmlns="http://www.w3.org/2000/svg">
<g clip-path="url(#clip0_1_3543)">
<path d="M14.5012 8.11047C13.238 8.11196 12.0036 8.4879 10.9539 9.19079C9.90433 9.89368 9.08666 10.892 8.60427 12.0595C8.12189 13.2269 7.99644 14.5112 8.24379 15.75C8.49114 16.9888 9.1002 18.1264 9.99396 19.0191C10.8877 19.9118 12.0261 20.5195 13.2651 20.7654C14.5042 21.0113 15.7883 20.8844 16.9552 20.4006C18.1222 19.9169 19.1195 19.098 19.8211 18.0476C20.5228 16.9972 20.8973 15.7623 20.8973 14.4991C20.8953 12.804 20.2206 11.1791 19.0213 9.98119C17.822 8.78331 16.1963 8.11047 14.5012 8.11047ZM19.0929 14.4991C19.0929 15.4072 18.8236 16.295 18.3191 17.0501C17.8145 17.8052 17.0974 18.3937 16.2584 18.7412C15.4193 19.0888 14.4961 19.1797 13.6054 19.0025C12.7147 18.8254 11.8966 18.388 11.2544 17.7459C10.6122 17.1037 10.1749 16.2856 9.99776 15.3949C9.82059 14.5042 9.91152 13.5809 10.2591 12.7419C10.6066 11.9029 11.1951 11.1858 11.9502 10.6812C12.7053 10.1767 13.5931 9.90739 14.5012 9.90739C15.7186 9.90887 16.8856 10.3931 17.7464 11.2539C18.6072 12.1147 19.0914 13.2817 19.0929 14.4991Z" fill="white"/>
<path d="M7.39212 8.75196C7.52653 8.8856 7.69746 8.97647 7.88342 9.01314C8.06937 9.04982 8.26202 9.03065 8.4371 8.95806C8.61218 8.88546 8.76187 8.76268 8.86731 8.60517C8.97274 8.44767 9.0292 8.26249 9.0296 8.07295C9.03058 7.94698 9.00618 7.8221 8.95784 7.70576C8.9095 7.58942 8.83821 7.48402 8.74824 7.39583L5.60083 4.24656C5.421 4.06673 5.1771 3.9657 4.92278 3.9657C4.66845 3.9657 4.42455 4.06673 4.24472 4.24656C4.06488 4.42639 3.96387 4.6703 3.96387 4.92462C3.96387 5.17894 4.06488 5.42284 4.24472 5.60268L7.39212 8.75196Z" fill="white"/>
<path d="M21.6062 20.2481C21.4262 20.0686 21.1824 19.9678 20.9282 19.9678C20.674 19.9678 20.4301 20.0686 20.2501 20.2481C20.1606 20.3366 20.0896 20.442 20.0412 20.5583C19.9929 20.6746 19.9683 20.7993 19.9688 20.9252C19.9684 21.0512 19.9929 21.176 20.0409 21.2925C20.0888 21.409 20.1593 21.5149 20.2482 21.6042L23.3975 24.7535C23.5799 24.9216 23.8203 25.0126 24.0683 25.0075C24.3163 25.0024 24.5527 24.9015 24.728 24.726C24.9033 24.5504 25.0038 24.3139 25.0086 24.0659C25.0134 23.8179 24.922 23.5776 24.7536 23.3954L21.6062 20.2481Z" fill="white"/>
<path d="M28.0417 13.5406H23.5888C23.3417 13.5515 23.1083 13.6574 22.9373 13.8361C22.7663 14.0149 22.6709 14.2527 22.6709 14.5C22.6709 14.7474 22.7663 14.9852 22.9373 15.1639C23.1083 15.3426 23.3417 15.4485 23.5888 15.4594H28.0417C28.1713 15.4652 28.3006 15.4446 28.422 15.399C28.5434 15.3533 28.6543 15.2836 28.748 15.1939C28.8417 15.1043 28.9163 14.9966 28.9673 14.8773C29.0182 14.7581 29.0445 14.6297 29.0445 14.5C29.0445 14.3703 29.0182 14.242 28.9673 14.1227C28.9163 14.0035 28.8417 13.8958 28.748 13.8061C28.6543 13.7165 28.5434 13.6467 28.422 13.6011C28.3006 13.5554 28.1713 13.5349 28.0417 13.5406Z" fill="white"/>
<path d="M14.5005 6.36987C14.7547 6.36987 14.9985 6.26888 15.1782 6.08913C15.358 5.90938 15.4589 5.66559 15.4589 5.41138V0.962258C15.4589 0.708054 15.358 0.464257 15.1782 0.284508C14.9985 0.104758 14.7547 0.00378418 14.5005 0.00378418C14.2463 0.00378418 14.0025 0.104758 13.8227 0.284508C13.643 0.464257 13.542 0.708054 13.542 0.962258V5.41514C13.543 5.66869 13.6444 5.91152 13.824 6.09046C14.0037 6.2694 14.2469 6.36987 14.5005 6.36987Z" fill="white"/>
<path d="M10.136 6.46925C10.2085 6.64484 10.3316 6.79494 10.4895 6.90047C10.6475 7.006 10.8333 7.06222 11.0232 7.06197C11.2128 7.0616 11.3981 7.00511 11.5556 6.89963C11.7132 6.79415 11.836 6.6444 11.9086 6.46925C11.9568 6.35301 11.9816 6.22841 11.9816 6.10256C11.9816 5.97671 11.9568 5.85209 11.9086 5.73586L10.9313 3.37624C10.8832 3.25985 10.8126 3.15409 10.7235 3.06499C10.6345 2.9759 10.5288 2.9052 10.4125 2.85696C10.2961 2.80871 10.1714 2.78386 10.0454 2.78381C9.91949 2.78376 9.79475 2.80852 9.67836 2.85667C9.56198 2.90483 9.45623 2.97544 9.36713 3.06447C9.27803 3.1535 9.20734 3.2592 9.15909 3.37555C9.11085 3.4919 9.08599 3.61661 9.08594 3.74256C9.08589 3.86852 9.11066 3.99325 9.15882 4.10964L10.136 6.46925Z" fill="white"/>
<path d="M3.3763 10.9297L5.73781 11.9088C5.85695 11.957 5.98443 11.9812 6.11294 11.98C6.33533 11.9819 6.55143 11.9063 6.72424 11.7664C6.89704 11.6264 7.01579 11.4306 7.06013 11.2127C7.10447 10.9948 7.07165 10.7682 6.96728 10.5718C6.86292 10.3754 6.69351 10.2214 6.48808 10.1362L4.12845 9.15714C4.0119 9.10884 3.88699 9.08398 3.76083 9.08398C3.63466 9.08398 3.50975 9.10884 3.3932 9.15714C3.27681 9.20516 3.17111 9.27582 3.08224 9.36501C2.99337 9.4542 2.92311 9.56015 2.87551 9.67671C2.77848 9.91156 2.77847 10.1753 2.87551 10.4101C2.97254 10.645 3.1587 10.8318 3.3932 10.9297H3.3763Z" fill="white"/>
<path d="M6.37216 14.4991C6.37216 14.2449 6.27118 14.0011 6.09143 13.8213C5.91168 13.6416 5.66787 13.5406 5.41367 13.5406H0.960786C0.831225 13.5349 0.701846 13.5554 0.580451 13.6011C0.459056 13.6467 0.34818 13.7165 0.254473 13.8061C0.160766 13.8958 0.0861881 14.0035 0.035238 14.1227C-0.0157122 14.242 -0.0419922 14.3703 -0.0419922 14.5C-0.0419922 14.6297 -0.0157122 14.7581 0.035238 14.8773C0.0861881 14.9966 0.160766 15.1043 0.254473 15.1939C0.34818 15.2836 0.459056 15.3533 0.580451 15.399C0.701846 15.4446 0.831225 15.4652 0.960786 15.4594H5.41367C5.66804 15.4589 5.91185 15.3575 6.09154 15.1775C6.27124 14.9975 6.37216 14.7535 6.37216 14.4991Z" fill="white"/>
<path d="M6.4714 18.8638C6.70623 18.7663 6.89281 18.5796 6.99021 18.3447C7.08761 18.1098 7.08788 17.8459 6.99097 17.6108C6.94288 17.4944 6.87231 17.3886 6.7833 17.2994C6.69428 17.2103 6.58857 17.1395 6.4722 17.0913C6.35583 17.043 6.23108 17.0182 6.1051 17.0182C5.97912 17.0182 5.8544 17.043 5.73802 17.0913L3.37651 18.0685C3.26013 18.1165 3.15445 18.1872 3.06558 18.2764C2.97671 18.3655 2.90642 18.4715 2.85882 18.588C2.80955 18.704 2.78418 18.8287 2.78418 18.9547C2.78418 19.0808 2.80955 19.2055 2.85882 19.3214C2.90691 19.4379 2.97748 19.5437 3.06649 19.6329C3.15551 19.722 3.26122 19.7927 3.37759 19.841C3.49396 19.8892 3.61871 19.9141 3.74469 19.9141C3.87067 19.9141 3.99542 19.8893 4.11179 19.841L6.4714 18.8638Z" fill="white"/>
<path d="M7.39182 20.248L4.24441 23.3954C4.07602 23.5776 3.98466 23.8178 3.98944 24.0658C3.99422 24.3139 4.09477 24.5504 4.27006 24.7259C4.44534 24.9015 4.68177 25.0024 4.92978 25.0075C5.17779 25.0126 5.41814 24.9216 5.60053 24.7534L8.74794 21.6041C8.83698 21.5151 8.90763 21.4094 8.95582 21.293C9.00401 21.1767 9.02881 21.052 9.02881 20.9261C9.02881 20.8002 9.00401 20.6755 8.95582 20.5591C8.90763 20.4428 8.83698 20.3371 8.74794 20.248C8.6589 20.159 8.55319 20.0883 8.43684 20.0402C8.3205 19.992 8.19581 19.9672 8.06988 19.9672C7.94395 19.9672 7.81926 19.992 7.70292 20.0402C7.58657 20.0883 7.48087 20.159 7.39182 20.248Z" fill="white"/>
<path d="M11.3893 22.0094C11.2729 21.9611 11.1482 21.9363 11.0222 21.9363C10.8962 21.9363 10.7715 21.9611 10.6551 22.0094C10.5387 22.0576 10.433 22.1284 10.344 22.2175C10.255 22.3067 10.1844 22.4125 10.1363 22.5289L9.15909 24.8885C9.11081 25.005 9.08596 25.1299 9.08594 25.256C9.08592 25.3821 9.11073 25.507 9.15898 25.6236C9.20722 25.7401 9.27794 25.846 9.36711 25.9351C9.45627 26.0243 9.56213 26.0951 9.67864 26.1434C9.79766 26.1922 9.92514 26.217 10.0538 26.2165C10.2437 26.2168 10.4295 26.1606 10.5875 26.055C10.7455 25.9495 10.8685 25.7994 10.941 25.6238L11.9182 23.2623C11.9665 23.1459 11.9913 23.0212 11.9913 22.8952C11.9913 22.7692 11.9664 22.6445 11.9182 22.5281C11.8699 22.4118 11.7992 22.306 11.7101 22.217C11.6209 22.128 11.5151 22.0574 11.3987 22.0094H11.3893Z" fill="white"/>
<path d="M14.5005 22.6283C14.2464 22.6288 14.0029 22.7299 13.8233 22.9096C13.6436 23.0892 13.5425 23.3327 13.542 23.5868V28.0396C13.542 28.2939 13.643 28.5376 13.8227 28.7174C14.0025 28.8971 14.2463 28.9981 14.5005 28.9981C14.7547 28.9981 14.9985 28.8971 15.1782 28.7174C15.358 28.5376 15.4589 28.2939 15.4589 28.0396V23.5868C15.4584 23.3327 15.3573 23.0892 15.1777 22.9096C14.998 22.7299 14.7545 22.6288 14.5005 22.6283Z" fill="white"/>
<path d="M18.8658 22.5326C18.7934 22.357 18.6706 22.2068 18.5128 22.1012C18.355 21.9955 18.1694 21.9391 17.9795 21.9391C17.7896 21.9391 17.604 21.9955 17.4462 22.1012C17.2884 22.2068 17.1655 22.357 17.0932 22.5326C17.044 22.6486 17.0186 22.7733 17.0186 22.8993C17.0186 23.0253 17.044 23.15 17.0932 23.266L18.0705 25.6275C18.1428 25.8032 18.2657 25.9534 18.4237 26.059C18.5818 26.1646 18.7676 26.2207 18.9577 26.2202C19.0831 26.2193 19.2073 26.1944 19.3234 26.147C19.4399 26.0988 19.5458 26.028 19.6349 25.9388C19.7241 25.8496 19.7948 25.7437 19.8431 25.6272C19.8913 25.5107 19.9162 25.3858 19.9161 25.2597C19.9161 25.1336 19.8913 25.0087 19.843 24.8922L18.8658 22.5326Z" fill="white"/>
<path d="M25.6254 18.0684L23.2639 17.0931C23.1476 17.0448 23.0228 17.02 22.8968 17.02C22.7709 17.02 22.6461 17.0449 22.5298 17.0931C22.4134 17.1414 22.3077 17.2121 22.2186 17.3012C22.1296 17.3904 22.0591 17.4962 22.011 17.6127C21.9141 17.8477 21.9143 18.1117 22.0117 18.3465C22.1091 18.5814 22.2957 18.7681 22.5305 18.8656L24.8902 19.8428C25.1227 19.9279 25.3792 19.9199 25.606 19.8204C25.8327 19.7209 26.0123 19.5377 26.1072 19.3089C26.2021 19.0802 26.205 18.8236 26.1152 18.5928C26.0254 18.362 25.8499 18.1748 25.6254 18.0703V18.0684Z" fill="white"/>
<path d="M22.5311 10.1362C22.4147 10.1843 22.3089 10.2549 22.2197 10.3439C22.1306 10.4329 22.0598 10.5387 22.0116 10.655C21.9633 10.7714 21.9385 10.8961 21.9385 11.0221C21.9385 11.1481 21.9633 11.2728 22.0115 11.3892C22.0841 11.5646 22.2072 11.7144 22.3652 11.8197C22.5232 11.9249 22.7089 11.9807 22.8988 11.98C23.0243 11.9804 23.1487 11.9555 23.2645 11.9069L25.626 10.9297C25.8009 10.8567 25.9503 10.7336 26.0553 10.5759C26.1604 10.4182 26.2165 10.2329 26.2165 10.0434C26.2165 9.85389 26.1604 9.66863 26.0553 9.51093C25.9503 9.35322 25.8009 9.23013 25.626 9.15714C25.5094 9.10884 25.3845 9.08398 25.2584 9.08398C25.1322 9.08398 25.0073 9.10884 24.8907 9.15714L22.5311 10.1362Z" fill="white"/>
<path d="M20.9269 9.02765C21.0529 9.02798 21.1777 9.00347 21.2942 8.95552C21.4107 8.90756 21.5166 8.8371 21.6059 8.74818L24.7533 5.59889C24.9331 5.41906 25.0342 5.17516 25.0342 4.92083C25.0342 4.66651 24.9331 4.42261 24.7533 4.24277C24.5735 4.06294 24.3295 3.96191 24.0752 3.96191C23.8209 3.96191 23.577 4.06294 23.3972 4.24277L20.2498 7.39018C20.1153 7.52413 20.0237 7.69496 19.9864 7.88104C19.9492 8.06712 19.968 8.26008 20.0405 8.43545C20.113 8.61082 20.236 8.76072 20.3938 8.86614C20.5516 8.97157 20.7371 9.02778 20.9269 9.02765Z" fill="white"/>
<path d="M17.611 6.98882C17.7275 7.03709 17.8524 7.06195 17.9785 7.06197C18.1046 7.06199 18.2295 7.03716 18.346 6.98892C18.4625 6.94067 18.5684 6.86994 18.6576 6.78078C18.7468 6.69161 18.8175 6.58576 18.8658 6.46925L19.843 4.10964C19.8912 3.99325 19.9159 3.86852 19.9159 3.74256C19.9158 3.61661 19.891 3.4919 19.8427 3.37555C19.7945 3.2592 19.7238 3.1535 19.6347 3.06447C19.5456 2.97544 19.4398 2.90483 19.3235 2.85667C19.2071 2.80852 19.0823 2.78376 18.9564 2.78381C18.8304 2.78386 18.7057 2.80871 18.5894 2.85696C18.473 2.9052 18.3673 2.9759 18.2783 3.06499C18.1893 3.15409 18.1187 3.25985 18.0705 3.37624L17.0933 5.73586C16.9962 5.97071 16.9963 6.23443 17.0933 6.46928C17.1903 6.70413 17.3765 6.89094 17.611 6.98882Z" fill="white"/>
</g>
<defs>
<clipPath id="clip0_1_3543">
<rect width="29" height="29" fill="white"/>
</clipPath>
</defs>
</svg>
