<svg width="31" height="28" viewBox="0 0 31 28" fill="none" xmlns="http://www.w3.org/2000/svg">
<g clip-path="url(#clip0_1_3589)">
<path d="M29.1685 10.0108C28.3123 10.0108 27.4561 10.0108 26.6029 10.0108C26.3683 10.0108 26.2982 9.94371 26.2982 9.70598V5.37818C26.2982 5.13568 26.2019 4.90312 26.0305 4.73165C25.8591 4.56019 25.6266 4.46385 25.3841 4.46385H24.1379C23.8955 4.46385 23.663 4.56019 23.4915 4.73165C23.3201 4.90312 23.2238 5.13568 23.2238 5.37818C23.2238 6.80452 23.2238 9.37073 23.2238 9.66636C23.2238 9.96199 23.1507 10.0047 22.8887 10.0016C21.4525 9.98942 20.0184 9.98942 18.5863 10.0016C18.4882 10.0134 18.3891 9.989 18.3077 9.93287C18.2264 9.87674 18.1683 9.79279 18.1445 9.69684C17.59 8.37716 15.9415 4.30232 15.3809 2.25728C15.2244 1.68648 14.8846 1.183 14.4139 0.824448C13.9431 0.465901 13.3674 0.272197 12.7757 0.273197H6.70004C6.18866 0.273157 5.69787 0.474674 5.334 0.834075C4.97012 1.19348 4.76248 1.68182 4.75606 2.19328C4.72864 4.51872 4.67989 9.18481 4.67989 10.5685V11.5834C4.00651 11.3487 3.69875 11.3487 3.35749 11.6687C2.79888 12.1929 2.25653 12.7354 1.73041 13.2962C1.39525 13.6528 1.30687 14.1709 1.62681 14.497C2.05339 14.9298 1.90713 15.2803 1.66337 15.6948C1.6116 15.7903 1.57461 15.893 1.55368 15.9996C1.55085 16.0594 1.53517 16.118 1.50771 16.1712C1.48025 16.2245 1.44164 16.2712 1.39453 16.3082C1.34741 16.3452 1.29288 16.3717 1.23465 16.3857C1.17641 16.3998 1.11583 16.4011 1.05702 16.3897C0.92098 16.3856 0.785513 16.4089 0.65867 16.4583C0.531826 16.5077 0.416204 16.582 0.318692 16.677C0.22118 16.772 0.143764 16.8856 0.0910612 17.0111C0.038358 17.1367 0.0114409 17.2715 0.011911 17.4076C0.011911 18.1513 0.011911 18.8919 0.011911 19.6355C-0.0043287 19.8723 0.0721018 20.1061 0.225055 20.2875C0.378008 20.469 0.595499 20.5838 0.83155 20.6078C1.41352 20.6261 1.57805 20.9369 1.69993 21.388C1.74258 21.5297 1.80408 21.665 1.88276 21.7903C2.0016 21.9823 1.95893 22.1134 1.79439 22.281C1.69011 22.369 1.6052 22.4776 1.545 22.6C1.48479 22.7224 1.4506 22.856 1.44459 22.9923C1.43858 23.1286 1.46088 23.2647 1.51007 23.392C1.55927 23.5192 1.63429 23.6349 1.73041 23.7317C2.25145 24.2956 2.79989 24.835 3.35749 25.3592C3.69266 25.664 4.19238 25.7829 4.49708 25.4781C4.9785 24.9996 5.36242 25.2099 5.80423 25.4354C5.89879 25.4911 6.00166 25.5312 6.10893 25.5543C6.36183 25.5939 6.41362 25.7371 6.41362 25.9749C6.40657 26.1178 6.42874 26.2606 6.47879 26.3946C6.52884 26.5286 6.6057 26.651 6.70467 26.7543C6.80365 26.8576 6.92266 26.9396 7.05441 26.9953C7.18617 27.0509 7.32789 27.0792 7.47092 27.0781C8.19915 27.0995 8.92739 27.0964 9.65867 27.0781C10.1614 27.0781 10.652 26.7185 10.6428 26.2644C10.6428 25.6549 10.9841 25.5116 11.4259 25.3744C11.5585 25.3351 11.6855 25.2787 11.8037 25.2068C11.8419 25.177 11.8857 25.1552 11.9325 25.1428C11.9793 25.1304 12.0282 25.1277 12.0761 25.1348C12.124 25.142 12.1699 25.1588 12.2111 25.1843C12.2523 25.2097 12.2879 25.2433 12.3156 25.283C12.4051 25.3859 12.5146 25.4696 12.6375 25.5288C12.7603 25.5881 12.8939 25.6217 13.0301 25.6277C13.1664 25.6337 13.3024 25.6119 13.4299 25.5636C13.5575 25.5154 13.6739 25.4417 13.7721 25.347C14.3358 24.8259 14.8751 24.2803 15.3961 23.7195C15.7191 23.3751 15.8075 22.854 15.4967 22.5492C15.064 22.1164 15.2194 21.7568 15.4388 21.3453C15.4999 21.2355 15.545 21.1174 15.5729 20.9948C15.6247 20.7541 15.7343 20.6596 16.0055 20.6596C16.1477 20.6689 16.2903 20.6486 16.4243 20.6C16.5583 20.5515 16.6808 20.4758 16.7841 20.3776C16.8874 20.2794 16.9693 20.1609 17.0246 20.0295C17.0799 19.8981 17.1075 19.7567 17.1055 19.6142C17.1055 19.3094 17.2091 19.2637 17.4772 19.2698C18.5589 19.2851 19.6406 19.2698 20.7223 19.2698C20.8014 19.2814 20.8822 19.273 20.9573 19.2453C21.0323 19.2176 21.0992 19.1716 21.1519 19.1113C22.9161 17.0267 25.3659 16.4202 27.907 17.4351C28.1295 17.5235 28.227 17.4899 28.4494 17.173L30.6158 14.8201C30.8419 14.5747 30.9699 14.2547 30.9753 13.921L30.9997 12.3697C30.9875 10.7209 30.5305 10.0108 29.1685 10.0108ZM8.55564 22.3724C8.03782 22.3787 7.52402 22.2808 7.04482 22.0844C6.56562 21.888 6.13082 21.5972 5.76631 21.2292C5.4018 20.8613 5.11502 20.4237 4.92305 19.9427C4.73108 19.4616 4.63785 18.9468 4.64889 18.4289C4.65993 17.911 4.77502 17.4006 4.98732 16.9282C5.19962 16.4557 5.5048 16.0308 5.88466 15.6787C6.26453 15.3267 6.71131 15.0546 7.19845 14.8789C7.68558 14.7031 8.20311 14.6271 8.72019 14.6555C9.72015 14.7104 10.6596 15.1519 11.3403 15.8867C12.021 16.6215 12.3895 17.5921 12.3682 18.5935C12.3468 19.595 11.9372 20.549 11.2259 21.2541C10.5145 21.9592 9.55704 22.3602 8.55564 22.3724ZM14.1194 10.0108C13.2053 10.0108 12.2912 10.0108 11.3589 10.0108C10.2772 10.0108 9.19553 10.0108 8.11385 10.0108C7.86704 10.0108 7.76344 9.96809 7.76649 9.6877C7.76649 8.34059 7.76649 4.48823 7.76649 3.14113C7.76649 2.90645 7.83047 2.83636 8.07118 2.8516C9.50733 2.8516 10.9414 2.8516 12.3735 2.8516C12.4598 2.85223 12.5435 2.88077 12.6121 2.93296C12.6808 2.98516 12.7307 3.05819 12.7544 3.14113L14.5125 9.50788C14.53 9.56775 14.5329 9.6309 14.5211 9.69214C14.5094 9.75338 14.4832 9.81094 14.4448 9.86007C14.4064 9.9092 14.3569 9.94848 14.3003 9.97468C14.2437 10.0009 14.1817 10.0132 14.1194 10.0108Z" fill="#C3C3C3"/>
<path d="M25.5613 18.2214C24.6633 18.216 23.7839 18.4774 23.0347 18.9725C22.2854 19.4677 21.7 20.1742 21.3528 21.0026C21.0055 21.8309 20.9119 22.7438 21.084 23.6254C21.2561 24.507 21.686 25.3176 22.3193 25.9545C22.9526 26.5913 23.7607 27.0257 24.6411 27.2026C25.5216 27.3795 26.4347 27.2909 27.2647 26.948C28.0947 26.6051 28.8042 26.0234 29.3032 25.2766C29.8023 24.5298 30.0684 23.6516 30.0678 22.7534C30.0694 21.5552 29.596 20.4052 28.7512 19.5556C27.9064 18.706 26.7593 18.2262 25.5613 18.2214ZM25.5613 24.9874C25.1182 24.9959 24.6826 24.8721 24.3102 24.6319C23.9377 24.3917 23.6452 24.046 23.47 23.6388C23.2948 23.2316 23.2448 22.7814 23.3265 22.3457C23.4082 21.91 23.6178 21.5085 23.9285 21.1925C24.2393 20.8764 24.6372 20.6601 25.0714 20.5712C25.5055 20.4823 25.9564 20.5248 26.3663 20.6933C26.7762 20.8618 27.1267 21.1486 27.373 21.5171C27.6193 21.8857 27.7502 22.3193 27.7491 22.7625C27.7531 23.0517 27.6999 23.3389 27.5926 23.6074C27.4853 23.876 27.326 24.1207 27.1238 24.3275C26.9216 24.5342 26.6806 24.699 26.4145 24.8122C26.1485 24.9255 25.8627 24.985 25.5735 24.9874H25.5613Z" fill="#C3C3C3"/>
</g>
<defs>
<clipPath id="clip0_1_3589">
<rect width="31" height="27" fill="white" transform="translate(0 0.291504)"/>
</clipPath>
</defs>
</svg>
