<svg width="44" height="25" viewBox="0 0 44 25" fill="none" xmlns="http://www.w3.org/2000/svg">
<g clip-path="url(#clip0_1_3581)">
<path d="M28.0708 0.291504H0.894014C0.400264 0.291504 0 0.681949 0 1.16359V14.9166C0 15.3982 0.400264 15.7887 0.894014 15.7887H28.0708C28.5646 15.7887 28.9649 15.3982 28.9649 14.9166V1.16359C28.9649 0.681949 28.5646 0.291504 28.0708 0.291504Z" fill="#C3C3C3"/>
<path d="M13.9116 17.527H1.14774C0.844385 17.527 0.553378 17.6441 0.338311 17.8528C0.123244 18.0615 0.00159658 18.3448 0 18.6407V20.5498C0.000843629 20.8314 0.110974 21.1021 0.308226 21.3077C0.505478 21.5132 0.775218 21.6382 1.06316 21.6576C1.19867 22.3952 1.59573 23.0628 2.18486 23.5436C2.774 24.0245 3.5177 24.2879 4.28585 24.2879C5.05401 24.2879 5.7977 24.0245 6.38684 23.5436C6.97597 23.0628 7.37304 22.3952 7.50854 21.6576H7.73204C7.87456 22.3926 8.27654 23.0556 8.86813 23.5315C9.45972 24.0074 10.2035 24.266 10.9703 24.2625C11.7371 24.259 12.4784 23.9936 13.0654 23.5123C13.6524 23.031 14.048 22.3644 14.1834 21.6281C14.437 21.5721 14.6635 21.4337 14.826 21.2357C14.9884 21.0376 15.077 20.7917 15.0774 20.538V18.6289C15.0751 18.4819 15.043 18.3367 14.9832 18.2018C14.9233 18.0668 14.8368 17.9447 14.7285 17.8424C14.6202 17.74 14.4924 17.6595 14.3522 17.6054C14.2121 17.5513 14.0623 17.5247 13.9116 17.527ZM4.24658 23.1072C3.83679 23.1072 3.43622 22.9886 3.09549 22.7665C2.75477 22.5445 2.4892 22.2288 2.33238 21.8595C2.17556 21.4902 2.13452 21.0838 2.21447 20.6917C2.29442 20.2997 2.49175 19.9396 2.78152 19.6569C3.07128 19.3742 3.44044 19.1817 3.84235 19.1038C4.24427 19.0258 4.66089 19.0658 5.03949 19.2188C5.41809 19.3717 5.74166 19.6308 5.96933 19.9632C6.197 20.2955 6.31852 20.6863 6.31852 21.086C6.31709 21.6145 6.1041 22.1216 5.72496 22.4992C5.34582 22.8767 4.83053 23.0949 4.28887 23.1072H4.24658ZM10.8913 23.1072C10.4815 23.1072 10.0809 22.9886 9.74019 22.7665C9.39947 22.5445 9.1339 22.2288 8.97708 21.8595C8.82026 21.4902 8.77922 21.0838 8.85917 20.6917C8.93912 20.2997 9.13645 19.9396 9.42622 19.6569C9.71598 19.3742 10.0851 19.1817 10.4871 19.1038C10.889 19.0258 11.3056 19.0658 11.6842 19.2188C12.0628 19.3717 12.3864 19.6308 12.614 19.9632C12.8417 20.2955 12.9632 20.6863 12.9632 21.086C12.962 21.6106 12.7524 22.1142 12.3784 22.4911C12.0044 22.8681 11.4951 23.0889 10.9577 23.1072H10.8913Z" fill="#C3C3C3"/>
<path d="M43.6679 10.951L39.6267 4.66376C39.4333 4.36441 39.1661 4.11701 38.8496 3.94411C38.5331 3.77121 38.1773 3.67829 37.8145 3.67383H33.1934C32.9089 3.67383 32.6272 3.72858 32.3644 3.83496C32.1017 3.94134 31.863 4.09726 31.6621 4.29377C31.4612 4.49028 31.3021 4.72352 31.1937 4.98014C31.0854 5.23676 31.0301 5.5117 31.0309 5.78922V15.3173C31.0309 15.5951 30.9748 15.8702 30.8658 16.1269C30.7568 16.3835 30.5971 16.6167 30.3957 16.8131C30.1943 17.0096 29.9553 17.1654 29.6922 17.2717C29.4291 17.378 29.1471 17.4327 28.8623 17.4327H20.937C20.3634 17.4327 19.8134 17.655 19.4078 18.0506C19.0023 18.4462 18.7744 18.9828 18.7744 19.5422V21.4514C18.7744 21.5061 18.7967 21.5585 18.8364 21.5972C18.876 21.6359 18.9298 21.6576 18.9859 21.6576H20.4175C20.5598 22.3898 20.9596 23.0505 21.5479 23.5259C22.1362 24.0012 22.8762 24.2613 23.6401 24.2613C24.4041 24.2613 25.1441 24.0012 25.7324 23.5259C26.3208 23.0505 26.7206 22.3898 26.8628 21.6576H35.3681C35.5103 22.3898 35.9101 23.0505 36.4985 23.5259C37.0868 24.0012 37.8268 24.2613 38.5907 24.2613C39.3547 24.2613 40.0947 24.0012 40.683 23.5259C41.2713 23.0505 41.6711 22.3898 41.8134 21.6576C42.3886 21.6576 42.9401 21.4348 43.3468 21.038C43.7535 20.6413 43.982 20.1033 43.982 19.5422V12.0824C43.9896 11.6838 43.8807 11.2914 43.6679 10.951ZM23.6432 23.0954C23.2334 23.0954 22.8328 22.9768 22.4921 22.7548C22.1513 22.5327 21.8858 22.217 21.729 21.8477C21.5721 21.4784 21.5311 21.072 21.6111 20.68C21.691 20.2879 21.8883 19.9278 22.1781 19.6451C22.4679 19.3625 22.8371 19.17 23.239 19.092C23.6409 19.014 24.0575 19.054 24.4361 19.207C24.8147 19.36 25.1382 19.619 25.3659 19.9514C25.5936 20.2838 25.7151 20.6745 25.7151 21.0743C25.7159 21.3405 25.6629 21.6042 25.5593 21.8504C25.4556 22.0966 25.3032 22.3205 25.1108 22.5093C24.9184 22.6981 24.6897 22.848 24.4379 22.9506C24.1861 23.0532 23.9161 23.1064 23.6432 23.1072V23.0954ZM34.3351 11.3399V7.2152C34.3367 6.96251 34.4403 6.7206 34.6235 6.54192C34.8067 6.36323 35.0546 6.26216 35.3137 6.26062H38.2857C38.4775 6.26255 38.6645 6.31943 38.8235 6.42419C38.9824 6.52895 39.1063 6.67698 39.1797 6.84986L41.0402 10.9746C41.1051 11.1201 41.132 11.2789 41.1185 11.437C41.1051 11.5951 41.0517 11.7475 40.9632 11.8806C40.8746 12.0136 40.7537 12.1232 40.6111 12.1996C40.4685 12.2759 40.3088 12.3166 40.1462 12.3181H35.3137C35.1844 12.3173 35.0565 12.2917 34.9374 12.2427C34.8182 12.1937 34.7101 12.1223 34.6192 12.0326C34.5283 11.9429 34.4565 11.8365 34.4077 11.7197C34.359 11.6029 34.3343 11.4778 34.3351 11.3517V11.3399ZM38.5937 23.0954C38.184 23.0954 37.7834 22.9768 37.4427 22.7548C37.1019 22.5327 36.8364 22.217 36.6795 21.8477C36.5227 21.4784 36.4817 21.072 36.5616 20.68C36.6416 20.2879 36.8389 19.9278 37.1287 19.6451C37.4184 19.3625 37.7876 19.17 38.1895 19.092C38.5915 19.014 39.0081 19.054 39.3867 19.207C39.7652 19.36 40.0888 19.619 40.3165 19.9514C40.5442 20.2838 40.6657 20.6745 40.6657 21.0743C40.6665 21.3405 40.6135 21.6042 40.5098 21.8504C40.4061 22.0966 40.2538 22.3205 40.0614 22.5093C39.869 22.6981 39.6403 22.848 39.3885 22.9506C39.1367 23.0532 38.8666 23.1064 38.5937 23.1072V23.0954Z" fill="#C3C3C3"/>
</g>
<defs>
<clipPath id="clip0_1_3581">
<rect width="44" height="24" fill="white" transform="translate(0 0.291504)"/>
</clipPath>
</defs>
</svg>
