<svg width="53" height="53" viewBox="0 0 53 53" fill="none" xmlns="http://www.w3.org/2000/svg">
<g clip-path="url(#clip0_1_1674)">
<path d="M39.6538 42.1457L37.8269 43.9725C35.6702 46.1246 32.7524 47.3379 29.7136 47.3462C26.6749 47.3544 23.7633 46.157 21.6177 44.0167L8.25734 30.6563C6.11686 28.5106 4.91934 25.599 4.92743 22.5601C4.93552 19.5212 6.14857 16.6032 8.3005 14.4461L10.1274 12.6192C10.8381 11.9101 11.7995 11.5103 12.8009 11.5077C13.8022 11.505 14.7615 11.8996 15.4685 12.605L19.8098 16.9464C20.5152 17.6533 20.9098 18.6127 20.9072 19.614C20.9045 20.6153 20.5047 21.5768 19.7956 22.2875L17.7252 24.3578C17.2777 24.807 17.0255 25.4143 17.024 26.0467C17.0225 26.6791 17.2718 27.2849 17.7172 27.7314L24.5406 34.5548C24.9873 35.0004 25.5934 35.2497 26.226 35.2481C26.8587 35.2464 27.4661 34.9938 27.9152 34.5458L29.9855 32.4755C30.6962 31.7663 31.6577 31.3666 32.6591 31.3639C33.6604 31.3612 34.6197 31.7559 35.3267 32.4612L39.668 36.8026C40.374 37.5096 40.769 38.4694 40.7663 39.4712C40.7637 40.473 40.3635 41.4349 39.6538 42.1457ZM9.28115 15.4267C7.39001 17.322 6.32394 19.8861 6.31683 22.5564C6.30972 25.2267 7.36216 27.7851 9.24323 29.6704L22.6036 43.0308C24.489 44.9114 27.0473 45.9635 29.7173 45.9562C32.3874 45.9489 34.9512 44.8828 36.8463 42.9919L38.6731 41.165C39.1211 40.716 39.3737 40.1085 39.3754 39.4759C39.3771 38.8432 39.1277 38.2371 38.6821 37.7904L34.3408 33.4491C33.8941 33.0035 33.288 32.7542 32.6554 32.7558C32.0227 32.7575 31.4152 33.0101 30.9662 33.4581L28.8958 35.5284C28.1851 36.2376 27.2236 36.6373 26.2223 36.64C25.221 36.6427 24.2616 36.248 23.5547 35.5427L16.7304 28.7183C16.0246 28.0115 15.6295 27.052 15.632 26.0504C15.6345 25.0489 16.0343 24.0871 16.7436 23.3762L18.814 21.3058C19.262 20.8568 19.5145 20.2493 19.5162 19.6167C19.5179 18.9841 19.2686 18.3779 18.8229 17.9313L14.4826 13.5909C14.0359 13.1453 13.4298 12.896 12.7972 12.8976C12.1645 12.8993 11.5571 13.1519 11.108 13.5999L9.28115 15.4267Z" fill="black"/>
<path d="M18.2447 23.8384C18.1139 23.9691 17.9369 24.0428 17.7525 24.0433C17.5681 24.0438 17.3914 23.971 17.2614 23.841L10.8048 17.3844C10.6747 17.2543 10.602 17.0777 10.6024 16.8933C10.6029 16.7089 10.6767 16.5318 10.8074 16.4011C10.9381 16.2704 11.1152 16.1966 11.2996 16.1962C11.484 16.1957 11.6606 16.2684 11.7907 16.3985L18.2443 22.8521C18.3094 22.9164 18.361 22.9929 18.3962 23.0774C18.4314 23.1618 18.4496 23.2524 18.4496 23.3441C18.4497 23.4357 18.4316 23.5266 18.3964 23.6114C18.3612 23.6963 18.3096 23.7734 18.2447 23.8384Z" fill="black"/>
<path d="M38.103 43.6965C37.9723 43.8272 37.7953 43.901 37.6109 43.9014C37.4265 43.9019 37.2498 43.8292 37.1198 43.6991L30.6661 37.2455C30.5361 37.1154 30.4633 36.9388 30.4638 36.7544C30.4643 36.57 30.538 36.3929 30.6687 36.2622C30.7995 36.1314 30.9765 36.0577 31.1609 36.0572C31.3453 36.0567 31.522 36.1295 31.652 36.2596L38.1057 42.7132C38.1701 42.7776 38.2211 42.8541 38.2558 42.9384C38.2905 43.0227 38.3082 43.113 38.308 43.2043C38.3077 43.2956 38.2895 43.3861 38.2544 43.4705C38.2192 43.555 38.1678 43.6318 38.103 43.6965Z" fill="black"/>
<path d="M31.9626 26.6659C31.8492 26.7781 31.701 26.8481 31.5428 26.8644C31.3845 26.8808 31.2257 26.8424 31.0929 26.7557C30.96 26.6689 30.8612 26.5391 30.8128 26.3879C30.7644 26.2367 30.7694 26.0732 30.8269 25.9246C31.0037 25.4669 31.0431 24.9683 30.9403 24.49C30.8375 24.0117 30.597 23.5746 30.2484 23.2324C29.8997 22.8903 29.4582 22.658 28.978 22.5642C28.4978 22.4704 27.9999 22.5191 27.5455 22.7043C27.3754 22.7697 27.1869 22.7659 27.0203 22.6938C26.8537 22.6218 26.7223 22.4871 26.6543 22.3188C26.5863 22.1505 26.5871 21.9619 26.6566 21.7934C26.7261 21.6249 26.8586 21.49 27.0259 21.4176C27.7317 21.1296 28.5052 21.0537 29.2514 21.1992C29.9975 21.3448 30.6836 21.7055 31.2254 22.237C31.7671 22.7685 32.1408 23.4475 32.3006 24.1907C32.4603 24.9338 32.3991 25.7086 32.1245 26.4197C32.0887 26.5123 32.0335 26.5963 31.9626 26.6659Z" fill="black"/>
<path d="M37.0921 25.9552C36.9923 26.0553 36.8646 26.123 36.7259 26.1491C36.5872 26.1752 36.4441 26.1586 36.3155 26.1015C36.1869 26.0443 36.079 25.9493 36.006 25.8291C35.9329 25.7089 35.8983 25.5691 35.9067 25.4284C35.968 24.3812 35.8073 23.334 35.4351 22.3557C35.0629 21.3773 34.4876 20.4897 33.7469 19.7513C33.0063 19.0129 32.117 18.4403 31.1375 18.071C30.158 17.7018 29.1104 17.5442 28.0633 17.6087C27.8792 17.6199 27.6986 17.5575 27.5611 17.4352C27.4237 17.313 27.3408 17.1409 27.3306 16.9568C27.3204 16.7727 27.3837 16.5917 27.5067 16.4537C27.6297 16.3156 27.8023 16.2317 27.9864 16.2205C29.229 16.1442 30.4723 16.3313 31.6347 16.7696C32.7972 17.208 33.8525 17.8876 34.7315 18.764C35.6104 19.6403 36.2932 20.6936 36.735 21.8547C37.1768 23.0159 37.3675 24.2586 37.2948 25.5014C37.286 25.6723 37.2137 25.8341 37.0921 25.9552Z" fill="black"/>
<path d="M41.6123 26.3346C41.512 26.4347 41.3837 26.502 41.2445 26.5275C41.1054 26.553 40.962 26.5356 40.8335 26.4775C40.7049 26.4195 40.5973 26.3235 40.525 26.2024C40.4528 26.0813 40.4192 25.9409 40.4289 25.7999C40.5466 24.0989 40.3 22.3944 39.7057 20.8002C39.1114 19.2059 38.1831 17.7587 36.9827 16.5551C35.7823 15.3516 34.3375 14.4194 32.7449 13.8209C31.1522 13.2225 29.4484 12.9714 27.7472 13.0847C27.656 13.0907 27.5646 13.0788 27.4782 13.0495C27.3919 13.0202 27.3122 12.9741 27.2438 12.914C27.1754 12.8538 27.1196 12.7807 27.0795 12.6988C27.0395 12.6169 27.016 12.5278 27.0105 12.4367C27.0049 12.3455 27.0173 12.2541 27.0471 12.1676C27.0768 12.081 27.1233 12.0011 27.1838 11.9324C27.2444 11.8637 27.3178 11.8075 27.3999 11.767C27.482 11.7265 27.5712 11.7026 27.6624 11.6965C29.5611 11.5701 31.4628 11.8502 33.2403 12.5183C35.0179 13.1863 36.6304 14.2267 37.97 15.5701C39.3097 16.9135 40.3457 18.5289 41.0087 20.3083C41.6718 22.0877 41.9467 23.9902 41.815 25.8886C41.8035 26.0566 41.7315 26.2151 41.6123 26.3346Z" fill="black"/>
</g>
<defs>
<clipPath id="clip0_1_1674">
<rect width="31.6775" height="41.7567" fill="white" transform="translate(0.173828 22.5728) rotate(-45)"/>
</clipPath>
</defs>
</svg>
