<svg width="54" height="33" viewBox="0 0 54 33" fill="none" xmlns="http://www.w3.org/2000/svg">
<g clip-path="url(#clip0_1_1686)">
<path d="M48.8395 11.8211L47.3284 6.03252H47.4719C47.6723 6.03252 47.8645 5.95217 48.0062 5.80914C48.1479 5.66612 48.2275 5.47213 48.2275 5.26987V4.94955C48.2255 4.0346 47.864 3.15781 47.2224 2.51155C46.5807 1.8653 45.7113 1.50235 44.8048 1.50236H39.7728V0.739704C39.7728 0.537436 39.6932 0.343451 39.5515 0.200426C39.4098 0.0574009 39.2176 -0.0229492 39.0172 -0.0229492H5.77248C5.57209 -0.0229492 5.37992 0.0574009 5.23823 0.200426C5.09653 0.343451 5.01692 0.537436 5.01692 0.739704V16.3055C5.01692 16.5077 5.09653 16.7017 5.23823 16.8447C5.37992 16.9878 5.57209 17.0681 5.77248 17.0681C5.97287 17.0681 6.16506 16.9878 6.30676 16.8447C6.44845 16.7017 6.52804 16.5077 6.52804 16.3055V1.52524H38.2616V16.3893C38.2616 16.5916 38.3413 16.7856 38.4829 16.9286C38.6246 17.0717 38.8168 17.152 39.0172 17.152C39.2176 17.152 39.4098 17.0717 39.5515 16.9286C39.6932 16.7856 39.7728 16.5916 39.7728 16.3893V13.3387H48.4164C49.4053 13.3419 50.3593 13.7081 51.1003 14.3691C51.8413 15.0301 52.3188 15.9406 52.4435 16.9308H48.8244C48.624 16.9308 48.4318 17.0112 48.2901 17.1542C48.1484 17.2972 48.0688 17.4912 48.0688 17.6935V19.3484C48.0708 20.2965 48.4448 21.2051 49.1089 21.8754C49.7731 22.5458 50.6732 22.9233 51.6124 22.9253H52.4964V26.5174H49.8822C49.5647 25.5034 48.9354 24.618 48.0856 23.9895C47.2357 23.361 46.2096 23.0221 45.1561 23.0221C44.1026 23.0221 43.0765 23.361 42.2267 23.9895C41.3769 24.618 40.7476 25.5034 40.4301 26.5174H39.7728V19.9357C39.7728 19.7334 39.6932 19.5394 39.5515 19.3964C39.4098 19.2534 39.2176 19.173 39.0172 19.173C38.8168 19.173 38.6246 19.2534 38.4829 19.3964C38.3413 19.5394 38.2616 19.7334 38.2616 19.9357V26.5174H20.385C20.0675 25.5034 19.4382 24.618 18.5884 23.9895C17.7386 23.361 16.7125 23.0221 15.659 23.0221C14.6055 23.0221 13.5794 23.361 12.7296 23.9895C11.8798 24.618 11.2505 25.5034 10.933 26.5174H6.50538V23.4668H10.8499C11.0502 23.4668 11.2424 23.3864 11.3841 23.2434C11.5258 23.1004 11.6054 22.9064 11.6054 22.7041C11.6054 22.5018 11.5258 22.3079 11.3841 22.1648C11.2424 22.0218 11.0502 21.9415 10.8499 21.9415H0.755562C0.555174 21.9415 0.362982 22.0218 0.221287 22.1648C0.0795915 22.3079 0 22.5018 0 22.7041C0 22.9064 0.0795915 23.1004 0.221287 23.2434C0.362982 23.3864 0.555174 23.4668 0.755562 23.4668H4.99425V27.28C4.99425 27.4823 5.07387 27.6763 5.21556 27.8193C5.35726 27.9623 5.54943 28.0427 5.74981 28.0427H10.7063C10.7063 29.3706 11.2289 30.6441 12.1591 31.583C13.0894 32.522 14.351 33.0495 15.6666 33.0495C16.9821 33.0495 18.2438 32.522 19.174 31.583C20.1042 30.6441 20.6268 29.3706 20.6268 28.0427H40.1959C40.2658 29.3198 40.8177 30.5214 41.7381 31.4005C42.6586 32.2797 43.8776 32.7696 45.1448 32.7696C46.412 32.7696 47.6311 32.2797 48.5515 31.4005C49.4719 30.5214 50.0238 29.3198 50.0937 28.0427H53.2369C53.4373 28.0427 53.6294 27.9623 53.7711 27.8193C53.9128 27.6763 53.9924 27.4823 53.9924 27.28V17.4418C53.9911 16.0226 53.46 14.6559 52.505 13.6142C51.55 12.5725 50.2412 11.9323 48.8395 11.8211ZM44.8048 3.02766C45.2333 3.02807 45.6491 3.17434 45.985 3.44283C46.3209 3.71132 46.5573 4.08633 46.6559 4.50721H39.7728V3.02766H44.8048ZM39.7728 11.7982V6.03252H45.7568L47.2679 11.7982H39.7728ZM15.6703 31.4822C14.9873 31.4822 14.3197 31.2772 13.7523 30.8934C13.185 30.5096 12.7434 29.9641 12.4838 29.3265C12.2242 28.6888 12.1582 27.9876 12.2942 27.3119C12.4302 26.6363 12.7622 26.0167 13.2478 25.5319C13.7334 25.0471 14.3508 24.7189 15.0216 24.5891C15.6924 24.4592 16.3864 24.5336 17.0152 24.8027C17.6441 25.0717 18.1795 25.5234 18.5535 26.1003C18.9275 26.6772 19.1232 27.3533 19.1157 28.0427C19.1057 28.9597 18.7373 29.8357 18.0906 30.4799C17.444 31.124 16.5713 31.4843 15.6628 31.4822H15.6703ZM45.1373 31.4822C44.4542 31.4822 43.7866 31.2772 43.2192 30.8934C42.6519 30.5096 42.2103 29.9641 41.9507 29.3265C41.6911 28.6888 41.6251 27.9876 41.7611 27.3119C41.8971 26.6363 42.2291 26.0167 42.7147 25.5319C43.2003 25.0471 43.8177 24.7189 44.4885 24.5891C45.1593 24.4592 45.8533 24.5336 46.4821 24.8027C47.111 25.0717 47.6464 25.5234 48.0204 26.1003C48.3944 26.6772 48.5901 27.3533 48.5826 28.0427C48.5707 28.9565 48.2038 29.829 47.5608 30.4723C46.9178 31.1157 46.0502 31.4783 45.1448 31.4822H45.1373ZM51.6049 21.3847C51.0664 21.3827 50.5506 21.1659 50.1699 20.7816C49.7892 20.3973 49.5744 19.8767 49.5724 19.3332V18.4409H52.4889V21.3847H51.6049Z" fill="black"/>
<path d="M15.6626 26.281C15.3249 26.281 14.9948 26.3821 14.714 26.5715C14.4332 26.7609 14.2143 27.0301 14.0851 27.345C13.9558 27.6599 13.922 28.0065 13.9879 28.3409C14.0538 28.6752 14.2164 28.9823 14.4552 29.2234C14.694 29.4644 14.9983 29.6286 15.3295 29.6951C15.6608 29.7616 16.0041 29.7274 16.3161 29.597C16.6281 29.4665 16.8948 29.2456 17.0824 28.9622C17.2701 28.6787 17.3702 28.3455 17.3702 28.0046C17.3702 27.5475 17.1903 27.1091 16.8701 26.7858C16.5499 26.4626 16.1155 26.281 15.6626 26.281Z" fill="black"/>
<path d="M45.1446 26.281C44.8069 26.281 44.4767 26.3821 44.1959 26.5715C43.9151 26.7609 43.6962 27.0301 43.567 27.345C43.4377 27.6599 43.4039 28.0065 43.4698 28.3409C43.5357 28.6752 43.6983 28.9823 43.9371 29.2234C44.1759 29.4644 44.4802 29.6286 44.8114 29.6951C45.1427 29.7616 45.486 29.7274 45.798 29.597C46.11 29.4665 46.3768 29.2456 46.5644 28.9622C46.752 28.6787 46.8521 28.3455 46.8521 28.0046C46.8521 27.5475 46.6722 27.1091 46.352 26.7858C46.0318 26.4626 45.5975 26.281 45.1446 26.281Z" fill="black"/>
<path d="M2.49335 20.3019H15.7006C15.901 20.3019 16.0931 20.2216 16.2348 20.0785C16.3765 19.9355 16.4561 19.7415 16.4561 19.5393C16.4561 19.337 16.3765 19.143 16.2348 19C16.0931 18.857 15.901 18.7766 15.7006 18.7766H2.49335C2.29297 18.7766 2.1008 18.857 1.9591 19C1.81741 19.143 1.73779 19.337 1.73779 19.5393C1.73779 19.7415 1.81741 19.9355 1.9591 20.0785C2.1008 20.2216 2.29297 20.3019 2.49335 20.3019Z" fill="black"/>
<path d="M35.277 24.7253C35.4774 24.7253 35.6696 24.6449 35.8113 24.5019C35.953 24.3589 36.0326 24.1649 36.0326 23.9626C36.0326 23.7603 35.953 23.5664 35.8113 23.4233C35.6696 23.2803 35.4774 23.2 35.277 23.2H22.0773C21.877 23.2 21.6848 23.2803 21.5431 23.4233C21.4014 23.5664 21.3218 23.7603 21.3218 23.9626C21.3218 24.1649 21.4014 24.3589 21.5431 24.5019C21.6848 24.6449 21.877 24.7253 22.0773 24.7253H35.277Z" fill="black"/>
</g>
<defs>
<clipPath id="clip0_1_1686">
<rect width="54" height="33" fill="white"/>
</clipPath>
</defs>
</svg>
