<svg width="43" height="45" viewBox="0 0 43 45" fill="none" xmlns="http://www.w3.org/2000/svg">
<g clip-path="url(#clip0_1_1696)">
<path d="M21.4996 2.86944C18.3661 2.87021 15.2707 3.54232 12.4303 4.83867L14.1447 1.22124C14.2425 1.01408 14.2522 0.777349 14.1718 0.563132C14.0915 0.348914 13.9275 0.174756 13.7161 0.0789675C13.5046 -0.0168206 13.263 -0.0263864 13.0444 0.0523659C12.8258 0.131118 12.648 0.291746 12.5502 0.498906L9.76803 6.37794C9.7188 6.48063 9.69083 6.59186 9.68567 6.7052C9.68052 6.81855 9.69829 6.93177 9.73799 7.03835C9.7777 7.14493 9.83852 7.24275 9.91698 7.32619C9.99545 7.40963 10.09 7.47703 10.1952 7.52451L16.1985 10.2505C16.3128 10.3034 16.4377 10.3308 16.5642 10.3307C16.7641 10.331 16.9582 10.2644 17.1142 10.1419C17.2702 10.0195 17.3789 9.84844 17.4223 9.6572C17.4656 9.46595 17.441 9.26595 17.3525 9.09027C17.264 8.9146 17.117 8.77378 16.9357 8.69114L12.5473 6.69898C16.6756 4.64483 21.4104 4.08052 25.9209 5.10503C30.4314 6.12955 34.4298 8.67747 37.2145 12.3018C39.9993 15.9262 41.3926 20.3955 41.15 24.9259C40.9075 29.4562 39.0446 33.7582 35.8881 37.0772C32.7317 40.3962 28.4832 42.5203 23.888 43.0769C19.2928 43.6334 14.6443 42.5868 10.758 40.1208C6.8717 37.6547 3.99574 33.9267 2.6346 29.5906C1.27345 25.2544 1.51407 20.5872 3.31424 16.4076C3.359 16.3035 3.3824 16.1918 3.3831 16.0788C3.38379 15.9659 3.36178 15.8539 3.31831 15.7493C3.27485 15.6447 3.21077 15.5495 3.12975 15.4692C3.04874 15.3888 2.95239 15.3249 2.84616 15.2811C2.73993 15.2372 2.62591 15.2143 2.51064 15.2136C2.39537 15.2129 2.2811 15.2345 2.17433 15.2771C2.06757 15.3197 1.97042 15.3824 1.88842 15.4618C1.80642 15.5412 1.74115 15.6356 1.69639 15.7397C-0.101741 19.9088 -0.481745 24.5344 0.612627 28.9317C1.707 33.3289 4.21756 37.2639 7.77259 40.1541C11.3276 43.0443 15.7381 44.7359 20.3509 44.9785C24.9638 45.2211 29.5337 44.0017 33.384 41.501C37.2344 39.0003 40.1604 35.3512 41.7289 31.094C43.2974 26.8368 43.4249 22.1978 42.0926 17.8641C40.7603 13.5304 38.0389 9.73221 34.3315 7.03207C30.6241 4.33192 26.1278 2.87334 21.5083 2.87231L21.4996 2.86944Z" fill="black"/>
<path d="M22.0441 31.6253V28.7102H25.6981C25.815 28.7109 25.9309 28.6886 26.0389 28.6448C26.1469 28.601 26.2449 28.5365 26.3271 28.4551C26.4109 28.3797 26.4776 28.288 26.523 28.1858C26.5683 28.0836 26.5913 27.9732 26.5904 27.8617V24.0723C26.5908 23.961 26.5676 23.8507 26.5223 23.7486C26.477 23.6465 26.4105 23.5547 26.3271 23.479C26.2449 23.3975 26.1469 23.333 26.0389 23.2892C25.9309 23.2454 25.815 23.2232 25.6981 23.2239H17.5797V21.16H25.7245C25.9571 21.152 26.1778 21.0569 26.3411 20.8943C26.5044 20.7316 26.5978 20.5139 26.6021 20.2858C26.6034 20.1743 26.5806 20.0638 26.5352 19.9615C26.4898 19.8593 26.4229 19.7676 26.3388 19.6924C26.2573 19.6101 26.1595 19.5449 26.0513 19.5011C25.9431 19.4572 25.8269 19.4355 25.7098 19.4373H22.0295V16.5336C22.032 16.4217 22.011 16.3105 21.9677 16.207C21.9244 16.1034 21.8598 16.0097 21.7779 15.9317C21.7024 15.854 21.6116 15.7921 21.5111 15.7497C21.4105 15.7074 21.3022 15.6854 21.1928 15.6852C21.0741 15.6775 20.9551 15.6942 20.8435 15.7344C20.7319 15.7745 20.6301 15.8371 20.5447 15.9181C20.4592 15.9991 20.3921 16.0967 20.3475 16.2047C20.3029 16.3127 20.2819 16.4287 20.2858 16.5451V19.4402H16.6874C16.5715 19.4378 16.4563 19.4585 16.3487 19.5009C16.2411 19.5432 16.1434 19.6065 16.0614 19.6868C15.9795 19.7671 15.9149 19.8629 15.8717 19.9683C15.8284 20.0737 15.8073 20.1865 15.8097 20.3001V24.0752C15.8057 24.1877 15.826 24.2998 15.8694 24.404C15.9127 24.5083 15.9781 24.6023 16.0613 24.68C16.1413 24.7596 16.237 24.8223 16.3427 24.8642C16.4484 24.9061 16.5617 24.9263 16.6757 24.9236H24.7941V26.9903H16.6493C16.5334 26.988 16.4182 27.0086 16.3107 27.051C16.2031 27.0934 16.1054 27.1567 16.0234 27.237C15.9414 27.3173 15.8769 27.413 15.8336 27.5184C15.7904 27.6238 15.7693 27.7367 15.7717 27.8503C15.7696 27.9622 15.7914 28.0733 15.8357 28.1765C15.8801 28.2797 15.9459 28.3726 16.0291 28.4493C16.1079 28.5293 16.2025 28.5926 16.3071 28.6355C16.4118 28.6784 16.5243 28.6999 16.6377 28.6987H20.2624V31.6397C20.2603 31.7516 20.2821 31.8627 20.3265 31.9659C20.3708 32.0691 20.4367 32.162 20.5199 32.2388C20.6033 32.3198 20.7024 32.3837 20.8115 32.4265C20.9205 32.4694 21.0373 32.4903 21.1547 32.4881C21.2681 32.4893 21.3806 32.4678 21.4852 32.4249C21.5898 32.382 21.6844 32.3187 21.7632 32.2388C21.8531 32.163 21.9249 32.0688 21.9735 31.9627C22.022 31.8567 22.0461 31.7415 22.0441 31.6253Z" fill="black"/>
<path d="M34.4836 24.0779C34.4836 21.5052 33.705 18.9903 32.2462 16.8511C30.7874 14.712 28.7139 13.0448 26.288 12.0602C23.862 11.0757 21.1926 10.8181 18.6173 11.32C16.042 11.8219 13.6764 13.0608 11.8197 14.88C9.96297 16.6992 8.69852 19.0169 8.18626 21.5402C7.67399 24.0635 7.93691 26.6789 8.94175 29.0558C9.9466 31.4327 11.6482 33.4642 13.8315 34.8935C16.0148 36.3228 18.5816 37.0857 21.2074 37.0857C24.7273 37.0819 28.1019 35.7103 30.5908 33.2716C33.0798 30.833 34.4797 27.5266 34.4836 24.0779ZM9.6865 24.0779C9.6865 21.8454 10.3622 19.6629 11.6281 17.8066C12.8941 15.9503 14.6934 14.5035 16.7985 13.6492C18.9037 12.7948 21.2202 12.5713 23.455 13.0068C25.6898 13.4424 27.7427 14.5175 29.3539 16.0961C30.9651 17.6748 32.0624 19.6861 32.5069 21.8757C32.9514 24.0654 32.7233 26.335 31.8513 28.3976C30.9793 30.4602 29.5026 32.2232 27.608 33.4635C25.7134 34.7039 23.486 35.3659 21.2074 35.3659C18.1528 35.3629 15.2242 34.1726 13.0643 32.0564C10.9044 29.9401 9.6896 27.0707 9.6865 24.0779Z" fill="black"/>
</g>
<defs>
<clipPath id="clip0_1_1696">
<rect width="43" height="45" fill="white"/>
</clipPath>
</defs>
</svg>
