<svg width="27" height="30" viewBox="0 0 27 30" fill="none" xmlns="http://www.w3.org/2000/svg">
<g clip-path="url(#clip0_1_3574)">
<path d="M25.8484 13.4505C25.9261 13.4705 26.006 13.4807 26.0863 13.4808C26.3074 13.4794 26.5205 13.3985 26.6862 13.2532C26.8519 13.1078 26.9591 12.9078 26.9878 12.69C27.0166 12.4723 26.965 12.2515 26.8427 12.0686C26.7203 11.8857 26.5354 11.753 26.3222 11.695L22.812 10.7596L26.3283 8.7394C26.5387 8.61884 26.6922 8.42022 26.7551 8.18722C26.8181 7.95422 26.7852 7.70592 26.6639 7.49697C26.5425 7.28801 26.3426 7.1355 26.108 7.07299C25.8734 7.01048 25.6235 7.04308 25.4131 7.16363L21.8866 9.18383L22.8425 5.68888C22.9053 5.45581 22.8724 5.2075 22.7509 4.99856C22.6294 4.78962 22.4294 4.63717 22.1947 4.57475C21.9601 4.51233 21.7101 4.54504 21.4998 4.66571C21.2894 4.78638 21.136 4.98512 21.0731 5.21818L19.6495 10.4707L18.2055 11.299C17.244 10.2311 15.9326 9.53607 14.5041 9.33737V7.42222L18.3825 3.56969C18.554 3.39904 18.6503 3.1677 18.6501 2.92656C18.6499 2.68541 18.5533 2.45422 18.3815 2.28384C18.2097 2.11346 17.9768 2.01784 17.734 2.01803C17.4913 2.01822 17.2585 2.1142 17.087 2.28485L14.5041 4.84646V0.909091C14.5041 0.667985 14.4077 0.436749 14.2361 0.266261C14.0645 0.0957736 13.8317 0 13.5889 0C13.3462 0 13.1134 0.0957736 12.9418 0.266261C12.7702 0.436749 12.6738 0.667985 12.6738 0.909091V4.83434L10.1072 2.28485C9.93368 2.12427 9.70422 2.03685 9.46712 2.041C9.23003 2.04516 9.00381 2.14057 8.83613 2.30713C8.66845 2.47369 8.5724 2.69839 8.56822 2.9339C8.56404 3.16942 8.65205 3.39736 8.81371 3.56969L12.6778 7.40808V9.36161C11.2765 9.58977 9.99911 10.2964 9.0659 11.3596L7.49381 10.4566L6.03155 5.04848C5.96378 4.82124 5.80934 4.62928 5.60116 4.51349C5.39297 4.39771 5.1475 4.36726 4.91705 4.42864C4.6866 4.49002 4.48939 4.63838 4.36744 4.84209C4.24549 5.04579 4.20846 5.28875 4.26423 5.51919L5.24652 9.15556L1.75865 7.15555C1.54829 7.035 1.29833 7.0024 1.06377 7.06491C0.829209 7.12742 0.629253 7.27993 0.507892 7.48889C0.386531 7.69785 0.353713 7.94613 0.416644 8.17913C0.479575 8.41213 0.633105 8.61075 0.843465 8.73131L4.14219 10.6222L0.774312 11.5172C0.559328 11.5737 0.372435 11.7061 0.248559 11.8896C0.124684 12.0731 0.0723018 12.2951 0.101205 12.5141C0.130108 12.7331 0.238316 12.9342 0.405609 13.0798C0.572901 13.2254 0.787837 13.3054 1.01023 13.305C1.08985 13.3049 1.16911 13.2947 1.24614 13.2747L6.38339 11.9172L8.07343 12.8869C7.4632 14.2604 7.39068 15.8106 7.87005 17.2343L6.71489 17.895L1.16276 16.4182C1.04632 16.3864 0.924693 16.3776 0.804848 16.3925C0.685002 16.4073 0.569273 16.4455 0.464272 16.5047C0.359271 16.564 0.267058 16.6433 0.192887 16.7379C0.118716 16.8326 0.0640514 16.9409 0.0320023 17.0566C-4.67151e-05 17.1722 -0.00885567 17.293 0.00609639 17.4121C0.0210485 17.5311 0.0594647 17.6461 0.119142 17.7504C0.178818 17.8547 0.258592 17.9463 0.353909 18.02C0.449225 18.0937 0.558216 18.148 0.67466 18.1798L4.45946 19.1899L0.839393 21.2646C0.664475 21.3647 0.527743 21.5193 0.450482 21.7045C0.373221 21.8897 0.359764 22.0951 0.4122 22.2887C0.464636 22.4823 0.580024 22.6533 0.740412 22.775C0.9008 22.8967 1.0972 22.9623 1.29902 22.9616C1.45885 22.9609 1.61578 22.9191 1.75458 22.8404L5.03501 20.9576L4.16456 24.1899C4.10181 24.4227 4.13469 24.6707 4.25596 24.8794C4.37723 25.0882 4.57699 25.2405 4.8113 25.303C4.88874 25.3246 4.96881 25.3355 5.04925 25.3353C5.25061 25.335 5.44622 25.2687 5.6058 25.1467C5.76537 25.0247 5.87998 24.8539 5.93189 24.6606L7.2762 19.6768L8.68559 18.8687C9.15478 19.5182 9.74872 20.0692 10.4332 20.4897C11.1177 20.9103 11.8791 21.1922 12.6738 21.3192V22.2747L8.62254 26.299C8.53748 26.3834 8.46997 26.4835 8.42388 26.5938C8.3778 26.7041 8.35403 26.8223 8.35394 26.9417C8.35384 27.0611 8.37742 27.1794 8.42334 27.2897C8.46925 27.4001 8.53659 27.5003 8.62152 27.5848C8.70645 27.6693 8.8073 27.7364 8.91832 27.7822C9.02934 27.828 9.14835 27.8516 9.26855 27.8517C9.38875 27.8518 9.50779 27.8283 9.61888 27.7827C9.72997 27.7371 9.83094 27.6702 9.916 27.5859L12.6738 24.8465V29.0889C12.6738 29.33 12.7702 29.5612 12.9418 29.7317C13.1134 29.9022 13.3462 29.998 13.5889 29.998C13.8317 29.998 14.0645 29.9022 14.2361 29.7317C14.4077 29.5612 14.5041 29.33 14.5041 29.0889V25.2081L16.8979 27.5859C16.9829 27.6702 17.0839 27.7371 17.195 27.7827C17.306 27.8283 17.4251 27.8518 17.5453 27.8517C17.6655 27.8516 17.7845 27.828 17.8955 27.7822C18.0065 27.7364 18.1074 27.6693 18.1923 27.5848C18.2773 27.5003 18.3446 27.4001 18.3905 27.2897C18.4364 27.1794 18.46 27.0611 18.4599 26.9417C18.4598 26.8223 18.4361 26.7041 18.39 26.5938C18.3439 26.4835 18.2764 26.3834 18.1913 26.299L14.5041 22.6364V21.3394C15.3107 21.2255 16.0862 20.9524 16.7848 20.536C17.4833 20.1196 18.0909 19.5685 18.5716 18.9152L19.5173 19.4586L20.9633 24.8202C21.0157 25.0134 21.1308 25.1841 21.2907 25.3057C21.4507 25.4273 21.6465 25.4931 21.848 25.4929C21.9283 25.4927 22.0082 25.4825 22.0859 25.4626C22.3203 25.4001 22.52 25.2478 22.6413 25.039C22.7625 24.8303 22.7954 24.5823 22.7327 24.3495L21.7605 20.7434L25.4131 22.8263C25.5527 22.905 25.7103 22.9467 25.8707 22.9475C26.0724 22.9477 26.2685 22.8818 26.4285 22.7599C26.5886 22.638 26.7036 22.4671 26.7558 22.2736C26.8079 22.0801 26.7943 21.8749 26.717 21.6899C26.6397 21.5049 26.5031 21.3504 26.3283 21.2505L22.8201 19.2303L26.2266 18.3232C26.4554 18.2559 26.6487 18.1025 26.7652 17.8957C26.8818 17.6889 26.9124 17.4451 26.8506 17.2162C26.7888 16.9872 26.6395 16.7913 26.4344 16.6702C26.2293 16.5491 25.9848 16.5123 25.7528 16.5677L20.5789 17.9455L19.4238 17.2828C19.9294 15.8196 19.8508 14.2195 19.2041 12.8121L20.5688 12.0283L25.8484 13.4505ZM17.7927 16.3616C17.7561 16.5071 17.7113 16.6485 17.6605 16.7899L17.6483 16.8182C17.6036 16.9394 17.5527 17.0545 17.4978 17.1697C17.4856 17.196 17.4734 17.2222 17.4592 17.2485C17.4287 17.3091 17.3981 17.3677 17.3656 17.4263C17.3331 17.4848 17.2802 17.5697 17.2334 17.6404L17.148 17.7758C16.5204 18.6635 15.5743 19.2787 14.5041 19.4949C14.3658 19.5212 14.2275 19.5434 14.0852 19.5576C13.9419 19.5721 13.798 19.5795 13.654 19.5798C13.532 19.5798 13.412 19.5798 13.292 19.5616L13.1659 19.5495C13.0764 19.5495 12.987 19.5253 12.8995 19.5091L12.6738 19.4626C11.5792 19.2047 10.6301 18.5309 10.0299 17.5859L9.99532 17.5293C9.93024 17.4222 9.86922 17.3151 9.81431 17.204C9.80414 17.1798 9.79195 17.1576 9.78178 17.1333C9.7289 17.0222 9.68009 16.9091 9.63738 16.7919L9.61297 16.7232C9.56359 16.5827 9.52151 16.4398 9.48688 16.2949C9.23384 15.2016 9.42708 14.0532 10.0243 13.101C10.6216 12.1488 11.5742 11.4704 12.6738 11.2141C12.749 11.196 12.8243 11.1798 12.8995 11.1677C12.9747 11.1555 13.0764 11.1374 13.1659 11.1273C13.2066 11.1273 13.2493 11.1273 13.292 11.1152C13.412 11.1152 13.532 11.097 13.654 11.097C13.798 11.0965 13.9419 11.1033 14.0852 11.1172C14.2275 11.1333 14.3658 11.1535 14.5041 11.1818C15.277 11.3394 15.9908 11.7065 16.5663 12.2424C16.7309 12.3968 16.8838 12.5629 17.0239 12.7394L17.0666 12.8C17.1358 12.8909 17.2009 12.9838 17.27 13.0808L17.3432 13.2C17.388 13.2768 17.4307 13.3535 17.4693 13.4303C17.508 13.5071 17.5242 13.5374 17.5486 13.5939C17.573 13.6505 17.5954 13.6929 17.6158 13.7434C17.8235 14.2502 17.9305 14.7922 17.931 15.3394C17.9265 15.6844 17.8801 16.0276 17.7927 16.3616Z" fill="#5E5E5E"/>
<path d="M13.6529 17.1374C14.6537 17.1374 15.465 16.3315 15.465 15.3374C15.465 14.3432 14.6537 13.5374 13.6529 13.5374C12.6521 13.5374 11.8408 14.3432 11.8408 15.3374C11.8408 16.3315 12.6521 17.1374 13.6529 17.1374Z" fill="#5E5E5E"/>
</g>
<defs>
<clipPath id="clip0_1_3574">
<rect width="27" height="30" fill="white"/>
</clipPath>
</defs>
</svg>
