<svg xmlns="http://www.w3.org/2000/svg" width="1311" height="257" viewBox="0 0 5178 1014" shape-rendering="geometricPrecision" text-rendering="geometricPrecision" image-rendering="optimizeQuality" fill-rule="evenodd" clip-rule="evenodd"><defs><style>.str0{stroke:#e0e0e0;stroke-width:12.3405}.fil8{fill:#1a1f71}.fil0{fill:#213d62}.fil7{fill:#fefefe}.fil2{fill:#fff}.fil3{fill:#000}.fil10,.fil3{fill-rule:nonzero}.fil11{fill:#3bb0c8}.fil11,.fil9{fill-rule:nonzero}.fil10{fill:#bfcad9}.fil9{fill:#fefefe}</style></defs><g id="Layer_x0020_1"><g id="_2759010032016"><path id="Rectangle" class="fil0" d="M2683 0h2445c28 0 50 22 50 49v916c0 27-22 49-50 49H2683V0z"/><path id="Rectangle_0" class="fil0" d="M220 1013H49c-27 0-49-22-49-49V50C0 23 22 1 49 1h171v1012z"/><rect x="70" width="2672" height="1014" rx="23" ry="23" fill="#ebebeb"/><path class="fil2 str0" d="M341 93h879c11 0 20 15 20 32v778c0 18-9 32-20 32H341c-11 0-20-14-20-32V125c0-17 9-32 20-32z"/><path class="fil3" d="M1059 807h-1v3h-1v-3h-1v-1h3v1zm4 3v-3l-1 2h-1l-1-2v3h-1v-4h1l1 3 1-3h1v4zm-550 0h-8v-92h8v92zm61-92c8 0 15 1 21 4 6 2 11 5 15 9 5 4 8 8 10 14s4 12 4 19-2 13-4 19-5 10-10 14c-4 4-9 7-15 9-6 3-13 4-21 4h-33v-92h33zm-25 8v76h25c7 0 13-1 18-3 5-1 9-4 13-7 3-4 6-8 8-12 1-5 2-10 2-16s-1-11-2-16c-2-4-5-8-8-12-4-3-8-6-13-7-5-2-11-3-18-3h-25zm172-9c4 0 8 1 12 2 3 0 7 2 10 3l9 6c2 3 4 5 6 8l-6 5c-2-3-4-5-6-7s-5-3-7-5c-3-1-5-2-8-3s-7-1-10-1c-5 0-10 1-15 3s-9 4-12 8c-4 3-6 7-8 12s-3 10-3 16 1 11 3 16 4 9 8 12c3 4 7 6 12 8s10 3 15 3c3 0 7 0 9-1l9-3c2-1 5-3 7-5l6-6 6 4c-2 3-4 6-7 8-2 2-5 4-8 6-3 1-7 3-10 3-4 1-8 2-12 2-6 0-13-1-18-4-6-2-11-5-15-9s-8-9-10-15-3-12-3-19 1-13 3-19 6-11 10-15 9-7 15-9c5-3 12-4 18-4zm64 42c2-2 3-4 5-5 1-2 3-3 5-4s4-2 6-2 4-1 6-1c4 0 8 1 11 2s6 3 8 5 4 5 5 8 2 6 2 10v38h-7v-36c0-3-1-6-2-8-1-3-2-5-4-6-1-2-3-3-6-4-2-1-5-2-8-2s-6 1-8 2c-3 1-5 2-7 4s-3 4-4 6c-1 3-2 6-2 9v35h-7v-94h7v43zm97-12c4 0 7 1 11 3 3 1 7 3 9 6 3 3 5 6 6 10 2 4 2 8 2 13v3h-51c0 3 1 6 2 9s3 5 5 7 5 4 8 5c2 1 5 1 8 1 5 0 9-1 12-2 3-2 6-4 9-7l4 6c-2 2-4 3-6 4-2 2-4 3-6 4-2 0-4 1-6 1-3 1-5 1-7 1-4 0-9-1-12-3-4-1-7-3-10-6s-5-6-7-10c-1-4-2-8-2-13s1-9 2-13c2-4 4-7 7-10s6-5 10-6c3-2 7-3 12-3zm-1 7c-3 0-6 0-8 2-3 1-5 2-7 4s-4 4-5 7c-1 2-2 5-2 8h44c0-3-1-6-2-8-2-3-3-5-5-7s-4-4-7-5c-2-1-5-1-8-1zm75-7c4 0 9 1 12 3 4 1 8 4 10 7l-4 5c-3-3-5-4-8-6-3-1-7-2-10-2-4 0-7 1-10 2s-5 3-7 5-4 5-5 8-2 6-2 10 1 7 2 10 3 6 5 8 4 4 7 5 6 2 10 2c3 0 7-1 10-2 3-2 5-4 8-6l4 5c-2 3-6 6-10 7-3 2-8 3-12 3-5 0-9-1-13-3-4-1-7-4-10-6-3-3-5-7-6-10-2-4-3-8-3-13 0-4 1-9 3-13 1-3 3-7 6-10 3-2 6-5 10-6 4-2 8-3 13-3zm47 27h10l26-26h10l-30 29 30 33h-9l-27-29h-10v29h-7v-94h7v58zM583 671v-31c0-12-8-20-20-20-6 0-13 2-17 9-4-6-9-9-17-9-5 0-10 2-15 7v-6h-10v50h11v-27c0-9 4-14 12-14 7 0 11 5 11 13v28h11v-27c0-9 5-14 12-14s11 5 11 13v28h11zm162-50h-18v-15h-11v15h-10v10h10v23c0 12 5 18 18 18 4 0 10-1 13-3l-3-10c-3 2-7 3-10 3-5 0-7-3-7-8v-23h18v-10zm93-1c-7 0-11 3-14 7v-6h-10v50h11v-28c0-8 3-13 10-13 2 0 5 1 7 2l3-11c-2-1-5-1-7-1zm-140 5c-6-3-13-5-21-5-12 0-21 6-21 16 0 8 7 13 18 15l5 1c6 0 9 2 9 5 0 4-4 6-12 6-7 0-13-3-16-5l-6 8c6 4 14 6 22 6 15 0 23-6 23-16 0-9-7-13-18-15h-5c-4-1-8-2-8-5 0-4 3-6 9-6 7 0 13 2 16 4l5-9zm290-5c-6 0-10 3-13 7v-6h-10v50h10v-28c0-8 4-13 11-13 2 0 5 1 7 2l3-11c-2-1-5-1-8-1zm-139 26c0 15 10 26 26 26 8 0 13-1 18-6l-5-8c-4 3-8 4-13 4-9 0-15-6-15-16 0-9 6-16 15-16 5 0 9 2 13 5l5-9c-5-4-10-6-18-6-16 0-26 11-26 26zm101 0v-25h-11v6c-3-4-8-7-15-7-14 0-25 11-25 26s11 26 25 26c7 0 12-2 15-7v6h11v-25zm-40 0c0-9 6-16 15-16s15 7 15 16-6 16-15 16-15-7-15-16zm-131-26c-15 0-25 11-25 26 0 16 11 26 26 26 7 0 14-1 20-7l-5-8c-4 4-10 6-15 6-7 0-13-4-15-13h37c0-1 1-2 1-4-1-15-10-26-24-26zm0 10c7 0 11 4 12 12h-26c2-7 6-12 14-12zm272 16v-45h-11v26c-3-4-8-7-16-7-14 0-25 11-25 26s11 26 25 26c8 0 13-2 16-7v6h11v-25zm-40 0c0-9 5-16 15-16 9 0 15 7 15 16s-6 16-15 16c-10 0-15-7-15-16zm-367 0v-25h-11v6c-3-4-9-7-16-7-14 0-25 11-25 26s11 26 25 26c7 0 13-2 16-7v6h11v-25zm-40 0c0-9 5-16 15-16 9 0 15 7 15 16s-6 16-15 16c-10 0-15-7-15-16zm465 18h2c1 1 1 1 2 1 0 1 1 1 1 2v4l-1 1-2 2h-4c-1-1-1-1-1-2-1 0-1-1-2-1v-4l2-2 1-1h2zm0 9c1 0 1 0 2-1h1c0-1 0-1 1-2v-3c-1 0-1 0-1-1-1 0-1 0-1-1h-3c-1 1-1 1-2 1v1c-1 1-1 1-1 2 0 0 0 1 1 1v2h2c0 1 1 1 1 1zm0-6h2v2s-1 0-1 1l1 1h-1l-1-1h-1v1h-1v-4h2zm-1 0v2h2v-1s0-1-1-1h-1z"/><path fill="#f26b35" fill-rule="nonzero" d="M858 537H694V241h164z"/><path d="M704 389c0-60 29-114 72-148-32-25-72-40-116-40-104 0-188 84-188 188s84 188 188 188c44 0 84-15 116-40-43-35-72-88-72-148z" fill="#e63237" fill-rule="nonzero"/><path class="fil3" d="M1062 505v-6h3v-1h-6v1h2v6h1zm12 0v-7h-1l-3 5-2-5h-2v7h2v-5l2 4h1l2-4v5h1z"/><path d="M1080 389c0 104-84 188-188 188-43 0-84-15-116-40 44-35 72-88 72-148s-28-114-72-148c32-25 73-40 116-40 104 0 188 84 188 188z" fill="#f9a132" fill-rule="nonzero"/><path class="fil2 str0" d="M1553 95h880c11 0 20 15 20 33v778c0 17-9 32-20 32h-880c-11 0-20-15-20-32V128c0-18 9-33 20-33z"/><path class="fil7" d="M1639 127h723v361h-723z"/><path class="fil8" d="M1639 488h723v361h-723z"/><path class="fil9" d="M1852 623c-4-1-10-3-19-3-17 0-28 9-28 23 0 11 8 18 22 23 10 4 15 9 15 16s-6 12-17 12c-7 0-14-2-19-4l-3 10c4 3 13 5 21 5 20 0 31-10 31-24 0-12-7-19-21-25-11-4-16-8-16-15 0-5 4-11 15-11 7 0 13 2 16 4l3-11h0zm65 70h-34v-27h31v-11h-31v-24h33v-10h-47v83h48v-11h0zm69-1c-4 1-10 2-16 2-18 0-30-11-30-31 0-22 13-33 30-33 7 0 12 2 16 3l2-10c-2-1-8-3-18-3-25 0-44 15-44 43 0 27 17 42 41 42 10 0 17-2 21-3l-2-10h0zm77-71h-13v50c0 17-7 24-18 24-10 0-17-7-17-24v-50h-14v49c0 25 12 35 31 35 18 0 31-10 31-35v-49zm56 43c9-3 16-10 16-21 0-7-2-12-7-16-5-5-13-7-25-7-8 0-16 1-21 2v82h13v-35h8c9 0 13 4 16 15 2 10 4 18 5 20h14c-1-3-4-12-6-23-2-8-6-14-13-17h0zm-24-5v-28c1-1 5-1 9-1 10 0 18 4 18 14 0 9-7 15-18 15h-9zm103 34h-34v-27h30v-11h-30v-24h32v-10h-46v83h48v-11z" stroke="#fefefe" stroke-width="3.554"/><path class="fil8" d="M1983 229l-34 162h-42l34-162h42zm177 104l22-61 12 61h-34zm46 58h39l-34-162h-36c-8 0-14 4-17 12l-63 150h44l8-24h54l5 24zm-109-53c0-43-59-45-59-64 0-6 6-12 18-14 6-1 22-1 41 7l8-34c-10-4-23-7-40-7-41 0-70 22-70 53-1 23 21 36 36 44 17 8 22 13 22 20 0 11-13 16-25 16-21 1-33-5-43-10l-8 36c10 4 28 8 47 8 44 0 73-22 73-55zm-174-109l-68 162h-44l-33-130c-2-8-4-11-10-14-10-5-27-10-42-14l1-4h72c9 0 17 6 19 16l18 94 43-110h44z"/><path class="fil10" d="M3754 186c-12-4-21-8-26-13-6-5-8-11-8-18 0-9 3-16 10-21 6-5 15-8 26-8 7 0 13 1 19 4s10 7 13 12c4 5 5 10 5 16h-14c0-7-2-12-6-15-4-4-10-6-17-6s-13 2-17 5c-3 3-5 7-5 12s2 8 5 11c4 3 10 6 19 8 9 3 16 6 21 9s8 6 11 10c2 4 3 9 3 14 0 8-3 15-10 20-6 6-15 8-27 8-7 0-14-1-20-4s-11-7-15-11c-3-5-5-11-5-17h14c0 7 3 12 7 15 5 4 11 6 19 6s13-2 17-5 6-7 6-12-2-9-5-12c-4-3-10-6-20-8z"/><path id="1" class="fil10" d="M3842 234c-11 0-19-3-26-10s-10-17-10-28v-3c0-7 1-14 4-21 3-6 7-10 13-14 5-3 11-5 17-5 10 0 18 3 24 10s9 16 9 29v5h-54c0 8 3 14 7 19s10 7 17 7c4 0 8-1 12-3 3-2 6-4 8-7l9 6c-7 10-17 15-30 15zm-2-70c-5 0-10 2-13 6-4 4-6 9-7 16h39v-1c0-6-2-12-5-15-4-4-8-6-14-6z"/><path id="2" class="fil10" d="M3920 223c5 0 9-1 12-4 4-3 6-7 6-11h13c0 5-2 9-4 13-3 4-7 7-12 10-5 2-10 3-15 3-11 0-19-3-26-11-6-7-9-16-9-29v-2c0-8 1-14 4-20s7-11 12-14 12-5 19-5c9 0 16 3 22 8s9 12 9 20h-13c0-5-2-9-5-12-4-3-8-5-13-5-7 0-12 2-16 7s-6 12-6 22v2c0 9 2 16 6 21s9 7 16 7z"/><path id="3" class="fil10" d="M4015 225c-5 6-13 9-23 9-8 0-15-2-19-7-5-5-7-12-7-22v-51h14v51c0 12 4 18 14 18s17-4 21-12v-57h13v79h-13v-8z"/><path id="4" class="fil10" d="M4087 166h-7c-9 0-15 4-18 11v56h-13v-79h13v9c4-7 11-10 19-10 2 0 4 0 6 1v12z"/><path id="5" class="fil10" d="M4131 234c-11 0-20-3-27-10-6-7-10-17-10-28v-3c0-7 2-14 5-21 3-6 7-10 12-14 6-3 12-5 18-5 10 0 18 3 24 10 5 7 8 16 8 29v5h-53c0 8 2 14 7 19 4 5 10 7 16 7 5 0 9-1 12-3 4-2 7-4 9-7l8 6c-6 10-16 15-29 15zm-2-70c-6 0-10 2-14 6-3 4-6 9-7 16h40v-1c-1-6-2-12-6-15-3-4-7-6-13-6z"/><path id="6" class="fil10" d="M4280 194c0 12-2 22-8 29-5 7-13 11-22 11-10 0-17-3-23-9v38h-13V154h12l1 9c5-7 13-10 23-10 9 0 17 4 22 11 6 7 8 17 8 29v1zm-13-1c0-9-2-16-6-21-3-5-9-8-15-8-8 0-15 4-19 11v37c4 8 11 11 19 11 6 0 11-2 15-7 4-6 6-13 6-23z"/><path id="7" class="fil10" d="M4346 233c0-2-1-5-2-9-6 7-13 10-22 10-8 0-14-2-19-6-5-5-8-10-8-17 0-8 3-14 10-19 6-4 15-7 26-7h13v-6c0-5-1-8-4-11s-7-4-13-4c-4 0-8 1-12 3-3 3-4 6-4 9h-14c0-4 1-8 4-11 3-4 7-7 12-9 4-2 10-3 15-3 9 0 16 2 22 7 5 4 7 10 8 18v36c0 8 1 13 2 17v2h-14zm-22-10c4 0 8-1 12-4 4-2 6-5 8-8v-16h-10c-17 0-25 5-25 14 0 4 1 8 4 10 3 3 6 4 11 4z"/><path id="8" class="fil10" d="M4404 213l18-59h14l-31 91c-5 13-13 19-24 19h-2l-5-1v-11h3c5 0 8 0 11-2 2-2 5-5 6-10l3-8-28-78h15l20 59z"/><path id="9" class="fil10" d="M4461 154v9c6-7 14-10 24-10 11 0 18 4 22 13 3-4 6-7 11-10 4-2 9-3 14-3 18 0 26 9 27 27v53h-14v-52c0-6-1-10-4-12-2-3-6-5-13-5-5 0-9 2-12 5s-5 7-6 12v52h-13v-52c0-11-6-17-17-17-9 0-15 4-18 12v57h-14v-79h13z"/><path id="10" class="fil10" d="M4612 234c-11 0-19-3-26-10s-10-17-10-28v-3c0-7 1-14 4-21 3-6 7-10 13-14 5-3 11-5 17-5 10 0 18 3 24 10s9 16 9 29v5h-54c0 8 3 14 7 19s10 7 17 7c4 0 8-1 12-3 3-2 6-4 8-7l9 6c-7 10-17 15-30 15zm-2-70c-5 0-10 2-13 6-4 4-6 9-7 16h39v-1c0-6-2-12-5-15-4-4-8-6-14-6z"/><path id="11" class="fil10" d="M4671 154v10c6-7 14-11 24-11 17 0 25 9 25 28v52h-13v-52c0-6-2-10-4-13-3-2-7-4-12-4-4 0-8 2-12 4-3 2-5 5-7 9v56h-14v-79h13z"/><path id="12" class="fil10" d="M4759 136v18h15v11h-15v48c0 3 1 6 2 7 1 2 3 3 7 3 1 0 3-1 6-1v11c-4 1-7 1-10 1-6 0-11-2-14-5-3-4-5-9-5-16v-48h-14v-11h14v-18h14z"/><path id="13" class="fil10" d="M4835 212c0-4-1-7-4-8-3-2-7-4-14-6-7-1-12-3-16-5s-7-4-9-7-3-6-3-10c0-7 3-12 8-16 5-5 12-7 21-7s16 2 22 7c5 4 8 10 8 17h-13c0-3-2-6-5-9s-7-4-12-4-9 1-12 3c-2 2-4 5-4 8 0 4 2 6 4 8 3 1 7 3 14 4 7 2 12 4 17 6 4 2 7 4 9 7s3 7 3 11c0 7-3 13-9 17-5 4-13 6-22 6-6 0-11-1-16-3s-9-6-12-9c-2-4-4-9-4-13h14c0 4 2 8 5 10 3 3 8 4 13 4 6 0 10-1 13-3s4-5 4-8z"/><path id="14" class="fil10" d="M4970 194c0 12-3 22-8 29-6 8-13 11-23 11s-17-3-23-10v9h-13V122h14v41c5-7 13-10 22-10 10 0 17 4 23 11 5 7 8 17 8 29v1zm-13-1c0-9-2-16-6-21-3-5-8-8-15-8-9 0-15 4-19 13v33c4 9 10 13 19 13 7 0 12-3 15-8 4-5 6-12 6-22z"/><path id="15" class="fil10" d="M5012 213l18-59h15l-32 91c-5 13-13 19-23 19h-3l-5-1v-11h4c4 0 8 0 10-2 3-2 5-5 7-10l3-8-28-78h14l20 59z"/><path class="fil9" d="M3317 483l6 2-1 8c-2 7-2 13-3 21 0 9-2 19-4 27l38 15 152-102-176 2-18 25c2 0 3 1 6 2zm-58-18l2-1 3 1 24 9h2l25-30-37-167-68 167 21 30c8-3 19-6 28-9zm-66 76c-1-8 0-17 1-26 1-8 1-15 1-22v-8l7-3c2 0 4-1 6-1l-15-25-175-2 134 102 41-15z"/><path class="fil11" d="M3116 763h-14l1-15h15zm-38 22h-15l1-14h15zm57-85h16v-15h-14z"/><path class="fil11" d="M3149 711h15l1-15h-14zm-29 13h15l1-16h-15zm-32 12h16l1-14h-15zm56-70h16-16zm32-15l1-14h14l-1 14h-14zm-64 45h15l1-15h16v-15h16l-2 15h15l1-15h29l2-15h15l1-4 1-10h13v-1l2-28c-14-10-27-21-37-37 0-2-2-5-3-8l-41 11-57 137h12l1-15z"/><path class="fil9" d="M3307 561l-6 9c-11 15-27 26-43 37l-2 27 131 104-41-165-39-12z"/><path class="fil7" d="M3614 643c4-26 12-67 24-122-2 49-2 89-2 122h-22zm72-186h-147v4c19 4 36 12 50 22l-53 262h66l9-51h22v51h64l-11-288zm113 0l-20 230h38l-5 58h-102l25-288zm120 0l-21 230h39l-5 58h-102l25-288zm181 88h-59l2-22c1-9 1-16-1-19-1-3-3-4-7-4-3 0-7 2-9 6-2 2-4 9-5 16 0 10 0 17 2 22s8 10 16 17c27 20 43 37 49 49 7 13 9 34 6 62-2 20-4 35-10 45-5 10-13 18-26 24-12 7-26 11-41 11-17 0-32-4-43-11-12-8-18-18-21-30-3-11-3-28-1-50l2-19h59l-3 35c-1 11-1 18 0 21 2 4 5 4 8 4 5 0 8-1 11-5 2-4 3-10 4-17 1-17 0-29-2-34-4-5-14-14-28-26-15-13-25-21-29-26-5-6-9-14-11-24-3-10-4-23-2-37 2-23 6-39 12-49 5-10 14-19 25-25 11-5 24-8 39-8 17 0 31 4 42 10s18 14 21 23c3 10 3 26 1 50l-1 11zm35-88h106l-5 58h-42l-5 55h39l-5 55h-38l-6 62h46l-4 58h-111zm269 126h-65l5-50c1-15 1-25 0-28s-4-5-8-5c-5 0-9 2-11 7-1 3-3 13-4 28l-12 134c-1 14-1 23 0 27 1 5 4 6 9 6 4 0 8-1 10-6 1-4 3-14 4-30l4-37h63l-1 12c-3 30-6 51-10 63-5 13-15 24-27 34-13 9-29 14-47 14-19 0-34-5-45-13-11-7-18-18-21-33-3-14-3-35 0-63l7-84c1-21 3-37 6-46 2-11 6-21 14-31 6-9 15-17 26-23 12-5 24-8 37-8 20 0 35 5 46 13 11 9 19 19 21 31 3 13 4 34 1 60l-2 28zm180-126l-17 192c-2 22-4 38-6 47-1 8-6 18-13 28-7 8-15 15-25 20s-22 8-36 8-26-3-37-9c-11-5-19-13-24-22-4-9-7-19-7-29s2-32 5-65l14-170h64l-18 216c-1 12-2 21-1 25 1 3 3 4 6 4 4 0 7-1 9-5 1-4 3-13 4-28l19-212h63zm27 0h44c31 0 51 2 61 4 11 3 19 10 25 21 6 12 8 28 5 53-2 23-6 38-11 46-5 7-15 13-29 14 12 3 20 9 24 15 3 6 7 12 7 17 0 4 0 19-2 42l-7 76h-59l9-96c1-15 1-24-2-28-2-4-6-6-15-6l-11 130h-65l26-288zm60 49l-6 65c7 0 12-1 15-4 3-2 5-10 6-23l2-15c1-10 0-15-3-19-3-2-7-4-14-4zm108-49h107l-5 58h-43l-5 55h40l-5 55h-39l-6 62h47l-6 58h-110z"/></g></g></svg>