<?xml version="1.0" encoding="UTF-8"?>
<!DOCTYPE svg PUBLIC "-//W3C//DTD SVG 1.1//EN" "http://www.w3.org/Graphics/SVG/1.1/DTD/svg11.dtd">
<!-- Creator: CorelDRAW X8 -->
<svg xmlns="http://www.w3.org/2000/svg" xml:space="preserve" width="2550px" height="376px" version="1.1" style="shape-rendering:geometricPrecision; text-rendering:geometricPrecision; image-rendering:optimizeQuality; fill-rule:evenodd; clip-rule:evenodd"
viewBox="0 0 2550 376"
 xmlns:xlink="http://www.w3.org/1999/xlink">
 <defs>
  <style type="text/css">
   <![CDATA[
    .str0 {stroke:#E0E0E0;stroke-width:4.73676}
    .fil6 {fill:black}
    .fil8 {fill:#00A2E5}
    .fil11 {fill:#1A1F71}
    .fil0 {fill:#213D62}
    .fil10 {fill:#231F20}
    .fil9 {fill:#7375CF}
    .fil7 {fill:#EB001B}
    .fil2 {fill:#EBEBEB}
    .fil1 {fill:#ED1B23}
    .fil5 {fill:#F79E1B}
    .fil12 {fill:#F7B600}
    .fil13 {fill:#FEFEFE}
    .fil4 {fill:#FF5F00}
    .fil3 {fill:white}
   ]]>
  </style>
 </defs>
 <g id="Layer_x0020_1">
  <metadata id="CorelCorpID_0Corel-Layer"/>
  <path id="Rectangle" class="fil0" d="M2468 0l64 0c10,0 18,8 18,18l0 339c0,10 -8,18 -18,18l-64 0 0 -375z"/>
  <path id="Rectangle_0" class="fil0" d="M82 376l-64 0c-10,0 -18,-9 -18,-19l0 -339c0,-10 8,-18 18,-18l64 0 0 376z"/>
  <path id="Rectangle_1" class="fil1" d="M953 376l-905 0c-10,0 -18,-9 -18,-19l0 -339c0,-10 8,-18 18,-18l905 0 0 376 0 0z"/>
  <path class="fil2" d="M952 0l1552 0c7,0 14,8 14,18l0 339c0,10 -7,18 -14,18l-1552 0c-9,0 -15,-8 -15,-18l0 -339c0,-10 6,-18 15,-18z"/>
  <path class="fil3 str0" d="M1522 68l403 0c5,0 10,4 10,10l0 220c0,6 -5,10 -10,10l-403 0c-6,0 -10,-4 -10,-10l0 -220c0,-6 4,-10 10,-10z"/>
  <polygon id="Fill-2" class="fil4" points="1693,226 1757,226 1757,113 1693,113 "/>
  <path id="Fill-4" class="fil5" d="M1838 215l0 -3 -1 0 0 1 -1 -1 0 3 0 -3 1 1 1 -1 0 3zm-4 0l0 -3 -1 0 0 3 1 0z"/>
  <path id="Fill-5" class="fil5" d="M1841 170c0,39 -32,72 -72,72 -17,0 -32,-6 -45,-16 17,-13 28,-34 28,-56 0,-23 -11,-43 -28,-57 13,-10 28,-15 45,-15 40,-1 72,32 72,72z"/>
  <path id="XMLID_1775_" class="fil6" d="M1654 278l0 -12c0,-5 -3,-7 -8,-7 -2,0 -5,1 -7,2 -1,-1 -2,-2 -5,-2 -3,0 -4,1 -6,2l0 -2 -4 0 0 19 4 0 0 -11c0,-3 2,-4 4,-4 3,0 5,1 5,4l0 11 4 0 0 -11c0,-3 1,-4 4,-4 3,0 4,1 4,4l0 11 5 0zm60 -19l-7 0 0 -6 -4 0 0 6 -4 0 0 4 4 0 0 8c0,5 1,7 7,7 1,0 3,0 4,-1l-1 -4c-2,1 -2,1 -3,1 -3,0 -3,-1 -3,-3l0 -8 7 0 0 -4zm34 0c-3,0 -4,1 -4,2l0 -2 -4 0 0 19 4 0 0 -11c0,-3 1,-4 3,-4l2 0 2 -4 -3 0zm-52 1c-2,0 -4,-2 -7,-2 -6,0 -9,3 -9,6 0,4 3,6 7,6l2 0c3,1 3,1 3,3 0,1 -2,1 -5,1 -1,0 -4,0 -5,-1l-2 2c2,2 4,3 7,3 6,0 9,-3 9,-6 0,-4 -2,-5 -6,-5l-3 -2c-1,0 -3,0 -3,-1 0,-2 2,-2 5,-2 1,0 4,0 5,2l2 -4zm109 -1c-3,0 -5,1 -6,2l0 -2 -4 0 0 19 4 0 0 -11c0,-3 1,-4 4,-4l3 0 1 -4 -2 0zm-53 9c0,6 5,10 10,10 3,0 4,0 7,-2l-3 -3c-1,1 -2,1 -4,1 -4,0 -5,-1 -5,-6 0,-2 1,-5 5,-5 2,0 3,0 4,1l3 -3c-3,-1 -4,-2 -7,-2 -5,0 -10,4 -10,9zm38 0l0 -10 -4 0 0 3c-1,-1 -4,-3 -5,-3 -6,0 -10,5 -10,10 0,6 4,10 10,10 1,0 4,-1 5,-2l0 2 4 0 0 -10zm-15 0c0,-2 1,-5 6,-5 2,0 5,2 5,5 0,3 -2,6 -5,6 -5,0 -6,-3 -6,-6zm-49 -9c-5,0 -9,4 -9,9 0,6 4,10 10,10 3,0 4,-1 7,-2l-1 -3c-2,1 -5,1 -6,1 -3,0 -6,0 -6,-4l14 0 0 -1c0,-6 -4,-10 -9,-10zm0 4c2,0 5,1 5,4l-10 0c0,-3 2,-4 5,-4zm101 5l0 -17 -4 0 0 10c-2,-1 -3,-2 -6,-2 -5,0 -8,4 -8,9 0,6 3,10 8,10 3,0 4,-1 6,-2l0 2 4 0 0 -10zm-14 0c0,-2 1,-5 4,-5 4,0 7,2 7,5 0,3 -3,6 -7,6 -3,0 -4,-3 -4,-6zm-137 0l0 -10 -4 0 0 3c-2,-1 -3,-3 -6,-3 -6,0 -10,5 -10,10 0,6 4,10 10,10 3,0 4,-1 6,-2l0 2 4 0 0 -10zm-15 0c0,-2 2,-5 5,-5 4,0 6,2 6,5 0,3 -2,6 -6,6 -3,0 -5,-3 -5,-6z"/>
  <path id="Fill-1" class="fil6" d="M1833 277l1 0 0 1 -1 -1 0 1 0 -1zm0 1l1 0 0 -1 -1 0 0 1zm0 -3l1 0 0 3 -3 0 0 -1 2 0 0 -2 0 0z"/>
  <path class="fil3 str0" d="M2014 68l402 0c6,0 10,4 10,10l0 220c0,6 -4,10 -10,10l-402 0c-6,0 -10,-4 -10,-10l0 -220c0,-6 4,-10 10,-10z"/>
  <circle class="fil7" cx="2172" cy="167" r="73"/>
  <circle class="fil8" cx="2255" cy="167" r="73"/>
  <path class="fil9" d="M2245 167c0,-24 -13,-47 -31,-60 -20,15 -32,36 -32,60 0,25 12,48 32,60 18,-12 31,-35 31,-60z"/>
  <path class="fil10" d="M2278 260l2 0 -1 4c-2,-1 -2,-1 -3,-1 -3,0 -4,2 -4,5l0 12 -4 0 0 -20 4 0 0 3c1,-3 3,-3 6,-3zm-17 4l-7 0 0 9c0,2 0,4 2,4 2,0 3,-2 5,-2l1 3c-1,2 -4,3 -6,3 -5,0 -7,-3 -7,-9l0 -8 -4 0 0 -4 4 0 0 -7 5 0 0 7 7 0 0 4zm-57 4c0,-2 3,-5 6,-5 3,0 4,2 6,5l-12 0zm16 2c0,-7 -4,-10 -10,-10 -6,0 -10,3 -10,10 0,7 4,11 10,11 3,0 6,-1 8,-3l-1 -4c-3,2 -4,3 -7,3 -3,0 -6,-2 -6,-6l16 0 0 -1 0 0zm20 -6c-2,0 -5,-1 -8,-1 -2,0 -4,1 -4,2 0,2 2,2 4,2l2 1c4,0 7,2 7,6 0,4 -3,7 -9,7 -4,0 -7,-1 -9,-3l2 -4c2,2 5,3 7,3 3,0 5,-2 5,-3 0,-1 -2,-1 -5,-1l-1 -2c-4,0 -7,-3 -7,-6 0,-4 3,-5 8,-5 3,0 6,0 9,1l-1 3zm53 -1c-1,0 -1,1 -3,1 0,0 -1,0 -1,2 -2,0 -2,1 -2,1 0,2 -1,2 -1,3 0,1 1,1 1,3 0,0 0,1 2,1 0,2 1,2 1,2 2,1 2,1 3,1 2,0 2,0 3,-1 0,0 1,0 1,-2 2,0 2,-1 2,-1 0,-2 1,-2 1,-3 0,-1 -1,-2 -1,-3 0,0 0,-1 -2,-1 0,-2 -1,-2 -1,-2 -1,0 -1,-1 -3,-1zm0 -3l4 0c2,0 3,1 5,3 0,0 1,1 1,2 1,2 1,3 1,5 0,1 0,2 -1,4 0,1 -1,3 -1,3 -2,1 -3,2 -5,2 -1,0 -2,2 -4,2 -1,0 -3,-2 -4,-2 -2,0 -3,-1 -4,-2 0,0 -2,-2 -2,-3 -1,-2 -1,-3 -1,-4 0,-2 0,-3 1,-5 0,-1 2,-2 2,-2 1,-2 2,-3 4,-3l4 0zm-114 10c0,-4 1,-7 6,-7 4,0 7,3 7,7 0,4 -3,7 -7,7 -5,0 -6,-4 -6,-7zm15 0l0 -10 -4 0 0 3c-1,-3 -3,-3 -6,-3 -5,0 -10,4 -10,10 0,6 5,11 10,11 3,0 5,-1 6,-4l0 3 4 0 0 -10zm-24 10l0 -13c0,-4 -2,-7 -8,-7 -3,-2 -6,0 -7,3 -2,-3 -3,-3 -7,-3 -2,0 -4,0 -6,3l0 -3 -4 0 0 20 4 0 0 -12c0,-2 3,-5 6,-5 3,0 4,2 4,5l0 12 4 0 0 -12c0,-2 2,-5 6,-5 3,0 4,2 4,5l0 12 4 0z"/>
  <path id="Fill-3" class="fil7" d="M1699 168c0,-22 11,-42 28,-55 -13,-10 -28,-15 -45,-15 -40,0 -72,31 -72,70 0,41 32,72 72,72 17,0 32,-5 45,-15 -17,-13 -28,-33 -28,-57z"/>
  <path class="fil3 str0" d="M1031 68l403 0c5,0 9,4 9,10l0 220c0,6 -4,10 -9,10l-403 0c-5,0 -9,-4 -9,-10l0 -220c0,-6 4,-10 9,-10z"/>
  <path id="Combined-Shape" class="fil11" d="M1131 154c-10,-7 -20,-9 -21,-10l1 -1 30 0c8,0 8,7 8,7l7 33 2 10 18 -50 21 0 -31 75 -19 0 -16 -64zm80 64l-19 0 12 -75 20 0 -13 75zm133 0l-22 0 -2 -12 -24 0 -3 12 -19 0 28 -70c0,0 1,-5 8,-5l20 0 14 75zm-68 -57c-7,-4 -25,-4 -25,3 0,8 25,10 25,28 0,18 -18,26 -31,26 -12,0 -21,-5 -21,-5l3 -17c8,7 31,9 31,-1 0,-10 -25,-10 -25,-28 0,-20 21,-24 29,-24 9,0 17,4 17,4l-3 14zm27 34l17 0 -5 -30 -12 30z"/>
  <polygon class="fil11" points="1039,88 1424,88 1424,117 1039,117 "/>
  <polygon class="fil12" points="1035,256 1424,256 1424,285 1035,285 "/>
  <g id="_2210682003072">
   <path class="fil13" d="M163 161c1,-1 2,-2 2,-2 -2,2 -4,5 -9,8 0,0 -10,10 -17,16 -7,7 -30,26 -35,30 -5,3 -22,16 -23,17 -1,1 -5,4 -6,2 -1,-1 -1,-2 -1,-3 0,1 -2,3 0,5 1,1 5,-1 6,-2 0,0 1,-1 4,-3 9,8 20,12 33,12 29,0 53,-24 53,-54 0,-9 -2,-18 -7,-26l0 0zm-9 -12c-10,-10 -23,-15 -37,-15 -30,0 -54,24 -54,53 0,14 5,27 14,37 8,-11 35,-49 37,-51 0,0 7,-9 7,-10 1,-1 1,-1 -1,-2 -1,-1 -7,-5 -8,-6 -1,-1 -1,-4 2,-4 3,-1 27,-3 40,-2l0 0z"/>
   <path class="fil13" d="M249 144l0 67c0,15 -13,26 -30,26 -17,0 -30,-12 -30,-26l0 -52c0,-8 7,-15 15,-15l1 0 0 66c0,9 7,14 14,14 7,0 14,-5 14,-14l0 -52c0,-8 7,-14 15,-14l1 0z"/>
   <path class="fil13" d="M282 167c23,0 26,13 26,21l0 48 0 0c-9,0 -16,-7 -16,-16l0 -32c0,-5 -2,-10 -11,-10 -4,0 -6,1 -9,2 0,1 0,56 0,56l-17 0 0 -64c8,-3 19,-5 27,-5l0 0z"/>
   <path class="fil13" d="M324 144c5,0 9,3 9,8 0,4 -4,8 -9,8 -5,0 -9,-4 -9,-8 0,-5 4,-8 9,-8l0 0zm8 23l0 53c0,9 -7,16 -15,16l-1 0 0 -69 16 0 0 0z"/>
   <path class="fil13" d="M378 142c8,0 15,2 21,6l0 16c-4,-5 -8,-8 -17,-8 -16,0 -27,16 -27,33 0,16 11,33 27,33 7,0 13,-2 17,-7l0 16c-5,3 -12,6 -21,6 -26,0 -40,-25 -40,-48 0,-23 14,-47 40,-47l0 0z"/>
   <path class="fil13" d="M428 167c3,0 6,0 9,1l0 13c-5,-4 -12,-3 -16,-1l0 40c0,9 -7,16 -15,16l-1 0 0 -63c6,-4 13,-6 23,-6l0 0z"/>
   <path class="fil13" d="M494 202l-40 6c1,11 7,17 17,17 11,0 17,-4 21,-7l0 14c-4,2 -12,5 -23,5 -20,0 -32,-14 -32,-35 0,-21 12,-35 29,-35 18,0 29,12 29,33l0 2 -1 0zm-14 -9c-1,-14 -9,-15 -13,-15l-1 0c-9,0 -13,7 -13,19l27 -4 0 0z"/>
   <path class="fil13" d="M553 144l0 91c-4,1 -17,2 -22,2l-1 0c-20,-1 -31,-12 -31,-33 0,-21 11,-34 29,-34 4,0 6,0 9,1l0 -12c0,-8 7,-15 15,-15l1 0 0 0zm-16 36c-2,0 -4,0 -5,0 -14,0 -17,13 -17,23 0,15 5,23 15,23 2,0 6,0 7,-1l0 -45 0 0z"/>
   <path class="fil13" d="M569 144c5,0 8,3 8,8 0,4 -3,8 -8,8 -5,0 -9,-4 -9,-8 0,-5 4,-8 9,-8l0 0zm8 23l0 53c0,9 -7,16 -16,16l0 0 0 -69 16 0 0 0z"/>
   <path class="fil13" d="M605 144l0 23 11 0 0 13 -11 0 0 37c0,4 2,6 6,6 2,0 3,-1 5,-1l0 13c-1,0 -4,2 -8,2 -12,0 -19,-6 -19,-17l0 -40 -7 0 0 -13 7 0 0 -8c0,-8 7,-15 15,-15l1 0 0 0z"/>
   <path class="fil13" d="M691 186l0 0c9,2 21,10 21,23 0,18 -15,27 -36,27 -21,0 -29,-1 -29,-1l0 -88c6,-3 16,-5 28,-5 22,0 34,10 34,24 0,12 -10,18 -18,20l0 0zm1 -19c0,-11 -6,-15 -17,-15 -5,0 -8,0 -11,1l0 29 6 0c16,1 22,-4 22,-15l0 0zm-22 24l-6 0 0 34c3,0 6,0 11,0 11,0 19,-4 19,-16 0,-13 -7,-19 -24,-18l0 0z"/>
   <path class="fil13" d="M752 193l0 -5c0,-9 -5,-11 -13,-11 -7,0 -13,3 -20,6l0 -11c4,-2 12,-5 23,-5 14,0 25,7 25,24l0 44c-5,1 -15,2 -21,2l-4 0c-18,0 -27,-8 -27,-21 0,-17 17,-22 37,-23l0 0zm0 7c-14,1 -23,4 -23,16 0,8 6,12 14,12 4,0 8,0 10,-1l0 -27 -1 0z"/>
   <path class="fil13" d="M800 167c23,0 27,13 27,21l0 48 -1 0c-8,0 -15,-7 -15,-16l0 -32c0,-5 -2,-10 -11,-10 -4,0 -7,1 -9,2 0,1 0,56 0,56l-17 0 0 -64c7,-3 18,-5 26,-5l0 0z"/>
   <path class="fil13" d="M851 220c0,8 -7,16 -17,16l0 0 0 -77c0,-9 7,-16 16,-16l1 0 0 56 20 -30 15 0 -21 31 25 36 -18 0 -21 -34 0 18 0 0z"/>
  </g>
 </g>
</svg>
